<svg width="571" height="558" viewBox="0 0 571 558" fill="none" xmlns="http://www.w3.org/2000/svg">
<mask id="mask0_37_782" style="mask-type:luminance" maskUnits="userSpaceOnUse" x="0" y="58" width="571" height="500">
<path fill-rule="evenodd" clip-rule="evenodd" d="M0.000671387 58.335H570.15V557.268H0.000671387V58.335Z" fill="white"/>
</mask>
<g mask="url(#mask0_37_782)">
<path fill-rule="evenodd" clip-rule="evenodd" d="M534.931 330.503C533.164 333.339 531.403 336.128 529.525 338.906C513.093 363.586 492.701 387.291 470.119 409.081C469.097 410.092 468.026 411.115 466.961 412.126C463.744 415.177 460.426 418.233 457.107 421.172C451.386 426.422 445.493 431.502 439.498 436.372C436.34 439.049 433.081 441.677 429.864 444.24C392.51 473.791 352.581 499.643 313.236 519.12C301.038 525.227 288.834 530.681 276.792 535.391C213.949 560.285 155.453 566.119 115.097 541.439C102.246 533.625 91.2733 522.706 82.549 508.314C81.1573 506.007 79.7657 503.705 78.3741 501.409C65.4803 479.834 53.1645 458.162 42.3527 436.372C39.7836 431.288 37.3804 426.262 35.0253 421.172C-4.20751 336.872 -19.146 251.555 36.4651 167.63C58.0886 134.986 93.5802 109.562 136.18 91.5731C148.335 86.3867 161.015 81.8854 174.187 77.9781C180.663 75.9442 187.188 74.178 193.878 72.5776C202.287 70.4367 210.845 68.5633 219.516 66.9523C226.158 65.6731 232.79 64.5491 239.48 63.5803C242.263 63.211 245.047 62.8363 247.83 62.4563C267.58 59.946 287.598 58.5491 307.514 58.3938C310.131 58.335 312.754 58.335 315.329 58.335C327.371 58.3938 339.302 58.8702 351.077 59.839C354.235 60.0531 357.393 60.3207 360.551 60.69C420.658 66.5294 475.787 83.7587 513.254 112.346C521.443 118.608 528.781 125.347 535.145 132.685C536.328 134.023 537.452 135.361 538.517 136.747C538.891 137.175 539.218 137.603 539.587 138.037C547.348 147.773 553.557 157.841 558.219 168.117C582.037 219.982 568.115 277.193 534.931 330.503Z" fill="#E3E0F3"/>
</g>
<path fill-rule="evenodd" clip-rule="evenodd" d="M413.781 487.263C399.34 502.4 389.059 524.045 404.591 536.869C421.938 551.187 457.719 547.863 476.216 520.849C488.04 503.593 494.297 476.312 481.199 461.01C469.986 447.907 431.497 468.691 413.781 487.263Z" fill="#E8E5EA"/>
<path fill-rule="evenodd" clip-rule="evenodd" d="M203.782 483.316C200.195 483.471 196.556 483.583 193.023 483.583C192.649 483.583 192.381 483.899 192.381 484.279C192.381 484.595 192.649 484.921 193.023 484.921C196.609 484.921 200.195 484.809 203.835 484.654C204.21 484.654 204.477 484.327 204.477 483.958C204.424 483.637 204.103 483.316 203.782 483.316ZM182.319 483.423C178.679 483.316 175.039 483.102 171.614 482.888C171.132 482.834 170.918 483.102 170.865 483.471C170.865 483.851 171.132 484.172 171.507 484.226C174.986 484.44 178.625 484.654 182.265 484.761C182.64 484.761 182.961 484.493 182.961 484.113C182.961 483.744 182.693 483.423 182.319 483.423ZM225.191 481.763C221.605 482.133 218.019 482.459 214.486 482.727C214.112 482.727 213.844 483.043 213.844 483.423C213.898 483.797 214.165 484.065 214.54 484.065H214.593C218.126 483.797 221.712 483.471 225.298 483.101C225.673 483.043 225.94 482.727 225.94 482.347C225.887 481.977 225.566 481.704 225.191 481.763ZM160.909 481.817C157.377 481.437 153.79 480.907 150.311 480.313C149.937 480.265 149.616 480.479 149.509 480.854C149.455 481.223 149.723 481.55 150.097 481.603C153.576 482.245 157.162 482.727 160.749 483.155H160.856C161.177 483.155 161.444 482.941 161.498 482.561C161.551 482.192 161.284 481.865 160.909 481.817ZM246.493 478.926C242.854 479.456 239.321 479.997 235.842 480.479C235.468 480.527 235.2 480.853 235.254 481.223C235.307 481.549 235.628 481.817 235.949 481.817H236.003C239.482 481.335 243.068 480.794 246.708 480.211C247.029 480.157 247.296 479.836 247.243 479.456C247.189 479.087 246.868 478.873 246.493 478.926ZM139.821 478.177C136.288 477.374 132.809 476.465 129.437 475.501C129.063 475.394 128.688 475.555 128.581 475.929C128.474 476.299 128.688 476.679 129.063 476.78C132.328 477.69 135.646 478.606 139.018 479.408C139.179 479.457 139.339 479.457 139.5 479.515H139.66C139.767 479.515 139.874 479.457 139.981 479.408L140.035 479.355C140.196 479.301 140.249 479.141 140.303 478.975C140.356 478.659 140.142 478.284 139.821 478.177ZM267.582 474.913C264.103 475.657 260.517 476.411 257.145 477.054H257.038C256.663 477.107 256.449 477.423 256.502 477.803C256.556 478.119 256.877 478.333 257.198 478.333H257.305C259.714 477.905 262.176 477.423 264.638 476.893C265.709 476.679 266.779 476.465 267.849 476.197C268.224 476.144 268.438 475.769 268.385 475.395C268.278 475.073 267.956 474.806 267.582 474.913ZM288.456 469.822C285.084 470.732 281.605 471.642 278.072 472.499C277.698 472.611 277.484 472.932 277.591 473.307C277.644 473.623 277.912 473.837 278.233 473.837C278.286 473.837 278.34 473.837 278.394 473.789C281.926 472.932 285.459 472.022 288.831 471.16C289.152 471.059 289.366 470.684 289.312 470.304C289.205 469.988 288.831 469.774 288.456 469.822ZM119.268 472.07C118.09 471.642 116.966 471.214 115.789 470.732C113.594 469.876 111.507 468.918 109.419 467.954C109.098 467.794 108.67 467.954 108.51 468.27C108.349 468.597 108.51 469.025 108.831 469.18C111.079 470.256 113.434 471.214 115.789 472.183C116.752 472.611 117.769 472.98 118.786 473.36H119.054C119.321 473.36 119.589 473.194 119.696 472.932C119.803 472.611 119.642 472.236 119.268 472.07ZM309.063 463.828C308.367 464.042 307.671 464.31 306.922 464.524C304.299 465.332 301.569 466.188 298.84 466.986C298.465 467.098 298.251 467.414 298.358 467.794C298.465 468.115 298.733 468.27 299 468.27H299.214C301.89 467.473 304.62 466.67 307.189 465.862C307.992 465.594 308.741 465.38 309.491 465.118C309.812 465.011 310.026 464.636 309.919 464.256C309.812 463.94 309.437 463.726 309.063 463.828ZM99.8922 463.03L99.5176 462.763C96.5202 461.05 93.63 459.23 90.8467 457.303C90.5791 457.089 90.1509 457.196 89.9368 457.517C89.7227 457.78 89.8298 458.213 90.0974 458.427C92.8806 460.295 95.8244 462.174 98.8218 463.94L99.25 464.208C99.357 464.256 99.464 464.256 99.5711 464.256C99.8387 464.256 100.053 464.154 100.16 463.94C100.374 463.614 100.213 463.185 99.8922 463.03ZM329.402 456.923C326.03 458.16 322.604 459.337 319.286 460.51C318.911 460.622 318.75 460.997 318.857 461.318C318.965 461.634 319.179 461.794 319.5 461.794C319.553 461.794 319.607 461.794 319.714 461.746C323.086 460.622 326.458 459.386 329.83 458.16C330.204 458.047 330.365 457.678 330.258 457.303C330.097 456.923 329.669 456.768 329.402 456.923ZM350.276 449.436C350.115 449.061 349.741 448.895 349.419 449.061C346.154 450.399 342.782 451.785 339.41 453.075C339.089 453.236 338.929 453.605 339.036 453.985C339.143 454.247 339.41 454.413 339.678 454.413C339.732 454.413 339.839 454.36 339.946 454.36C343.318 453.022 346.69 451.63 349.901 450.292C350.276 450.131 350.436 449.751 350.276 449.436ZM82.283 450.929C81.052 449.971 79.8209 448.954 78.6969 447.985C77.1447 446.647 75.6996 445.26 74.2545 443.922C73.9868 443.655 73.5586 443.655 73.291 443.922C73.0234 444.185 73.0234 444.618 73.291 444.88C75.0038 446.492 76.7701 448.097 78.6434 449.649C79.5533 450.447 80.4632 451.255 81.4266 451.999C81.5337 452.112 81.6942 452.165 81.8548 452.165C82.0689 452.165 82.2295 452.058 82.39 451.897C82.6041 451.63 82.5506 451.202 82.283 450.929ZM369.973 440.651C369.812 440.282 369.384 440.17 369.063 440.336C365.958 441.775 362.8 443.279 359.268 444.832C358.947 444.939 358.786 445.367 358.947 445.688C359.054 445.956 359.321 446.116 359.535 446.116C359.643 446.116 359.75 446.063 359.803 446.004C363.336 444.452 366.547 443.012 369.651 441.508C369.973 441.353 370.133 440.978 369.973 440.651ZM66.8681 436.157C64.513 433.48 62.265 430.649 60.2311 427.812C60.017 427.486 59.5889 427.438 59.2677 427.652C59.0001 427.866 58.9466 428.294 59.1607 428.562C61.034 431.238 63.1214 433.861 65.2624 436.371C65.4764 436.59 65.637 436.852 65.8511 437.067C65.9582 437.179 66.1723 437.281 66.3328 437.281C66.4934 437.281 66.654 437.232 66.8145 437.125C67.0286 436.911 67.0822 436.638 66.9751 436.371C66.9751 436.269 66.9216 436.21 66.8681 436.157ZM389.188 430.97C389.027 430.648 388.599 430.541 388.278 430.702C385.227 432.356 381.962 434.02 378.75 435.626C378.429 435.787 378.322 436.108 378.429 436.37C378.376 436.424 378.429 436.482 378.429 436.536C378.536 436.75 378.804 436.911 379.018 436.911C379.125 436.911 379.232 436.852 379.339 436.804C379.607 436.638 379.928 436.536 380.196 436.37C383.193 434.93 386.083 433.378 388.92 431.879C389.241 431.714 389.348 431.285 389.188 430.97ZM407.921 420.426C407.76 420.099 407.332 419.997 407.011 420.153C406.422 420.479 405.887 420.854 405.298 421.175C402.836 422.673 400.32 424.113 397.698 425.564C397.377 425.719 397.27 426.147 397.484 426.474C397.591 426.688 397.805 426.789 398.073 426.789C398.18 426.789 398.287 426.789 398.394 426.741C401.552 424.921 404.709 423.102 407.707 421.335C407.76 421.282 407.814 421.223 407.867 421.175C408.081 420.961 408.081 420.693 407.921 420.426ZM54.4507 418.814C52.6309 415.769 50.9716 412.552 49.5265 409.346C49.3659 409.025 48.9377 408.864 48.6166 409.025C48.2955 409.18 48.1349 409.56 48.2955 409.935C49.7941 413.146 51.4533 416.411 53.2731 419.515C53.3802 419.73 53.5943 419.837 53.8619 419.837C53.969 419.837 54.076 419.783 54.1831 419.73C54.5042 419.569 54.6112 419.141 54.4507 418.814ZM426.172 409.078C426.172 409.025 426.119 408.966 426.119 408.918C425.905 408.597 425.477 408.538 425.209 408.704C424.995 408.811 424.834 408.966 424.62 409.078C423.121 410.09 421.516 411.166 419.964 412.124C418.733 412.98 417.448 413.789 416.217 414.591C415.896 414.747 415.789 415.18 416.003 415.501C416.11 415.715 416.324 415.822 416.538 415.822C416.645 415.822 416.806 415.769 416.913 415.715C418.786 414.533 420.606 413.36 422.426 412.124C423.603 411.38 424.781 410.631 425.958 409.828C426.172 409.662 426.279 409.346 426.172 409.078ZM443.621 396.447C443.407 396.125 442.979 396.067 442.711 396.281C439.874 398.427 436.931 400.568 434.04 402.655C433.719 402.869 433.666 403.244 433.88 403.565C434.04 403.726 434.201 403.828 434.415 403.828C434.576 403.828 434.683 403.828 434.843 403.726C437.733 401.633 440.677 399.497 443.514 397.351C443.835 397.137 443.889 396.709 443.621 396.447ZM42.3543 389.221C42.2473 388.847 41.8726 388.633 41.4979 388.74C41.1768 388.847 40.9627 389.221 41.0162 389.537C41.9797 393.075 43.0501 396.554 44.2276 399.873C44.3347 400.194 44.5488 400.354 44.8699 400.354C44.9235 400.354 44.977 400.354 45.084 400.296C45.4052 400.194 45.6193 399.814 45.4587 399.444C44.2812 396.126 43.2642 392.695 42.3543 389.221ZM460.374 382.847C460.106 382.584 459.678 382.584 459.411 382.798C456.788 385.046 454.058 387.343 451.168 389.703C450.9 389.917 450.847 390.345 451.061 390.613C451.221 390.773 451.382 390.875 451.596 390.875C451.757 390.875 451.864 390.827 452.024 390.715C454.915 388.418 457.698 386.063 460.267 383.815C460.588 383.542 460.588 383.173 460.374 382.847ZM38.5541 368.127C38.5541 367.811 38.233 367.485 37.8583 367.543C37.4837 367.597 37.216 367.913 37.2696 368.293C37.6442 371.927 38.1259 375.513 38.7147 378.997C38.7682 379.313 39.0894 379.527 39.4105 379.527H39.5175C39.8922 379.479 40.1063 379.158 40.0528 378.783C39.464 375.299 38.9288 371.772 38.5541 368.127ZM476.11 368.24C475.842 367.967 475.414 367.967 475.146 368.24C472.684 370.702 470.062 373.217 467.439 375.68C467.171 375.894 467.118 376.322 467.386 376.589C467.493 376.75 467.707 376.804 467.867 376.804C468.028 376.804 468.188 376.75 468.349 376.638C470.972 374.176 473.594 371.665 476.11 369.15C476.378 368.882 476.378 368.454 476.11 368.24ZM490.615 352.338C490.347 352.071 489.919 352.124 489.651 352.397C487.457 355.073 485.048 357.803 482.586 360.479C482.319 360.747 482.372 361.175 482.64 361.437C482.747 361.55 482.907 361.603 483.068 361.603C483.282 361.603 483.443 361.491 483.55 361.389C486.065 358.659 488.474 355.924 490.722 353.248C490.936 352.981 490.882 352.552 490.615 352.338ZM37.7512 351.541C37.7512 349.989 37.7512 348.383 37.8048 346.772C37.8048 346.402 37.5371 346.076 37.1625 346.076C36.7878 346.076 36.4667 346.349 36.4667 346.718C36.4131 348.324 36.4131 349.935 36.4131 351.541C36.4131 353.575 36.4667 355.555 36.5202 357.535C36.5202 357.857 36.8413 358.178 37.1625 358.178H37.216C37.5907 358.119 37.8583 357.857 37.8583 357.476C37.8048 355.501 37.7512 353.521 37.7512 351.541ZM503.568 335.216C503.246 335.002 502.872 335.056 502.658 335.371C500.677 338.262 498.536 341.205 496.395 344.042C496.128 344.369 496.235 344.797 496.502 345.011C496.609 345.064 496.77 345.118 496.931 345.118C497.091 345.118 497.305 345.064 497.466 344.85C499.607 342.014 501.748 339.07 503.728 336.126C503.942 335.799 503.889 335.371 503.568 335.216ZM38.9824 324.666C38.5542 324.565 38.2866 324.832 38.233 325.207C37.7513 328.846 37.3766 332.433 37.0555 335.965C37.0555 336.34 37.3231 336.661 37.6978 336.661H37.7513C38.0725 336.661 38.3936 336.393 38.3936 336.067C38.7147 332.54 39.0894 328.954 39.5711 325.421C39.6246 325.046 39.357 324.666 38.9824 324.666ZM514.54 316.697C514.219 316.59 513.844 316.697 513.63 317.018C512.078 320.069 510.311 323.227 508.438 326.331C508.224 326.647 508.331 327.08 508.652 327.294C508.759 327.343 508.866 327.343 508.973 327.343C509.241 327.343 509.455 327.241 509.562 327.027C511.489 323.869 513.255 320.711 514.861 317.607C515.022 317.28 514.861 316.852 514.54 316.697ZM42.836 303.471C42.4613 303.423 42.1402 303.637 42.0332 304.012C41.2838 307.544 40.5345 311.072 39.8922 314.556C39.8387 314.931 40.1063 315.252 40.4274 315.359H40.588C40.9092 315.359 41.1768 315.145 41.2303 314.824C41.8726 311.344 42.5684 307.812 43.3712 304.279C43.4248 303.899 43.2107 303.584 42.836 303.471ZM522.997 296.946C522.622 296.839 522.247 296.994 522.14 297.374C521.016 300.639 519.678 304.011 518.233 307.33C518.072 307.699 518.233 308.079 518.608 308.24C518.661 308.24 518.768 308.293 518.875 308.293C519.089 308.293 519.357 308.133 519.464 307.865C520.909 304.493 522.247 301.121 523.371 297.802C523.532 297.476 523.318 297.107 522.997 296.946ZM48.4025 282.709C48.0814 282.602 47.7067 282.816 47.5997 283.186C46.5292 286.616 45.5122 290.09 44.6023 293.521C44.5488 293.89 44.7629 294.27 45.0841 294.319C45.1376 294.372 45.1911 294.372 45.2981 294.372C45.5658 294.372 45.8334 294.163 45.9404 293.89C46.7968 290.47 47.8138 286.986 48.8842 283.566C48.9913 283.186 48.7772 282.816 48.4025 282.709ZM528.67 276.233C528.295 276.126 527.974 276.393 527.867 276.709C527.118 280.14 526.208 283.614 525.245 287.152C525.191 287.473 525.352 287.842 525.726 287.954C525.78 287.954 525.833 288.008 525.887 288.008C526.208 288.008 526.476 287.794 526.529 287.473C527.493 283.994 528.402 280.461 529.205 277.036C529.259 276.661 529.045 276.281 528.67 276.233ZM55.4141 262.37C55.0394 262.258 54.6648 262.418 54.5577 262.745C53.2732 266.117 52.0421 269.542 50.9181 272.909C50.7576 273.235 50.9717 273.605 51.2928 273.771H51.5069C51.828 273.771 52.0421 273.605 52.1492 273.342C53.3267 269.97 54.5577 266.545 55.7888 263.226C55.8958 262.9 55.7353 262.472 55.4141 262.37ZM532.524 255.037C532.203 254.984 531.828 255.251 531.774 255.626C531.293 259.159 530.704 262.686 530.062 266.218C530.008 266.598 530.222 266.914 530.597 267.027H530.704C531.025 267.027 531.293 266.813 531.4 266.486C532.042 262.9 532.631 259.314 533.113 255.84C533.113 255.466 532.898 255.086 532.524 255.037ZM63.5497 242.459C63.2285 242.299 62.8538 242.459 62.6933 242.829C61.2481 246.099 59.803 249.417 58.4649 252.736C58.3579 253.052 58.5184 253.485 58.8396 253.592C58.9466 253.646 59.0001 253.646 59.1072 253.646C59.3748 253.646 59.5889 253.485 59.696 253.217C61.034 249.947 62.4792 246.629 63.9243 243.369C64.0849 242.994 63.9243 242.614 63.5497 242.459ZM534.397 233.628C534.076 233.676 533.755 233.891 533.701 234.271C533.541 237.857 533.327 241.443 533.006 244.975C532.952 245.35 533.22 245.671 533.594 245.719H533.648C533.969 245.719 534.29 245.457 534.29 245.077C534.665 241.55 534.879 237.964 535.039 234.319C535.093 234.003 534.772 233.676 534.397 233.628ZM72.8092 223.03C72.4881 222.869 72.0599 222.971 71.8993 223.298C70.2936 226.509 68.6879 229.774 67.1892 232.98C67.0287 233.36 67.1892 233.735 67.5104 233.89C67.6174 233.949 67.6709 233.949 67.778 233.949C68.0456 233.949 68.2597 233.842 68.3667 233.574C69.9189 230.357 71.5246 227.098 73.1303 223.94C73.2909 223.565 73.1303 223.185 72.8092 223.03ZM535.039 212.802C535.039 212.432 534.718 212.165 534.344 212.165C533.969 212.165 533.701 212.486 533.701 212.861C533.862 216.393 533.969 219.979 533.969 223.565C533.969 223.94 534.29 224.261 534.611 224.261C534.986 224.261 535.307 223.94 535.307 223.565C535.307 219.979 535.2 216.34 535.039 212.802ZM82.9787 204.029C82.6576 203.868 82.2294 203.976 82.0688 204.297C80.249 207.449 78.5363 210.666 76.877 213.77C76.7165 214.091 76.8235 214.466 77.1447 214.627C77.2517 214.68 77.3587 214.734 77.4658 214.734C77.6799 214.734 77.9475 214.627 78.0546 214.359C79.7138 211.308 81.4265 208.097 83.2463 204.939C83.4069 204.618 83.2999 204.243 82.9787 204.029ZM533.006 191.291C532.952 190.916 532.631 190.649 532.256 190.756C531.882 190.809 531.667 191.13 531.721 191.5C532.203 195.038 532.631 198.624 532.952 202.156C533.006 202.531 533.273 202.745 533.648 202.745H533.701C534.076 202.745 534.344 202.424 534.29 202.049C533.969 198.463 533.541 194.877 533.006 191.291ZM93.9512 185.563C93.6835 185.349 93.2553 185.456 93.0413 185.778C91.1679 188.823 89.2946 191.879 87.4748 194.984C87.2607 195.305 87.3677 195.679 87.6889 195.894C87.7959 195.947 87.903 196.001 88.01 196.001C88.2776 196.001 88.4917 195.894 88.5988 195.679C90.4186 192.575 92.2919 189.524 94.1652 186.473C94.3793 186.147 94.2723 185.778 93.9512 185.563ZM531.186 180.265H531.132C530.543 176.893 529.741 173.521 528.938 170.09C528.884 169.72 528.51 169.506 528.135 169.613C527.814 169.667 527.546 170.042 527.653 170.416C528.456 173.681 529.152 176.946 529.794 180.211C529.848 180.425 529.901 180.687 529.955 180.907C530.008 181.228 530.276 181.442 530.597 181.442H530.704C531.079 181.335 531.293 181.014 531.239 180.639C531.239 180.532 531.186 180.372 531.186 180.265ZM105.994 167.205C105.726 166.991 105.298 167.045 105.084 167.366L104.816 167.74C102.836 170.684 100.802 173.682 98.8753 176.674C98.6612 177 98.7147 177.428 99.0359 177.642C99.1429 177.696 99.3035 177.749 99.4105 177.749C99.6246 177.749 99.8387 177.642 99.9458 177.428C101.926 174.431 103.907 171.428 105.94 168.49L106.208 168.115C106.369 167.847 106.315 167.414 105.994 167.205ZM525.405 157.25C524.602 154.574 523.746 151.951 522.89 149.382C522.783 149.007 522.354 148.847 522.033 148.954C521.659 149.114 521.498 149.489 521.605 149.81C522.622 152.754 523.585 155.751 524.495 158.802C524.602 159.23 524.763 159.605 524.87 160.033C524.977 160.354 525.245 160.515 525.512 160.515H525.726C526.047 160.408 526.262 160.033 526.155 159.658C525.94 158.855 525.673 158.047 525.405 157.25ZM118.358 149.596C118.037 149.382 117.609 149.436 117.394 149.757C115.361 152.647 113.273 155.538 111.186 158.535C110.972 158.803 111.079 159.231 111.346 159.445C111.507 159.552 111.614 159.552 111.774 159.552C111.935 159.552 112.149 159.498 112.31 159.279C114.344 156.34 116.431 153.397 118.518 150.506C118.733 150.185 118.625 149.811 118.358 149.596ZM131.096 132.254C130.775 132.04 130.401 132.094 130.133 132.362C127.992 135.193 125.851 138.089 123.71 141.032C123.496 141.3 123.603 141.728 123.871 141.942C123.978 142.049 124.138 142.103 124.245 142.103C124.46 142.103 124.674 141.99 124.834 141.782C126.922 138.891 129.063 136.001 131.204 133.164C131.418 132.897 131.364 132.469 131.096 132.254ZM519.089 139.265C518.768 138.463 518.394 137.606 518.019 136.75C517.858 136.322 517.644 135.84 517.43 135.358C516.627 133.378 515.717 131.344 514.807 129.364C514.647 129.042 514.272 128.882 513.898 129.042C513.576 129.203 513.416 129.578 513.576 129.899C514.219 131.285 514.861 132.682 515.45 134.074C515.878 134.984 516.253 135.893 516.574 136.75C517.002 137.66 517.377 138.516 517.698 139.426C517.751 139.533 517.805 139.64 517.858 139.747C517.965 140.015 518.179 140.175 518.447 140.175C518.554 140.175 518.608 140.175 518.715 140.122C518.982 140.015 519.196 139.747 519.143 139.426C519.143 139.372 519.143 139.314 519.089 139.265ZM144.317 115.228C143.996 115.02 143.621 115.073 143.353 115.341C141.159 118.017 139.072 120.8 136.931 123.53C136.877 123.637 136.77 123.69 136.716 123.798C136.449 124.119 136.502 124.547 136.824 124.761C136.931 124.868 137.091 124.922 137.198 124.922C137.359 124.922 137.519 124.868 137.626 124.761C137.68 124.707 137.68 124.707 137.733 124.654C139.981 121.764 142.176 118.98 144.424 116.197C144.638 115.93 144.584 115.501 144.317 115.228ZM510.097 119.676C509.402 118.391 508.759 117.16 508.064 115.929C507.047 114.003 505.976 112.129 504.852 110.256C504.692 109.935 504.263 109.828 503.942 109.988C503.621 110.202 503.514 110.577 503.728 110.898C504.852 112.825 505.923 114.805 507.047 116.839C507.635 117.963 508.278 119.135 508.866 120.318C509.027 120.532 509.241 120.639 509.455 120.639C509.562 120.639 509.669 120.639 509.776 120.581C510.097 120.425 510.258 119.997 510.097 119.676ZM158.072 98.6946C157.751 98.4805 157.377 98.5341 157.109 98.8017C154.807 101.478 152.452 104.208 150.151 106.991C149.937 107.312 149.937 107.74 150.258 107.954C150.365 108.061 150.526 108.115 150.686 108.115C150.847 108.115 151.061 108.008 151.168 107.847C153.469 105.064 155.824 102.334 158.126 99.6581C158.34 99.3904 158.34 98.9622 158.072 98.6946ZM499.179 101.049C497.252 98.052 495.218 95.1082 493.13 92.1644C492.916 91.8432 492.488 91.7897 492.167 92.0038C491.899 92.2179 491.792 92.6461 492.006 92.9672C494.094 95.8575 496.181 98.8013 498.108 101.799C498.215 101.959 498.429 102.066 498.643 102.066C498.75 102.066 498.911 102.066 499.018 101.959C499.339 101.799 499.393 101.37 499.179 101.049ZM172.417 82.6913C172.149 82.4772 171.721 82.4772 171.507 82.7448C169.045 85.314 166.636 87.9902 164.228 90.6663C163.96 90.9875 164.014 91.3621 164.281 91.6298C164.388 91.7368 164.549 91.7903 164.709 91.7903C164.87 91.7903 165.084 91.7368 165.191 91.5762C167.6 88.9 170.062 86.2239 172.47 83.6547C172.738 83.3871 172.684 82.9589 172.417 82.6913ZM486.601 83.6015C484.353 80.7648 481.998 77.9815 479.642 75.3054C479.428 75.0377 479 75.0377 478.733 75.2518C478.411 75.5194 478.411 75.9476 478.679 76.2152C480.981 78.8379 483.336 81.6211 485.53 84.4044C485.691 84.5649 485.851 84.672 486.065 84.672C486.226 84.672 486.333 84.6185 486.493 84.5114C486.761 84.2973 486.815 83.8691 486.601 83.6015ZM187.51 67.3832C187.243 67.1156 186.868 67.1156 186.6 67.3832C184.085 69.7918 181.516 72.3609 178.947 74.9783C178.679 75.2512 178.679 75.6794 178.947 75.8935C179.054 76.0541 179.214 76.1076 179.428 76.1076C179.589 76.1076 179.749 76.0541 179.91 75.8935C182.426 73.3244 184.995 70.7552 187.51 68.3467C187.778 68.0791 187.778 67.6509 187.51 67.3832ZM472.363 67.4373C469.848 64.8682 467.279 62.299 464.656 59.8905C464.388 59.6228 463.96 59.6228 463.692 59.8905C463.478 60.1581 463.478 60.5863 463.746 60.8539C466.369 63.2625 468.938 65.8316 471.4 68.3472C471.507 68.4542 471.667 68.5613 471.882 68.5613C472.042 68.5613 472.203 68.5078 472.31 68.3472C472.577 68.0796 472.577 67.6514 472.363 67.4373ZM203.46 52.9324C203.193 52.6648 202.765 52.6113 202.497 52.8789C200.57 54.5381 198.643 56.1973 196.77 57.9101C196.288 58.2848 195.86 58.7129 195.432 59.1411C195.111 59.4088 194.736 59.6764 194.415 59.9975C194.147 60.2598 194.147 60.6933 194.361 60.9609C194.522 61.068 194.683 61.175 194.897 61.175C195.057 61.175 195.218 61.1215 195.325 61.0145C195.914 60.4792 196.502 59.944 197.091 59.4088L199.018 57.6425C200.463 56.3526 201.908 55.1269 203.353 53.8958C203.621 53.6282 203.675 53.2 203.46 52.9324ZM456.627 52.7183C453.898 50.3632 451.061 48.1152 448.278 45.9208C447.956 45.7067 447.528 45.7602 447.314 46.0278C447.1 46.349 447.154 46.7771 447.421 46.9859C450.258 49.1322 453.041 51.4337 455.771 53.7352C455.878 53.8423 456.039 53.8958 456.199 53.8958C456.36 53.8958 456.574 53.7887 456.681 53.6282C456.948 53.3606 456.895 52.9324 456.627 52.7183ZM220.267 39.5511C220.053 39.2835 219.625 39.1764 219.357 39.4441C216.52 41.478 213.684 43.726 210.793 45.9739C210.526 46.2416 210.472 46.6162 210.686 46.9374C210.847 47.0979 211.007 47.205 211.221 47.205C211.382 47.205 211.489 47.1515 211.65 47.0444C214.486 44.7429 217.323 42.5484 220.16 40.5145C220.427 40.2951 220.481 39.8723 220.267 39.5511ZM439.553 39.5515C436.609 37.4641 433.612 35.4837 430.561 33.5569C430.294 33.3963 429.865 33.4498 429.651 33.7709C429.437 34.0921 429.544 34.5203 429.865 34.6808C432.863 36.6077 435.86 38.5881 438.804 40.622C438.911 40.729 439.072 40.729 439.179 40.729C439.393 40.729 439.607 40.6755 439.714 40.4614C439.928 40.1403 439.874 39.7656 439.553 39.5515ZM238.144 27.5622C237.93 27.2946 237.502 27.1875 237.234 27.3481C234.183 29.2214 231.132 31.1483 228.135 33.1822C227.814 33.3963 227.76 33.8244 227.974 34.1456C228.081 34.3062 228.295 34.4132 228.51 34.4132C228.67 34.4132 228.777 34.3597 228.884 34.3062C231.882 32.2669 234.879 30.3454 237.93 28.5256C238.251 28.3115 238.304 27.8833 238.144 27.5622ZM421.355 28.0431C418.197 26.2768 414.986 24.5105 411.828 22.8995C411.507 22.7442 411.079 22.8995 410.918 23.226C410.758 23.5471 410.918 23.9218 411.239 24.1305C414.397 25.7416 417.555 27.4008 420.659 29.1671C420.766 29.2741 420.874 29.2741 420.981 29.2741C421.248 29.2741 421.462 29.1671 421.569 28.953C421.783 28.6318 421.676 28.2036 421.355 28.0431ZM257.038 17.3926C256.877 17.018 256.502 16.9109 256.128 17.0715C252.97 18.5702 249.705 20.224 246.547 21.9421C246.226 22.1562 246.119 22.5309 246.279 22.8521C246.386 23.1197 246.654 23.2267 246.868 23.2267C246.975 23.2267 247.082 23.1732 247.189 23.1197C250.347 21.4069 253.559 19.8012 256.716 18.249C257.038 18.0884 257.198 17.7138 257.038 17.3926ZM402.087 18.2485C398.822 16.8034 395.503 15.3582 392.185 14.0201C391.864 13.9131 391.435 14.0737 391.328 14.3948C391.168 14.7641 391.328 15.1441 391.703 15.3047C395.022 16.5893 398.34 18.0344 401.551 19.4796C401.658 19.5331 401.712 19.5331 401.819 19.5331C402.087 19.5331 402.354 19.3725 402.461 19.1584C402.622 18.7784 402.461 18.4091 402.087 18.2485ZM276.146 8.93545C272.774 10.0594 269.348 11.344 266.03 12.6821C265.655 12.8427 265.494 13.2173 265.655 13.5331C265.762 13.8061 266.03 13.9667 266.244 13.9667C266.351 13.9667 266.458 13.9667 266.511 13.9131C269.83 12.5751 273.202 11.2905 276.574 10.1665C276.895 10.0594 277.109 9.68478 276.948 9.36364C276.841 8.98897 276.467 8.8284 276.146 8.93545ZM382.069 10.2746C378.643 9.09705 375.218 8.02658 371.792 7.06315C371.418 6.95611 371.043 7.1702 370.936 7.54487C370.829 7.86601 371.043 8.24067 371.418 8.34772C374.79 9.31115 378.269 10.3816 381.641 11.5591H381.855C382.122 11.5591 382.39 11.3986 382.497 11.1309C382.604 10.7509 382.444 10.3816 382.069 10.2746ZM296.966 3.36934C293.434 4.0598 289.901 4.86801 286.476 5.83143C286.101 5.88495 285.887 6.25962 285.994 6.63429C286.047 6.9019 286.315 7.116 286.636 7.116H286.797C290.222 6.2061 293.755 5.39789 297.234 4.70744C297.555 4.65391 297.823 4.27925 297.769 3.90458C297.662 3.58344 297.341 3.31582 296.966 3.36934ZM361.302 4.43982C357.769 3.69049 354.183 2.99468 350.704 2.45945C350.329 2.40592 349.955 2.67354 349.901 2.99468C349.848 3.36935 350.115 3.74401 350.49 3.79754C353.969 4.33277 357.501 4.97506 361.034 5.72439C361.088 5.77791 361.141 5.77791 361.141 5.77791C361.462 5.77791 361.73 5.56382 361.837 5.24267C361.89 4.86801 361.676 4.54687 361.302 4.43982ZM318.429 0.746125H318.376C314.79 0.960219 311.15 1.28136 307.617 1.70955C307.243 1.76307 306.975 2.08422 307.029 2.45888C307.082 2.78002 307.35 3.04764 307.725 3.04764H307.778C311.311 2.61945 314.897 2.29831 318.483 2.08422C318.804 2.08422 319.125 1.76307 319.072 1.38306C319.072 1.06727 318.75 0.746125 318.429 0.746125ZM339.946 1.17421C336.413 0.853067 332.774 0.638973 329.188 0.585449C328.813 0.585449 328.492 0.853067 328.492 1.22773C328.492 1.6024 328.759 1.92354 329.134 1.92354C332.72 1.97706 336.306 2.19116 339.839 2.5123H339.892C340.267 2.5123 340.535 2.24468 340.588 1.87002C340.588 1.49 340.32 1.17421 339.946 1.17421Z" fill="#D8D5DB"/>
<path fill-rule="evenodd" clip-rule="evenodd" d="M532.364 145.154L525.406 157.25L524.496 158.803L514.429 176.198L512.239 180.051L447.69 291.809L436.985 310.328L426.28 291.809L388.011 225.547L382.123 215.377L369.005 192.63L338.288 139.427H535.683L532.364 145.154ZM333.685 136.75L369.005 197.928L379.067 215.377L384.96 225.546L423.224 291.808L436.985 315.68L450.794 291.808L514.643 181.175L516.891 177.321L534.345 147.134L539.162 138.731L539.59 138.035L540.339 136.75H333.685Z" fill="white"/>
<path fill-rule="evenodd" clip-rule="evenodd" d="M366.974 409.611C367.135 410.2 366.867 411.062 366.278 412.127C364.94 414.642 361.734 418.228 358.362 421.172C357.661 421.766 356.965 422.35 356.269 422.831C354.235 424.491 352.255 425.781 350.703 426.257C345.243 428.077 321.64 424.972 315.913 421.868C315.543 421.654 315.27 421.44 315.003 421.172C312.653 421.333 309.169 421.386 304.94 421.172C303.013 421.071 300.926 420.905 298.678 420.583C293.379 419.995 287.331 418.764 280.801 416.676C277.59 415.718 274.218 414.482 270.792 412.983C267.581 411.538 264.262 409.879 260.944 407.952C260.141 407.524 259.552 406.988 258.856 406.566C259.499 411.49 260.141 416.355 260.837 421.172C261.051 422.51 261.265 423.848 261.425 425.133C262.014 428.933 262.603 432.685 263.245 436.373C265.761 450.878 268.651 464.526 272.13 476.73C272.451 478.014 272.826 479.304 273.201 480.53C272.077 480.69 270.953 480.856 269.882 481.012C270.15 482.243 270.364 483.533 270.578 484.812C273.254 499.263 275.288 517.087 276.787 535.392C213.95 560.28 155.449 566.114 115.092 541.44C102.246 533.625 91.2738 522.707 82.5495 508.309C81.1579 506.007 79.7662 503.706 78.3746 501.404C78.6422 493.857 78.9634 487.488 79.231 483.153C78.2141 483.046 77.6788 483.046 77.6788 483.046C77.6788 474.321 78.0535 462.867 78.6422 449.647C78.6958 449.112 78.6958 448.576 78.6958 447.988C78.9099 444.241 79.124 440.387 79.3916 436.373C79.6057 431.449 79.9268 426.423 80.2479 421.172C80.7297 413.572 81.2649 405.65 81.8537 397.622C68.7939 394.143 57.8751 390.396 51.7198 386.649C43.6913 381.779 40.6405 374.981 40.8545 368.291C40.7475 366.953 40.7475 365.508 41.0686 364.009C44.1195 353.893 54.6101 323.759 66.4924 293.839L53.3256 289.343C53.3256 289.343 91.8091 220.78 114.396 205.686C114.503 205.633 114.557 205.579 114.664 205.525C122.639 198.139 134.146 193.376 151.381 191.449C151.488 177.158 150.364 153.019 149.186 134.553C143.566 133.269 139.766 128.612 137.625 124.758C137.358 124.33 137.09 123.902 136.929 123.527C136.073 121.868 135.591 120.476 135.377 119.781C134.2 115.071 135.324 111.163 137.625 108.648C137.144 104.74 136.448 98.3176 136.18 91.5736C135.645 79.1561 136.341 65.5611 141.961 64.3301C141.907 64.1695 141.8 64.0625 141.747 63.9554C140.301 59.513 142.924 54.5888 143.031 54.4282L145.386 55.6593C145.386 55.7128 143.245 59.7806 144.262 63.0991C148.758 58.1214 163.905 56.5156 179.802 57.4255C180.712 57.4255 181.675 57.5326 182.585 57.5861C185.85 57.8537 189.115 58.1749 192.326 58.6566C193.397 58.7636 194.414 58.9242 195.431 59.1383C195.966 59.1918 196.555 59.2989 197.09 59.4059C200.569 59.9947 203.888 60.744 206.938 61.6004C212.184 63.0455 216.573 64.8653 219.516 66.9528C220.48 67.595 221.229 68.2908 221.872 68.9867C224.548 72.091 224.976 74.2855 223.798 75.7306C223.103 76.5335 221.979 77.1222 220.48 77.5504C221.122 82.0464 221.39 85.9536 221.497 89.5397C221.818 90.3961 222.139 91.306 222.46 92.2159C222.728 93.0188 222.995 93.8751 223.263 94.7315C223.317 94.785 223.37 94.785 223.424 94.8386C223.745 95.1062 224.066 95.3203 224.387 95.5879C225.565 96.6584 226.635 97.9965 227.438 99.7627L225.029 100.887C224.976 100.78 224.922 100.726 224.869 100.619C225.511 103.349 226.1 106.186 226.528 109.183C227.17 113.625 227.866 118.068 228.562 122.403C228.776 124.062 228.99 125.722 229.204 127.327C229.686 130.646 230.114 133.911 230.382 137.015C230.489 137.979 230.596 138.889 230.596 139.798C231.72 153.929 230.382 165.65 221.925 171.538C220.319 172.715 218.392 173.679 216.198 174.321C213.415 175.231 210.096 175.713 206.243 175.766C206.35 179.513 206.564 183.153 206.885 186.578C207.045 187.916 207.206 189.254 207.42 190.485C207.581 191.77 207.795 193.054 208.062 194.232C222.353 197.658 233.111 203.438 239.909 211.306C240.23 211.627 240.605 211.948 240.926 212.323C244.726 216.016 248.419 221.695 251.898 228.487C256.287 236.997 260.409 247.333 264.048 257.658C264.316 258.46 264.583 259.317 264.905 260.12C265.172 261.029 265.493 261.886 265.761 262.796C267.26 267.238 268.651 271.681 269.936 275.914C270.899 279.067 271.756 282.123 272.612 285.008C276.733 299.518 279.142 310.223 279.142 310.223L272.612 311.77L269.936 312.412L268.009 312.899C268.651 315.463 269.293 317.979 269.936 320.548C269.989 320.815 270.096 321.137 270.15 321.409C271.006 324.728 271.809 328.1 272.612 331.36C276.733 348.112 280.212 363.634 281.764 373.911C286.367 377.711 289.739 383.652 294.717 389.17C299.748 394.732 306.546 399.763 318.053 401.743C318.107 401.743 318.107 401.797 318.161 401.797C322.662 398.264 331.006 394.095 336.091 392.542C336.787 392.376 337.381 392.216 337.911 392.109C338.339 392.002 338.719 391.948 339.035 391.948C341.181 391.52 341.497 391.681 342.781 392.484C343.263 392.858 343.905 393.34 344.922 393.929C349.097 396.391 353.486 398.692 357.286 400.94C361.996 403.675 365.69 406.293 366.76 409.076C366.867 409.242 366.921 409.451 366.974 409.611Z" fill="#D1CDD3"/>
<path fill-rule="evenodd" clip-rule="evenodd" d="M382.874 393.904C379.058 391.619 380.171 391.33 375.857 392.122C371.201 392.984 361.181 397.79 356.113 401.794C356.059 401.788 356.022 401.762 355.968 401.751C333.017 397.817 328.981 381.583 319.7 373.897C314.557 340.199 288.641 248.491 288.641 248.491L249.59 263.012C255.279 301.651 278.177 375.139 284.118 391.72C285.092 393.728 286.35 395.323 287.758 396.618C289.706 400.734 293.206 404.705 298.864 407.976C322.275 421.512 344.434 421.699 352.912 421.159C353.185 421.431 353.495 421.667 353.849 421.865C359.592 425.002 383.153 428.074 388.655 426.27C394.248 424.434 405.702 412.841 404.878 409.63C403.54 404.384 392.439 399.631 382.874 393.904Z" fill="#FFAD69"/>
<path fill-rule="evenodd" clip-rule="evenodd" d="M253.6 223.721C242.574 248.503 246.626 327.027 246.626 327.027L317.09 310.232C317.09 310.232 282.674 158.348 253.6 223.721Z" fill="#377ADB"/>
<path fill-rule="evenodd" clip-rule="evenodd" d="M313.236 519.121C301.038 525.228 288.829 530.682 276.786 535.392C213.95 560.28 155.454 566.114 115.091 541.44C115.68 518.264 116.483 494.125 117.125 483.153C117.232 481.868 117.339 480.744 117.393 479.834L139.016 479.406H139.98L140.033 479.353L257.036 477.056H257.148L264.636 476.891L272.13 476.73L306.706 476.034C307.086 477.64 307.455 479.353 307.776 481.071C310.024 491.99 311.791 505.098 313.236 519.121Z" fill="#232323"/>
<path fill-rule="evenodd" clip-rule="evenodd" d="M201.838 190.518C159.8 191.904 145.59 206.093 138.343 230.634C130.111 258.498 115.616 426.798 115.616 483.035C115.616 483.035 241.424 491.952 311.117 480.525C289.263 406.711 286.903 273.993 286.464 234.45C286.137 204.787 255.126 188.757 201.838 190.518Z" fill="#4D8DFF"/>
<mask id="mask1_37_782" style="mask-type:luminance" maskUnits="userSpaceOnUse" x="0" y="0" width="571" height="558">
<path fill-rule="evenodd" clip-rule="evenodd" d="M0 557.269H570.15V0.585449H0V557.269Z" fill="white"/>
</mask>
<g mask="url(#mask1_37_782)">
<path fill-rule="evenodd" clip-rule="evenodd" d="M208.705 337.035H269.936V262.798H208.705V337.035ZM206.029 339.71H272.612V260.121H206.029V339.71Z" fill="white"/>
<path fill-rule="evenodd" clip-rule="evenodd" d="M238.87 121.697C243.007 118.577 264.61 121.408 258.39 77.4276C256.121 61.3812 241.054 72.0913 230.387 74.2322C219.714 76.3732 226.501 122.489 226.501 122.489L238.87 121.697Z" fill="#232323"/>
<path fill-rule="evenodd" clip-rule="evenodd" d="M185.085 111.162C186.878 122.82 190.464 185.886 188.971 200.536C187.478 215.185 258.322 219.365 249.051 203.228C239.786 187.085 246.365 133.578 246.365 133.578L185.085 111.162Z" fill="#FFAD69"/>
<path fill-rule="evenodd" clip-rule="evenodd" d="M189.988 112.945L246.354 133.584C246.354 133.584 242.548 164.745 244.844 186.69C201.865 183.366 190.834 129.082 190.111 118.629C189.988 116.659 189.929 114.759 189.988 112.945Z" fill="#D88344"/>
<path fill-rule="evenodd" clip-rule="evenodd" d="M264.451 109.177C269.675 145.182 278.543 181.086 234.9 175.172C191.252 169.263 184.476 113.304 184.599 102.754C185.278 46.4311 254.179 38.3758 264.451 109.177Z" fill="#FFAD69"/>
<path fill-rule="evenodd" clip-rule="evenodd" d="M259.796 68.9739C249.525 57.0435 191.778 52.5422 182.219 63.1077C181.17 59.7893 183.311 55.7108 183.332 55.6733L180.977 54.4048C180.865 54.6082 178.258 59.527 179.677 63.9481C179.725 64.0872 179.843 64.1836 179.891 64.3227C169.325 66.651 176.069 112.553 176.069 112.553L188.439 111.761C192.576 108.646 206.936 86.7117 210.1 73.4753C232.713 77.3022 272.851 84.1372 259.796 68.9739Z" fill="#232323"/>
<path fill-rule="evenodd" clip-rule="evenodd" d="M253.654 395.175C249.233 395.421 232.079 398.403 226.058 397.006C205.82 392.279 153.667 368.884 125.594 355.808C142.866 318.315 168.29 251.957 168.29 251.957L128.313 240.224C109.761 274.592 84.1397 347.175 78.98 364.019C78.691 365.528 78.6696 366.947 78.7605 368.306C78.5786 374.97 81.6294 381.773 89.6419 386.654C111.865 400.19 195.699 413.325 218.918 415.889C219.346 416.756 219.913 417.543 220.834 418.062C226.513 421.252 252.354 423.639 257.669 424.581C264.332 425.758 284.559 427.471 283.687 424.763C282.257 420.326 274.759 393.992 253.654 395.175Z" fill="#FFAD69"/>
<path fill-rule="evenodd" clip-rule="evenodd" d="M152.307 205.707C129.758 220.78 91.2637 289.338 91.2637 289.338L159.811 312.755C159.811 312.755 211.794 165.95 152.307 205.707Z" fill="#4D8DFF"/>
<path fill-rule="evenodd" clip-rule="evenodd" d="M227.7 107.397C227.561 109.153 228.509 110.657 229.82 110.764C231.137 110.866 232.314 109.533 232.459 107.777C232.603 106.027 231.65 104.518 230.334 104.411C229.022 104.309 227.84 105.642 227.7 107.397Z" fill="#232323"/>
<path fill-rule="evenodd" clip-rule="evenodd" d="M255.502 108.133C255.363 109.889 256.31 111.393 257.622 111.5C258.938 111.602 260.116 110.269 260.26 108.513C260.399 106.763 259.447 105.254 258.135 105.147C256.824 105.045 255.641 106.378 255.502 108.133Z" fill="#232323"/>
<path fill-rule="evenodd" clip-rule="evenodd" d="M220.861 97.5441L218.618 96.0829C223.35 88.8358 231.293 90.5165 231.635 90.5914L231.052 93.2033C230.795 93.1498 224.56 91.876 220.861 97.5441Z" fill="#232323"/>
<path fill-rule="evenodd" clip-rule="evenodd" d="M262.948 100.881C260.116 94.7208 253.758 95.058 253.506 95.0848L253.319 92.414C253.661 92.3926 261.765 91.8948 265.378 99.7628L262.948 100.881Z" fill="#232323"/>
<path fill-rule="evenodd" clip-rule="evenodd" d="M236.633 140.546C232.11 140.546 223.412 139.261 218.012 130.28L220.303 128.899C226.849 139.786 238.592 137.8 239.09 137.709L239.577 140.337C239.534 140.348 238.404 140.546 236.633 140.546Z" fill="#232323"/>
<path fill-rule="evenodd" clip-rule="evenodd" d="M257.212 128.351L244.216 128.175L244.254 125.499L253.626 125.627L247.84 105.893L250.403 105.138L257.212 128.351Z" fill="#D88344"/>
<path fill-rule="evenodd" clip-rule="evenodd" d="M195.67 115.744C199.609 124.629 204.549 133.224 192.169 134.819C179.789 136.42 174.03 122.52 173.329 119.795C169.582 105.264 187.914 98.2736 195.67 115.744Z" fill="#FFAD69"/>
<path fill-rule="evenodd" clip-rule="evenodd" d="M530.838 436.357H18.6808C14.5006 436.357 11.0804 432.937 11.0804 428.757C11.0804 424.577 14.5006 421.157 18.6808 421.157H530.838C535.018 421.157 538.438 424.577 538.438 428.757C538.438 432.937 535.018 436.357 530.838 436.357Z" fill="white"/>
<path fill-rule="evenodd" clip-rule="evenodd" d="M208.219 436.357H14.8811C10.7009 436.357 7.28076 432.937 7.28076 428.757C7.28076 424.577 10.7009 421.157 14.8811 421.157H208.219C212.399 421.157 215.82 424.577 215.82 428.757C215.82 432.937 212.399 436.357 208.219 436.357Z" fill="#D8D5DB"/>
<path fill-rule="evenodd" clip-rule="evenodd" d="M505.759 409.089H346.89C340.826 409.089 336.801 404.164 337.904 398.095L355.229 302.817C356.337 296.743 362.15 291.824 368.225 291.824H527.088C533.158 291.824 537.183 296.743 536.08 302.817L518.755 398.095C517.647 404.164 511.834 409.089 505.759 409.089Z" fill="#2B2B2B"/>
<path fill-rule="evenodd" clip-rule="evenodd" d="M509.643 409.089H350.774C344.71 409.089 340.685 404.164 341.787 398.095L359.113 302.817C360.216 296.743 366.034 291.824 372.103 291.824H530.967C537.042 291.824 541.067 296.743 539.964 302.817L522.633 398.095C521.531 404.164 515.713 409.089 509.643 409.089Z" fill="#232323"/>
<path fill-rule="evenodd" clip-rule="evenodd" d="M456.626 369.735H418.148L425.154 331.204H463.643L456.626 369.735ZM422.906 328.527L414.931 372.411H458.821L466.849 328.527H422.906Z" fill="white"/>
<path fill-rule="evenodd" clip-rule="evenodd" d="M319.028 412.136C319.028 417.098 323.09 421.16 328.057 421.16H494.243C499.21 421.16 503.272 417.098 503.272 412.136H319.028Z" fill="#232323"/>
<path fill-rule="evenodd" clip-rule="evenodd" d="M270.747 412.136C270.747 417.098 274.804 421.16 279.771 421.16H345.123C350.09 421.16 354.153 417.098 354.153 412.136H270.747Z" fill="#2B2B2B"/>
<path fill-rule="evenodd" clip-rule="evenodd" d="M453.291 116.438C447.666 116.438 443.106 121.004 443.106 126.629H463.482C463.482 121.004 458.922 116.438 453.291 116.438Z" fill="#377ADB"/>
<path fill-rule="evenodd" clip-rule="evenodd" d="M453.302 116.441V215.385C453.302 221.021 448.731 225.544 443.095 225.544H369.013V126.654C369.013 121.012 373.578 116.441 379.177 116.441H453.302Z" fill="#4D8DFF"/>
<path fill-rule="evenodd" clip-rule="evenodd" d="M432.932 215.385L358.813 215.374C358.813 220.999 363.378 225.56 369.009 225.56L443.091 225.544C437.46 225.544 432.932 221.021 432.932 215.385Z" fill="#6EA9FF"/>
<path fill-rule="evenodd" clip-rule="evenodd" d="M380.093 133.056H442.234V130.38H380.093V133.056Z" fill="white"/>
<path fill-rule="evenodd" clip-rule="evenodd" d="M380.093 143.193H442.234V140.517H380.093V143.193Z" fill="white"/>
<path fill-rule="evenodd" clip-rule="evenodd" d="M380.093 153.331H442.234V150.654H380.093V153.331Z" fill="white"/>
<path fill-rule="evenodd" clip-rule="evenodd" d="M380.093 163.468H442.234V160.792H380.093V163.468Z" fill="white"/>
<path fill-rule="evenodd" clip-rule="evenodd" d="M380.093 173.606H442.234V170.929H380.093V173.606Z" fill="white"/>
<path fill-rule="evenodd" clip-rule="evenodd" d="M380.093 183.743H442.234V181.067H380.093V183.743Z" fill="white"/>
<path fill-rule="evenodd" clip-rule="evenodd" d="M380.093 193.88H442.234V191.204H380.093V193.88Z" fill="white"/>
<path fill-rule="evenodd" clip-rule="evenodd" d="M380.093 204.018H442.234V201.342H380.093V204.018Z" fill="white"/>
<path fill-rule="evenodd" clip-rule="evenodd" d="M556.842 169.604C542.658 183.788 519.654 183.788 505.464 169.604C491.281 155.415 491.281 132.416 505.464 118.227C519.654 104.038 542.658 104.038 556.842 118.227C571.026 132.416 571.026 155.415 556.842 169.604Z" fill="#FFC84D"/>
<path fill-rule="evenodd" clip-rule="evenodd" d="M531.157 143.917L560.022 172.782C544.19 188.619 518.118 188.619 502.286 172.782C495.505 165.995 491.325 157.035 490.484 147.476L531.157 143.917Z" fill="#232323"/>
<path fill-rule="evenodd" clip-rule="evenodd" d="M531.157 143.917L490.607 148.643C490.072 144.067 490.318 139.432 491.335 134.93C492.347 130.434 494.113 126.142 496.564 122.234L531.157 143.917Z" fill="white"/>
<path fill-rule="evenodd" clip-rule="evenodd" d="M353.332 91.3608H322.556C318.584 91.3608 315.33 88.1119 315.33 84.1351V53.3644C315.33 49.3929 318.584 46.1387 322.556 46.1387H353.332C357.303 46.1387 360.558 49.3929 360.558 53.3644V84.1351C360.558 88.1119 357.303 91.3608 353.332 91.3608Z" fill="#232323"/>
<path fill-rule="evenodd" clip-rule="evenodd" d="M344.336 100.355H313.56C309.589 100.355 306.335 97.1061 306.335 93.1292V62.3585C306.335 58.387 309.589 55.1328 313.56 55.1328H344.336C348.308 55.1328 351.562 58.387 351.562 62.3585V93.1292C351.562 97.1061 348.308 100.355 344.336 100.355Z" fill="#FF4E4A"/>
</g>
</svg>
