<svg width="563" height="620" viewBox="0 0 563 620" fill="none" xmlns="http://www.w3.org/2000/svg">
<mask id="mask0_37_627" style="mask-type:luminance" maskUnits="userSpaceOnUse" x="0" y="67" width="563" height="553">
<path fill-rule="evenodd" clip-rule="evenodd" d="M0.962723 67.3652H563V619.914H0.962723V67.3652Z" fill="white"/>
</mask>
<g mask="url(#mask0_37_627)">
<path fill-rule="evenodd" clip-rule="evenodd" d="M494.518 594.904C479.974 603.662 463.052 609.988 444.4 614.097C432.019 616.8 418.827 618.584 405.095 619.341C354.599 622.423 296.533 612.961 240.577 594.039C228.034 589.822 215.599 585.118 203.38 579.928C112.39 541.65 33.2931 479.152 11.1267 406.705C-29.3677 274.463 57.5681 179.364 158.236 92.1037C199.055 56.6914 252.254 61.7735 307.292 91.6712C320.16 98.6455 333.081 106.971 346.002 116.433C394.498 152.061 442.508 203.909 483.056 261.542C562.639 374.699 608.702 526.296 494.518 594.904Z" fill="#E3E0F3"/>
</g>
<path fill-rule="evenodd" clip-rule="evenodd" d="M452.095 168.61C442.704 149.676 439.265 125.715 458.096 118C479.127 109.387 512.636 123.314 522.39 154.915C528.623 175.108 526.482 203.297 509.257 214.132C494.519 223.409 463.616 191.83 452.095 168.61" fill="#E8E5EA"/>
<path fill-rule="evenodd" clip-rule="evenodd" d="M153.948 72.2757C153.932 72.2757 153.915 72.2757 153.899 72.2757C150.282 72.027 146.655 71.8918 143.13 71.8702C142.751 71.8702 142.454 71.5674 142.454 71.1944C142.459 70.8213 142.757 70.5186 143.13 70.5186H143.135C146.692 70.5402 150.347 70.6753 153.997 70.924C154.37 70.9511 154.645 71.2755 154.624 71.6485C154.597 72.0053 154.299 72.2757 153.948 72.2757ZM121.542 73.3132C121.212 73.3132 120.92 73.07 120.871 72.7348C120.817 72.3671 121.071 72.0211 121.444 71.967C124.937 71.4588 128.581 71.0804 132.263 70.8371C132.684 70.7668 132.96 71.0966 132.982 71.4696C133.009 71.8373 132.728 72.1617 132.354 72.1833C128.705 72.4266 125.099 72.805 121.639 73.3024C121.606 73.3078 121.574 73.3132 121.542 73.3132ZM175.433 74.9511C175.39 74.9511 175.352 74.9457 175.314 74.9403C171.762 74.3024 168.172 73.7617 164.642 73.3184C164.269 73.2697 164.004 72.9345 164.053 72.5615C164.101 72.1938 164.409 71.9451 164.809 71.9776C168.367 72.4209 171.978 72.9724 175.552 73.6103C175.914 73.6752 176.163 74.0266 176.098 74.3943C176.039 74.7187 175.752 74.9511 175.433 74.9511ZM100.467 78.1952C100.181 78.1952 99.9158 78.0114 99.8239 77.7195C99.7103 77.3626 99.9104 76.9842 100.267 76.876C103.689 75.7948 107.214 74.8324 110.75 74.0052C111.107 73.9187 111.48 74.1458 111.561 74.508C111.648 74.8703 111.421 75.2325 111.058 75.319C107.555 76.1408 104.057 77.0977 100.673 78.1628C100.602 78.1844 100.538 78.1952 100.467 78.1952ZM196.562 79.6876C196.502 79.6876 196.443 79.6822 196.383 79.666C192.869 78.7145 189.344 77.844 185.9 77.0709C185.532 76.9898 185.305 76.6276 185.386 76.2599C185.467 75.8977 185.808 75.6652 186.192 75.7517C189.658 76.5302 193.204 77.4061 196.74 78.3576C197.097 78.4603 197.313 78.828 197.21 79.1902C197.129 79.4876 196.859 79.6876 196.562 79.6876ZM217.252 86.1218C217.176 86.1218 217.101 86.111 217.025 86.084C213.641 84.8891 210.186 83.7484 206.769 82.6833C206.412 82.5698 206.212 82.1913 206.326 81.8399C206.434 81.4831 206.818 81.2776 207.169 81.3966C210.602 82.4617 214.073 83.6132 217.474 84.8081C217.825 84.9324 218.014 85.3217 217.89 85.6731C217.793 85.9488 217.533 86.1218 217.252 86.1218ZM80.4471 86.3317C80.2038 86.3317 79.966 86.1966 79.847 85.9587C79.6794 85.6289 79.8092 85.2234 80.1444 85.0504C83.3288 83.4285 86.6591 81.9093 90.0382 80.5414C90.3734 80.39 90.7735 80.5685 90.914 80.9145C91.0546 81.2605 90.887 81.6552 90.541 81.7957C87.1998 83.1473 83.9073 84.6503 80.7553 86.256C80.658 86.3047 80.5499 86.3317 80.4471 86.3317ZM237.451 93.9558C237.364 93.9558 237.278 93.9396 237.186 93.9017C233.877 92.496 230.509 91.1228 227.167 89.8307C226.821 89.6955 226.648 89.3008 226.784 88.9548C226.924 88.6088 227.313 88.4466 227.659 88.571C231.011 89.8685 234.396 91.2471 237.715 92.6582C238.061 92.8042 238.218 93.1989 238.078 93.5449C237.964 93.799 237.715 93.9558 237.451 93.9558ZM62.1733 97.854C61.9679 97.854 61.7732 97.7675 61.6381 97.5945C61.411 97.2971 61.4651 96.87 61.7624 96.643C64.6008 94.4588 67.6014 92.361 70.6777 90.4201C70.9967 90.2255 71.4129 90.3174 71.613 90.631C71.813 90.95 71.7157 91.3663 71.4021 91.5609C68.3583 93.4856 65.3956 95.5563 62.5842 97.7188C62.4653 97.8108 62.3193 97.854 62.1733 97.854ZM257.141 102.995C257.044 102.995 256.941 102.974 256.843 102.925C253.589 101.319 250.307 99.7568 247.079 98.2754C246.744 98.1186 246.593 97.7131 246.75 97.3779C246.906 97.0373 247.306 96.8859 247.647 97.0427C250.88 98.5295 254.178 100.103 257.444 101.709C257.779 101.876 257.914 102.282 257.752 102.617C257.633 102.855 257.39 102.995 257.141 102.995ZM46.3811 112.597C46.2189 112.597 46.0621 112.543 45.9323 112.424C45.6512 112.181 45.6296 111.754 45.8783 111.472C48.2733 108.775 50.8252 106.152 53.4689 103.687C53.7392 103.428 54.1664 103.444 54.4205 103.714C54.68 103.99 54.6637 104.417 54.388 104.671C51.7821 107.115 49.2573 109.705 46.8839 112.37C46.7541 112.521 46.5703 112.597 46.3811 112.597ZM276.317 113.083C276.204 113.083 276.096 113.056 275.988 112.997C272.847 111.24 269.646 109.504 266.483 107.839C266.153 107.666 266.024 107.255 266.197 106.925C266.375 106.596 266.786 106.466 267.11 106.639C270.289 108.315 273.495 110.056 276.647 111.818C276.972 112.002 277.091 112.413 276.907 112.737C276.782 112.959 276.555 113.083 276.317 113.083ZM294.97 124.123C294.851 124.123 294.727 124.091 294.613 124.02C291.531 122.096 288.423 120.209 285.373 118.403C285.049 118.214 284.941 117.798 285.135 117.479C285.319 117.149 285.736 117.046 286.06 117.241C289.115 119.046 292.24 120.944 295.332 122.874C295.646 123.074 295.743 123.491 295.543 123.81C295.419 124.01 295.197 124.123 294.97 124.123ZM33.5299 129.984C33.4056 129.984 33.2866 129.951 33.1731 129.881C32.8595 129.686 32.7568 129.27 32.9514 128.951C34.8545 125.853 36.9035 122.815 39.0283 119.928C39.2554 119.63 39.6771 119.571 39.9744 119.787C40.2772 120.009 40.3366 120.431 40.115 120.728C38.0119 123.588 35.9899 126.589 34.103 129.659C33.9787 129.87 33.757 129.984 33.5299 129.984ZM313.081 136.028C312.946 136.028 312.811 135.985 312.698 135.909C309.702 133.839 306.68 131.806 303.723 129.86C303.409 129.654 303.323 129.238 303.528 128.924C303.734 128.622 304.15 128.53 304.464 128.73C307.432 130.681 310.459 132.72 313.46 134.79C313.773 135.007 313.849 135.428 313.638 135.731C313.503 135.92 313.292 136.028 313.081 136.028ZM330.604 148.706C330.463 148.706 330.323 148.663 330.198 148.571C327.3 146.382 324.381 144.214 321.515 142.138C321.213 141.916 321.148 141.494 321.364 141.197C321.586 140.889 322.007 140.824 322.31 141.045C325.181 143.122 328.111 145.295 331.015 147.495C331.312 147.717 331.366 148.144 331.144 148.442C331.009 148.615 330.809 148.706 330.604 148.706ZM23.6848 149.241C23.5983 149.241 23.5118 149.225 23.4253 149.193C23.0792 149.047 22.9171 148.647 23.063 148.306C24.4795 144.932 26.0204 141.613 27.6369 138.445C27.8045 138.11 28.21 137.974 28.5452 138.147C28.8804 138.315 29.0101 138.726 28.8425 139.056C27.2368 142.202 25.7122 145.489 24.3065 148.831C24.1984 149.09 23.9497 149.241 23.6848 149.241ZM347.585 162.18C347.434 162.18 347.283 162.131 347.153 162.028C344.428 159.763 341.6 157.465 338.746 155.2C338.454 154.967 338.405 154.546 338.638 154.254C338.876 153.962 339.297 153.919 339.584 154.14C342.449 156.411 345.288 158.714 348.018 160.985C348.304 161.223 348.348 161.65 348.11 161.936C347.975 162.098 347.78 162.18 347.585 162.18ZM16.6185 169.695C16.5537 169.695 16.4942 169.689 16.4347 169.673C16.0779 169.57 15.8616 169.197 15.9644 168.835C16.9483 165.316 18.0296 161.823 19.1866 158.46C19.311 158.109 19.7002 157.909 20.0462 158.039C20.3977 158.163 20.5869 158.547 20.4679 158.898C19.3164 162.239 18.2405 165.705 17.2673 169.203C17.1862 169.5 16.9105 169.695 16.6185 169.695ZM363.989 176.43C363.821 176.43 363.664 176.371 363.534 176.252C360.869 173.83 358.139 171.402 355.419 169.04C355.138 168.802 355.111 168.369 355.354 168.088C355.598 167.802 356.025 167.786 356.306 168.023C359.036 170.391 361.767 172.824 364.443 175.252C364.718 175.506 364.74 175.933 364.486 176.209C364.351 176.355 364.172 176.43 363.989 176.43ZM11.9582 190.839C11.9203 190.839 11.8825 190.834 11.8446 190.828C11.477 190.769 11.2283 190.417 11.2932 190.05C11.8933 186.455 12.5853 182.87 13.3476 179.388C13.4287 179.026 13.7856 178.799 14.1532 178.869C14.5154 178.95 14.7479 179.313 14.6668 179.675C13.9099 183.135 13.2233 186.703 12.6232 190.271C12.5691 190.601 12.2826 190.839 11.9582 190.839ZM379.683 191.374C379.51 191.374 379.337 191.309 379.208 191.174C376.65 188.628 374.039 186.087 371.455 183.627C371.185 183.367 371.174 182.94 371.433 182.67C371.687 182.405 372.12 182.389 372.385 182.648C374.98 185.119 377.597 187.665 380.159 190.217C380.424 190.482 380.424 190.909 380.159 191.174C380.03 191.309 379.857 191.374 379.683 191.374ZM394.649 207.042C394.465 207.042 394.286 206.966 394.151 206.821C391.724 204.155 389.242 201.49 386.771 198.905C386.517 198.641 386.528 198.208 386.793 197.954C387.069 197.7 387.49 197.7 387.75 197.976C390.231 200.565 392.718 203.236 395.151 205.912C395.405 206.188 395.384 206.615 395.103 206.864C394.978 206.983 394.816 207.042 394.649 207.042ZM9.34686 212.329C9.33064 212.329 9.31442 212.329 9.2928 212.329C8.91975 212.297 8.64402 211.972 8.67106 211.605C8.9576 207.961 9.31983 204.322 9.74694 200.797C9.79019 200.43 10.093 200.181 10.4984 200.208C10.8715 200.251 11.131 200.586 11.0877 200.959C10.666 204.468 10.3038 208.085 10.0173 211.708C9.99564 212.059 9.69828 212.329 9.34686 212.329ZM408.813 223.44C408.619 223.44 408.424 223.353 408.289 223.191C406.04 220.445 403.699 217.66 401.326 214.914C401.082 214.633 401.115 214.205 401.401 213.962C401.682 213.713 402.109 213.751 402.353 214.032C404.732 216.784 407.083 219.579 409.338 222.337C409.576 222.623 409.533 223.05 409.241 223.288C409.116 223.391 408.965 223.44 408.813 223.44ZM8.47102 233.971C8.09797 233.966 7.79521 233.663 7.79521 233.29C7.81143 229.662 7.89253 226.013 8.0331 222.439C8.04932 222.072 8.33586 221.764 8.73593 221.791C9.10898 221.807 9.40093 222.12 9.38471 222.493C9.24414 226.051 9.16304 229.684 9.14683 233.296C9.14683 233.669 8.84406 233.971 8.47102 233.971ZM422.065 240.584C421.854 240.584 421.648 240.492 421.519 240.308C419.394 237.394 417.21 234.48 415.025 231.658C414.798 231.361 414.852 230.939 415.15 230.706C415.442 230.479 415.864 230.528 416.096 230.831C418.291 233.664 420.481 236.589 422.611 239.514C422.827 239.816 422.762 240.238 422.465 240.454C422.34 240.546 422.2 240.584 422.065 240.584ZM9.08195 255.63C8.72512 255.63 8.42776 255.349 8.40614 254.992C8.18988 251.327 8.02769 247.672 7.93037 244.147C7.91956 243.774 8.21151 243.46 8.58455 243.449H8.60618C8.96841 243.449 9.27117 243.741 9.28198 244.109C9.3793 247.623 9.54149 251.256 9.75775 254.911C9.77938 255.284 9.49284 255.603 9.11979 255.63H9.08195ZM434.256 258.49C434.035 258.49 433.813 258.382 433.683 258.176C431.78 255.176 429.78 252.137 427.741 249.148C427.536 248.839 427.612 248.418 427.92 248.207C428.223 247.996 428.65 248.077 428.861 248.385C430.904 251.386 432.915 254.441 434.824 257.452C435.024 257.771 434.932 258.187 434.618 258.387C434.505 258.458 434.381 258.49 434.256 258.49ZM445.199 277.186C444.961 277.186 444.729 277.056 444.604 276.829C442.917 273.693 441.139 270.525 439.311 267.405C439.127 267.086 439.236 266.675 439.555 266.481C439.868 266.286 440.29 266.4 440.479 266.724C442.312 269.854 444.101 273.039 445.794 276.191C445.972 276.515 445.848 276.932 445.518 277.105C445.421 277.159 445.307 277.186 445.199 277.186ZM10.9904 277.213C10.6498 277.213 10.3579 276.959 10.32 276.613C9.89291 272.975 9.52527 269.336 9.2117 265.822C9.17926 265.449 9.45499 265.119 9.82263 265.087C10.2606 265.049 10.5255 265.33 10.5579 265.697C10.8661 269.206 11.2391 272.829 11.6608 276.462C11.7041 276.829 11.4392 277.165 11.0661 277.208C11.0391 277.213 11.0175 277.213 10.9904 277.213ZM454.655 296.665C454.395 296.665 454.147 296.514 454.033 296.26C452.606 292.967 451.087 289.664 449.524 286.447C449.362 286.112 449.502 285.706 449.838 285.544C450.167 285.377 450.573 285.517 450.741 285.852C452.314 289.096 453.838 292.411 455.277 295.719C455.423 296.065 455.266 296.46 454.925 296.611C454.839 296.644 454.747 296.665 454.655 296.665ZM14.0343 298.665C13.7099 298.665 13.4233 298.427 13.3693 298.098C12.7583 294.481 12.2015 290.875 11.7095 287.377C11.6554 287.009 11.9149 286.663 12.2826 286.614C12.6286 286.555 12.9908 286.814 13.0449 287.187C13.5369 290.675 14.0937 294.27 14.6992 297.876C14.7641 298.244 14.5154 298.59 14.1478 298.655C14.1099 298.66 14.0721 298.665 14.0343 298.665ZM462.289 316.918C462.002 316.918 461.737 316.739 461.645 316.453C460.57 313.09 459.375 309.668 458.088 306.267C457.958 305.916 458.131 305.526 458.483 305.397C458.829 305.245 459.218 305.434 459.353 305.786C460.651 309.208 461.851 312.658 462.932 316.037C463.046 316.393 462.851 316.777 462.494 316.891C462.424 316.912 462.354 316.918 462.289 316.918ZM18.1161 319.94C17.8026 319.94 17.5268 319.723 17.4565 319.404C16.6996 315.901 15.9698 312.322 15.294 308.775C15.2183 308.408 15.4616 308.056 15.8292 307.986C16.186 307.889 16.5483 308.154 16.6185 308.521C17.2943 312.057 18.0188 315.625 18.7757 319.123C18.8568 319.485 18.6243 319.848 18.2567 319.923C18.2134 319.934 18.1648 319.94 18.1161 319.94ZM467.695 337.867C467.382 337.867 467.095 337.64 467.036 337.315C466.365 333.872 465.565 330.336 464.651 326.805C464.559 326.443 464.776 326.075 465.138 325.984C465.489 325.892 465.862 326.108 465.96 326.47C466.879 330.022 467.69 333.585 468.36 337.061C468.43 337.424 468.193 337.78 467.825 337.851C467.782 337.862 467.738 337.867 467.695 337.867ZM23.1495 341.009C22.8468 341.009 22.5765 340.803 22.4954 340.5C21.5817 337.008 20.7004 333.499 19.8624 329.985C19.7759 329.617 19.9976 329.255 20.3598 329.168C20.7166 329.082 21.0897 329.304 21.1762 329.666C22.0196 333.175 22.89 336.673 23.8037 340.16C23.8956 340.522 23.6848 340.89 23.3225 340.987C23.2631 340.998 23.2036 341.009 23.1495 341.009ZM470.371 359.32C470.015 359.32 469.717 359.039 469.696 358.677C469.512 355.146 469.193 351.535 468.739 347.95C468.69 347.583 468.955 347.242 469.322 347.199C469.728 347.166 470.031 347.415 470.079 347.783C470.534 351.4 470.863 355.043 471.047 358.606C471.069 358.979 470.782 359.298 470.409 359.32H470.371ZM29.2318 362.348C28.9453 362.348 28.6803 362.164 28.5884 361.872L28.4262 361.348C27.372 357.915 26.3339 354.417 25.3554 350.957C25.2526 350.6 25.4581 350.227 25.8203 350.124C26.1934 350.027 26.5556 350.232 26.6529 350.589C27.6369 354.038 28.6695 357.531 29.7238 360.959L29.8752 361.472C29.9887 361.829 29.7887 362.202 29.4318 362.316C29.367 362.337 29.2967 362.348 29.2318 362.348ZM470.02 380.947C470.004 380.947 469.993 380.947 469.977 380.947C469.604 380.92 469.323 380.595 469.35 380.222C469.598 376.687 469.771 373.064 469.852 369.453C469.858 369.08 470.123 368.809 470.544 368.793C470.912 368.798 471.209 369.107 471.204 369.485C471.123 373.118 470.95 376.762 470.696 380.32C470.674 380.676 470.371 380.947 470.02 380.947ZM35.9304 382.935C35.6547 382.935 35.3898 382.762 35.2924 382.481C34.1246 379.07 32.9785 375.642 31.8593 372.204C31.7458 371.852 31.9404 371.468 32.2973 371.355C32.6541 371.241 33.0325 371.436 33.1461 371.787C34.2652 375.215 35.406 378.637 36.5738 382.043C36.6927 382.395 36.5035 382.779 36.1521 382.903C36.0764 382.925 36.0061 382.935 35.9304 382.935ZM467.365 402.409C467.328 402.409 467.29 402.404 467.246 402.398C466.879 402.328 466.636 401.977 466.7 401.614C467.322 398.133 467.863 394.548 468.312 390.953C468.355 390.58 468.712 390.315 469.063 390.364C469.436 390.412 469.696 390.747 469.652 391.12C469.204 394.743 468.658 398.349 468.03 401.847C467.971 402.177 467.69 402.409 467.365 402.409ZM43.2561 403.286C42.9858 403.286 42.7263 403.118 42.629 402.848C41.3531 399.48 40.1042 396.095 38.8769 392.7C38.7472 392.349 38.931 391.959 39.2824 391.829C39.6392 391.711 40.0177 391.889 40.1474 392.24C41.3693 395.63 42.6182 399.009 43.8887 402.367C44.0184 402.718 43.8454 403.107 43.4994 403.237C43.4183 403.27 43.3372 403.286 43.2561 403.286ZM51.2577 423.42C50.9928 423.42 50.7441 423.263 50.6359 423.004C49.2465 419.679 47.8895 416.332 46.5487 412.958C46.4081 412.612 46.5811 412.218 46.9271 412.082C47.2623 411.947 47.6624 412.11 47.803 412.456C49.1383 415.824 50.5008 419.165 51.8794 422.484C52.0254 422.831 51.8632 423.225 51.5172 423.366C51.4307 423.404 51.3442 423.42 51.2577 423.42ZM462.343 423.435C462.283 423.435 462.218 423.43 462.148 423.408C461.791 423.3 461.591 422.921 461.699 422.565C462.727 419.148 463.673 415.644 464.5 412.163C464.592 411.8 464.938 411.579 465.316 411.66C465.679 411.752 465.906 412.114 465.819 412.476C464.981 415.985 464.03 419.51 462.992 422.954C462.905 423.246 462.635 423.435 462.343 423.435ZM59.9296 443.277C59.6755 443.277 59.4323 443.131 59.3187 442.883C57.8211 439.612 56.3398 436.308 54.8854 432.983C54.7395 432.643 54.8962 432.243 55.2368 432.091C55.5775 431.951 55.9775 432.097 56.1289 432.443C57.5778 435.762 59.0484 439.055 60.546 442.32C60.7028 442.661 60.5514 443.061 60.2162 443.218C60.1243 443.261 60.027 443.277 59.9296 443.277ZM454.871 443.725C454.779 443.725 454.687 443.709 454.595 443.666C454.255 443.52 454.103 443.12 454.249 442.779C455.687 439.514 457.039 436.151 458.283 432.783C458.412 432.437 458.796 432.253 459.153 432.383C459.499 432.512 459.677 432.902 459.548 433.253C458.299 436.648 456.931 440.033 455.487 443.32C455.374 443.574 455.131 443.725 454.871 443.725ZM69.3206 462.799C69.072 462.799 68.8341 462.664 68.7151 462.432C67.0986 459.22 65.4983 455.976 63.9196 452.7C63.7574 452.365 63.898 451.959 64.2386 451.797C64.5846 451.64 64.9793 451.776 65.1415 452.111C66.7147 455.376 68.3042 458.615 69.9208 461.821C70.0884 462.156 69.9586 462.561 69.6234 462.729C69.5261 462.778 69.4234 462.799 69.3206 462.799ZM444.988 462.973C444.869 462.973 444.75 462.946 444.642 462.881C444.318 462.686 444.215 462.275 444.404 461.956C446.237 458.858 447.994 455.68 449.621 452.5C449.794 452.165 450.194 452.036 450.53 452.209C450.865 452.382 450.995 452.787 450.827 453.117C449.183 456.317 447.416 459.523 445.567 462.643C445.442 462.854 445.215 462.973 444.988 462.973ZM432.921 480.923C432.78 480.923 432.634 480.88 432.51 480.788C432.218 480.566 432.159 480.139 432.38 479.842C434.548 476.976 436.657 474.03 438.646 471.072C438.857 470.764 439.273 470.678 439.587 470.889C439.895 471.099 439.976 471.521 439.765 471.829C437.765 474.808 435.646 477.776 433.462 480.658C433.326 480.831 433.126 480.923 432.921 480.923ZM79.4685 481.944C79.2307 481.944 79.0036 481.82 78.8792 481.598C77.1546 478.506 75.4137 475.3 73.6999 472.067C73.5269 471.737 73.6458 471.326 73.9756 471.153C74.3108 470.991 74.7163 471.104 74.8893 471.434C76.6031 474.656 78.3386 477.857 80.0579 480.939C80.2417 481.263 80.1227 481.679 79.7983 481.858C79.6956 481.917 79.5821 481.944 79.4685 481.944ZM418.983 497.456C418.821 497.456 418.653 497.396 418.523 497.272C418.253 497.023 418.237 496.59 418.491 496.32C420.956 493.676 423.368 490.957 425.655 488.248C425.898 487.973 426.325 487.929 426.606 488.167C426.893 488.411 426.93 488.838 426.687 489.124C424.384 491.849 421.962 494.579 419.48 497.245C419.345 497.385 419.167 497.456 418.983 497.456ZM90.4436 500.623C90.222 500.623 90.0003 500.51 89.8706 500.304C87.9945 497.271 86.1077 494.146 84.2641 491.016C84.0803 490.692 84.183 490.275 84.5074 490.086C84.8263 489.897 85.2426 490.011 85.4319 490.329C87.2701 493.454 89.1461 496.569 91.0221 499.591C91.2168 499.91 91.1195 500.326 90.8005 500.521C90.6923 500.591 90.568 500.623 90.4436 500.623ZM403.515 512.588C403.326 512.588 403.142 512.512 403.007 512.361C402.758 512.085 402.785 511.658 403.061 511.409C405.775 508.976 408.424 506.5 410.949 504.035C411.214 503.775 411.646 503.786 411.901 504.046C412.165 504.316 412.16 504.743 411.89 505.003C409.354 507.479 406.689 509.971 403.964 512.415C403.834 512.528 403.672 512.588 403.515 512.588ZM102.338 518.735C102.122 518.735 101.911 518.632 101.781 518.443C99.7374 515.508 97.6937 512.48 95.7096 509.447C95.4987 509.139 95.5906 508.717 95.9042 508.512C96.2124 508.312 96.6286 508.398 96.8395 508.712C98.8183 511.734 100.856 514.745 102.889 517.67C103.106 517.978 103.03 518.4 102.722 518.611C102.603 518.692 102.473 518.735 102.338 518.735ZM386.831 526.391C386.625 526.391 386.425 526.299 386.296 526.126C386.069 525.828 386.123 525.407 386.42 525.18C389.291 522.974 392.14 520.714 394.876 518.454C395.162 518.211 395.584 518.254 395.822 518.54C396.06 518.832 396.022 519.254 395.735 519.492C392.983 521.768 390.129 524.039 387.242 526.25C387.117 526.347 386.971 526.391 386.831 526.391ZM115.243 536.127C115.048 536.127 114.848 536.041 114.713 535.873C112.529 533.111 110.307 530.213 108.107 527.255C107.885 526.958 107.95 526.531 108.247 526.309C108.55 526.093 108.972 526.153 109.199 526.45C111.383 529.396 113.594 532.283 115.773 535.03C116.005 535.322 115.957 535.749 115.665 535.982C115.54 536.079 115.394 536.127 115.243 536.127ZM369.222 538.993C369.006 538.993 368.795 538.885 368.66 538.69C368.454 538.382 368.535 537.96 368.849 537.755C371.855 535.738 374.845 533.668 377.737 531.602C378.035 531.381 378.462 531.456 378.678 531.759C378.894 532.062 378.829 532.489 378.527 532.705C375.623 534.776 372.623 536.852 369.6 538.879C369.487 538.955 369.352 538.993 369.222 538.993ZM350.91 550.552C350.678 550.552 350.456 550.433 350.326 550.222C350.137 549.903 350.24 549.487 350.564 549.292C353.711 547.416 356.814 545.518 359.782 543.642C360.101 543.453 360.518 543.539 360.718 543.853C360.912 544.172 360.82 544.588 360.507 544.788C357.522 546.664 354.414 548.573 351.256 550.454C351.148 550.519 351.029 550.552 350.91 550.552ZM129.311 552.595C129.132 552.595 128.948 552.52 128.819 552.379C126.413 549.779 123.985 547.043 121.606 544.259C121.369 543.977 121.396 543.545 121.682 543.307C121.969 543.069 122.396 543.096 122.634 543.383C125.002 546.156 127.418 548.87 129.808 551.46C130.062 551.736 130.046 552.163 129.77 552.417C129.64 552.536 129.478 552.595 129.311 552.595ZM332.058 561.224C331.815 561.224 331.582 561.095 331.463 560.873C331.285 560.543 331.409 560.132 331.734 559.954C334.924 558.235 338.081 556.494 341.206 554.726C341.53 554.542 341.941 554.656 342.13 554.98C342.309 555.304 342.195 555.715 341.871 555.905C338.74 557.672 335.572 559.419 332.377 561.143C332.274 561.197 332.166 561.224 332.058 561.224ZM144.708 567.82C144.546 567.82 144.384 567.761 144.259 567.647C141.605 565.268 138.945 562.76 136.361 560.191C136.09 559.927 136.09 559.499 136.355 559.235C136.615 558.97 137.042 558.97 137.307 559.229C139.88 561.786 142.524 564.273 145.162 566.641C145.438 566.89 145.46 567.317 145.211 567.598C145.076 567.744 144.892 567.82 144.708 567.82ZM312.811 571.156C312.562 571.156 312.319 571.021 312.206 570.783C312.038 570.448 312.179 570.037 312.508 569.874C315.752 568.263 318.974 566.641 322.17 564.992C322.494 564.825 322.899 564.955 323.078 565.284C323.245 565.614 323.121 566.025 322.786 566.198C319.585 567.847 316.363 569.474 313.108 571.086C313.011 571.134 312.908 571.156 312.811 571.156ZM293.256 580.492C293.002 580.492 292.759 580.346 292.645 580.098C292.488 579.762 292.634 579.357 292.975 579.206C296.257 577.686 299.527 576.151 302.771 574.605C303.101 574.453 303.517 574.589 303.674 574.924C303.836 575.259 303.69 575.664 303.355 575.827C300.101 577.378 296.83 578.908 293.537 580.427C293.451 580.471 293.353 580.492 293.256 580.492ZM161.614 581.33C161.484 581.33 161.349 581.287 161.23 581.206C158.338 579.173 155.413 576.978 152.542 574.675C152.25 574.443 152.202 574.015 152.434 573.723C152.677 573.437 153.099 573.388 153.386 573.621C156.235 575.902 159.133 578.086 162.003 580.098C162.312 580.314 162.387 580.736 162.171 581.044C162.041 581.228 161.83 581.33 161.614 581.33ZM273.533 589.332C273.274 589.332 273.025 589.181 272.911 588.927C272.765 588.586 272.922 588.186 273.263 588.035C276.572 586.591 279.87 585.137 283.146 583.666C283.486 583.515 283.887 583.666 284.038 584.007C284.189 584.347 284.038 584.747 283.703 584.899C280.416 586.369 277.118 587.829 273.804 589.273C273.717 589.311 273.625 589.332 273.533 589.332ZM180.191 592.409C180.088 592.409 179.985 592.387 179.888 592.338C176.714 590.776 173.503 589.03 170.34 587.132C170.021 586.943 169.919 586.526 170.108 586.207C170.297 585.888 170.713 585.78 171.038 585.975C174.168 587.846 177.347 589.581 180.488 591.127C180.823 591.295 180.958 591.695 180.796 592.03C180.677 592.273 180.434 592.409 180.191 592.409ZM253.567 597.719C253.291 597.719 253.032 597.546 252.935 597.27C252.805 596.919 252.989 596.529 253.34 596.405C254.908 595.837 256.514 595.21 258.114 594.534C259.849 593.799 261.59 593.064 263.326 592.323C263.666 592.182 264.066 592.334 264.212 592.674C264.358 593.021 264.202 593.421 263.861 593.561C262.12 594.307 260.379 595.048 258.638 595.783C257.016 596.464 255.389 597.102 253.8 597.675C253.724 597.702 253.643 597.719 253.567 597.719ZM200.384 600.047C200.33 600.047 200.27 600.037 200.216 600.026C196.783 599.117 193.301 597.993 189.863 596.685C189.512 596.555 189.333 596.16 189.468 595.814C189.603 595.463 189.993 595.29 190.339 595.425C193.739 596.712 197.178 597.825 200.557 598.717C200.919 598.815 201.135 599.182 201.038 599.539C200.957 599.847 200.687 600.047 200.384 600.047ZM232.531 602.622C232.185 602.622 231.893 602.363 231.855 602.017C231.817 601.644 232.087 601.314 232.455 601.271C235.985 600.897 239.548 600.292 243.041 599.47C243.419 599.378 243.771 599.616 243.852 599.973C243.944 600.335 243.717 600.703 243.354 600.784C239.802 601.622 236.185 602.233 232.601 602.617C232.574 602.622 232.552 602.622 232.531 602.622ZM221.718 603.087H221.707C218.122 603.017 214.479 602.714 210.867 602.195C210.499 602.141 210.245 601.8 210.299 601.432C210.348 601.059 210.656 600.794 211.062 600.859C214.614 601.373 218.204 601.665 221.734 601.735C222.102 601.746 222.404 602.054 222.394 602.427C222.388 602.795 222.085 603.087 221.718 603.087Z" fill="#D8D5DB"/>
<mask id="mask1_37_627" style="mask-type:luminance" maskUnits="userSpaceOnUse" x="51" y="88" width="394" height="532">
<path fill-rule="evenodd" clip-rule="evenodd" d="M51.5118 88.8052H444.765V619.914H51.5118V88.8052Z" fill="white"/>
</mask>
<g mask="url(#mask1_37_627)">
<path fill-rule="evenodd" clip-rule="evenodd" d="M417.853 534.891C414.825 535.702 411.798 537.27 409.365 540.028C407.959 541.65 406.121 544.677 404.499 547.867C404.121 536.946 403.742 527.647 403.364 521.916C404.391 521.808 404.986 521.808 404.986 521.808C404.986 520.51 404.986 519.213 404.932 517.807C404.661 491.478 401.796 445.685 398.011 400.055C399.363 402.866 400.661 405.461 401.904 407.786C401.958 408.597 401.958 409.408 402.12 410.273C404.121 421.194 414.123 481.638 417.042 518.077C417.583 524.619 417.853 530.35 417.853 534.891ZM441.912 401.677V401.568C438.776 391.35 428.233 360.912 416.231 330.69L429.531 326.148C429.531 326.148 390.605 256.892 367.843 241.646C367.789 241.592 367.735 241.592 367.681 241.537C359.68 234.077 348.002 229.211 330.539 227.21C330.431 212.775 331.512 188.446 332.755 169.794C341.73 167.739 346.055 157.197 346.65 154.872C347.894 150.114 346.758 146.168 344.433 143.627C345.136 137.734 346.326 126.272 346.001 116.432C345.731 107.403 344.271 99.7803 340.054 98.8612C340.108 98.699 340.216 98.5909 340.27 98.4827C341.676 93.9954 339.027 89.0214 338.919 88.8052L336.54 90.1027C337.189 91.2381 338.54 94.8063 337.675 97.6177C333.675 93.1844 321.24 91.4003 307.291 91.6706C287.774 91.995 265.391 96.4823 259.336 103.511C255.119 108.377 256.362 111.026 260.742 112.215C260.093 116.757 259.822 120.703 259.714 124.326C259.066 126.002 258.471 127.732 257.876 129.57C256.308 130.651 254.794 132.219 253.659 134.652L256.146 135.787C256.2 135.679 256.254 135.625 256.308 135.517C255.659 138.274 255.065 141.086 254.632 144.167C249.766 177.687 241.819 211.045 275.069 211.424C275.015 215.208 274.798 218.884 274.42 222.345C274.15 225.102 273.771 227.697 273.285 230.022C260.633 233.103 250.74 237.969 243.873 244.511C219.436 264.677 188.565 329.446 188.565 329.446L198.946 334.583C191.269 349.504 183.7 364.751 178.023 377.131C151.747 358.966 105.576 325.283 91.9521 310.524C91.9521 310.47 91.898 310.47 91.8439 310.416C92.3846 304.739 91.3574 295.548 89.8436 290.358C89.8436 290.25 89.8436 290.141 89.7895 289.979C89.6814 289.709 89.5732 289.547 89.5192 289.331C89.411 289.006 89.3029 288.628 89.1948 288.357C88.9245 287.655 88.7082 287.168 88.4919 286.735C84.8696 278.734 79.1388 275.598 75.7327 264.947C73.9486 259.271 69.5694 261.595 67.8934 265.38L55.026 236.618L51.5118 238.185L68.0555 275.328C64.1629 273.598 60.7568 272.571 58.4321 273.381C55.2423 274.463 51.7281 290.52 53.2419 296.251C54.7557 301.928 70.2722 320.201 76.0571 323.337C76.4896 323.553 76.9762 323.716 77.4087 323.77C86.7619 336.853 148.774 410.489 173.698 423.248C189.16 431.088 200.784 424.33 204.623 414.274C209.596 406.272 218.733 390.647 228.681 372.59C225.437 422.87 219.22 479.53 207.488 519.267C208.569 519.429 209.705 519.591 210.84 519.754C207.542 536.243 205.109 557.923 203.379 579.927C215.598 585.118 228.032 589.821 240.575 594.038C296.532 612.961 354.598 622.422 405.094 619.34C405.905 616.853 406.283 614.258 406.229 611.501C405.959 600.688 405.634 587.442 405.31 574.359C408.013 581.387 411.527 587.172 414.339 588.632C417.312 590.146 431.369 581.549 434.451 576.413C437.478 571.439 439.803 547.543 438.019 541.163C437.911 540.731 437.587 540.406 437.37 540.028C438.019 536.459 438.992 528.674 440.074 518.51C443.534 484.233 447.643 422.654 441.912 401.677Z" fill="#D1CDD3"/>
</g>
<path fill-rule="evenodd" clip-rule="evenodd" d="M303.837 297.971L268.593 274.972C268.593 274.972 233.564 339.433 216.291 377.148C190.032 358.967 143.861 325.301 130.231 310.508C130.193 310.471 130.155 310.449 130.117 310.411C130.653 304.724 129.625 295.56 128.128 290.364C128.095 290.229 128.09 290.121 128.041 289.975C127.966 289.731 127.863 289.537 127.782 289.304C127.674 289.002 127.576 288.618 127.468 288.358C127.182 287.661 126.96 287.153 126.76 286.715C123.138 278.762 117.396 275.583 114.011 264.965C111.654 257.552 104.858 263.77 105.529 269.117C105.529 269.117 106.54 272.588 107.681 275.929C103.188 273.788 99.3059 272.49 96.6892 273.372C93.521 274.437 89.9798 290.515 91.499 296.262C92.9912 301.918 108.529 320.202 114.347 323.349C114.768 323.576 115.212 323.7 115.666 323.771C125.046 336.87 187.058 410.512 211.987 423.228C227.428 431.105 239.025 424.32 242.901 414.285C254.687 395.152 290.354 332.88 303.837 297.971Z" fill="#FFAD69"/>
<path fill-rule="evenodd" clip-rule="evenodd" d="M308.634 258.369C313.976 285.239 292.501 361.702 292.501 361.702L226.813 329.463C226.813 329.463 294.545 187.485 308.634 258.369Z" fill="#EA3939"/>
<path fill-rule="evenodd" clip-rule="evenodd" d="M444.508 611.501C444.508 612.366 444.508 613.231 444.4 614.096C432.019 616.799 418.827 618.583 405.095 619.34C354.599 622.422 296.533 612.96 240.577 594.038C242.523 565.167 245.55 535.053 250.2 514.725L404.933 517.807L417.043 518.077L440.075 518.51L441.426 518.564C442.508 530.89 443.805 580.792 444.508 611.501Z" fill="#232323"/>
<path fill-rule="evenodd" clip-rule="evenodd" d="M356.13 226.31C398.593 227.71 412.947 242.043 420.267 266.831C428.577 294.977 443.217 464.978 443.217 521.783C443.217 521.783 316.144 530.785 245.747 519.248C267.816 444.693 270.206 310.629 270.649 270.691C270.979 240.723 302.298 224.531 356.13 226.31Z" fill="#FF4E4A"/>
<path fill-rule="evenodd" clip-rule="evenodd" d="M318.724 156.794C314.539 153.648 292.719 156.502 299.006 112.077C301.293 95.8688 316.518 106.687 327.293 108.85C338.068 111.012 331.218 157.594 331.218 157.594L318.724 156.794Z" fill="#232323"/>
<path fill-rule="evenodd" clip-rule="evenodd" d="M373.052 146.152C371.241 157.928 367.618 221.637 369.127 236.429C370.635 251.227 299.075 255.455 308.434 239.149C317.798 222.843 311.153 168.795 311.153 168.795L373.052 146.152Z" fill="#FFAD69"/>
<path fill-rule="evenodd" clip-rule="evenodd" d="M368.097 147.953L311.162 168.8C311.162 168.8 315.006 200.282 312.686 222.443C356.1 219.086 367.243 164.254 367.978 153.695C368.097 151.705 368.156 149.786 368.097 147.953Z" fill="#D88344"/>
<path fill-rule="evenodd" clip-rule="evenodd" d="M292.882 144.149C287.605 180.519 278.647 216.78 322.731 210.811C366.82 204.842 373.67 148.318 373.541 137.656C372.854 80.7641 303.257 72.6328 292.882 144.149Z" fill="#FFAD69"/>
<path fill-rule="evenodd" clip-rule="evenodd" d="M378.295 98.8404C378.349 98.6999 378.468 98.6025 378.516 98.462C379.949 94.0016 377.311 89.0331 377.197 88.8223L374.818 90.1036C374.84 90.1468 377.002 94.2612 375.943 97.6078C366.287 86.9408 307.957 91.4876 297.582 103.539C284.401 118.85 324.938 111.946 347.781 108.08C350.981 121.456 365.481 143.606 369.66 146.752L382.155 147.558C382.155 147.558 388.972 101.187 378.295 98.8404Z" fill="#232323"/>
<path fill-rule="evenodd" clip-rule="evenodd" d="M475.635 540.01C478.435 524.451 487.658 428.87 480.192 401.697C480.181 401.654 480.187 401.611 480.176 401.562C474.964 384.553 449.083 311.236 430.345 276.521L389.964 288.372C389.964 288.372 423.76 376.573 440.147 407.769C440.195 408.607 440.195 409.428 440.357 410.293C442.769 423.161 456.242 504.804 456.09 534.874C453.106 535.707 450.067 537.275 447.651 540.032C444.574 543.546 439.211 553.64 439.59 558.117C440.666 570.892 447.764 586.111 452.625 588.625C455.598 590.161 469.612 581.527 472.688 576.439C475.716 571.433 478.051 547.552 476.267 541.184C476.148 540.746 475.856 540.394 475.635 540.01Z" fill="#FFAD69"/>
<path fill-rule="evenodd" clip-rule="evenodd" d="M406.109 241.653C428.886 256.877 467.769 326.129 467.769 326.129L398.529 349.782C398.529 349.782 346.021 201.494 406.109 241.653Z" fill="#FF4E4A"/>
<path fill-rule="evenodd" clip-rule="evenodd" d="M330.006 142.349C330.147 144.122 329.19 145.642 327.86 145.75C326.53 145.852 325.341 144.506 325.2 142.733C325.054 140.965 326.016 139.44 327.346 139.338C328.671 139.229 329.86 140.576 330.006 142.349Z" fill="#232323"/>
<path fill-rule="evenodd" clip-rule="evenodd" d="M301.924 143.094C302.064 144.867 301.107 146.386 299.777 146.494C298.453 146.597 297.258 145.251 297.117 143.483C296.971 141.71 297.934 140.185 299.264 140.082C300.588 139.974 301.783 141.32 301.924 143.094Z" fill="#232323"/>
<path fill-rule="evenodd" clip-rule="evenodd" d="M336.912 132.399C333.154 126.631 326.688 128.004 326.623 128.015L326.029 125.376C326.369 125.306 334.403 123.603 339.177 130.923L336.912 132.399Z" fill="#232323"/>
<path fill-rule="evenodd" clip-rule="evenodd" d="M294.402 135.768L291.948 134.643C295.592 126.69 303.782 127.204 304.128 127.22L303.939 129.918C303.685 129.901 297.257 129.561 294.402 135.768Z" fill="#232323"/>
<path fill-rule="evenodd" clip-rule="evenodd" d="M320.981 175.835C319.186 175.835 318.051 175.635 318.007 175.624L318.499 172.969C318.997 173.061 330.864 175.072 337.476 164.07L339.79 165.465C334.335 174.537 325.549 175.835 320.981 175.835Z" fill="#232323"/>
<path fill-rule="evenodd" clip-rule="evenodd" d="M300.197 163.516L307.074 140.073L309.663 140.83L303.819 160.764L313.286 160.639L313.324 163.343L300.197 163.516Z" fill="#D88344"/>
<path fill-rule="evenodd" clip-rule="evenodd" d="M125.052 307.824L121.516 309.402L89.7803 238.194L93.3107 236.615L125.052 307.824Z" fill="#232323"/>
<path fill-rule="evenodd" clip-rule="evenodd" d="M362.361 150.781C358.376 159.756 353.391 168.438 365.897 170.05C378.402 171.666 384.219 157.625 384.927 154.874C388.706 140.2 370.189 133.134 362.361 150.781Z" fill="#FFAD69"/>
<path fill-rule="evenodd" clip-rule="evenodd" d="M175.294 0.00195312H48.0749C43.6416 0.00195312 40.0463 3.59184 40.0463 8.02513V53.3258C40.0463 57.7591 43.6416 61.3544 48.0749 61.3544H55.8224L64.5592 73.0269C66.5001 75.622 70.5712 74.8489 71.4308 71.724L74.2638 61.3544H175.294C179.727 61.3544 183.317 57.7591 183.317 53.3258V8.02513C183.317 3.59184 179.727 0.00195312 175.294 0.00195312Z" fill="#4D8DFF"/>
<mask id="mask2_37_627" style="mask-type:luminance" maskUnits="userSpaceOnUse" x="0" y="0" width="563" height="620">
<path fill-rule="evenodd" clip-rule="evenodd" d="M0.961426 619.915H563V0H0.961426V619.915Z" fill="white"/>
</mask>
<g mask="url(#mask2_37_627)">
<path fill-rule="evenodd" clip-rule="evenodd" d="M52.5444 14.5915H165.026V11.8882H52.5444V14.5915Z" fill="white"/>
<path fill-rule="evenodd" clip-rule="evenodd" d="M52.5444 27.383H126.818V24.6797H52.5444V27.383Z" fill="white"/>
<path fill-rule="evenodd" clip-rule="evenodd" d="M52.5444 40.175H145.384V37.4717H52.5444V40.175Z" fill="white"/>
<path fill-rule="evenodd" clip-rule="evenodd" d="M145.385 151.588H48.0738C43.6406 151.588 40.0507 155.184 40.0507 159.612V204.912C40.0507 209.346 43.6406 212.941 48.0738 212.941H55.8213L64.5581 224.613C66.499 227.208 70.5755 226.435 71.4297 223.31L74.2627 212.941H145.385C149.818 212.941 153.408 209.346 153.408 204.912V159.612C153.408 155.184 149.818 151.588 145.385 151.588Z" fill="#FF4E4A"/>
<path fill-rule="evenodd" clip-rule="evenodd" d="M52.5444 166.178H104.322V163.475H52.5444V166.178Z" fill="white"/>
<path fill-rule="evenodd" clip-rule="evenodd" d="M115.038 166.178H132.89V163.475H115.038V166.178Z" fill="white"/>
<path fill-rule="evenodd" clip-rule="evenodd" d="M52.5444 178.969H89.3245V176.266H52.5444V178.969Z" fill="white"/>
<path fill-rule="evenodd" clip-rule="evenodd" d="M52.5444 191.761H123.601V189.058H52.5444V191.761Z" fill="white"/>
<path fill-rule="evenodd" clip-rule="evenodd" d="M112.798 75.7529H231.275C235.703 75.7529 239.293 79.3482 239.293 83.7761V129.082C239.293 133.51 235.703 137.105 231.275 137.105H223.522L214.785 148.783C212.844 151.373 208.768 150.6 207.919 147.475L205.08 137.105H112.798C108.364 137.105 104.775 133.51 104.775 129.082V83.7761C104.775 79.3482 108.364 75.7529 112.798 75.7529Z" fill="#FFC84D"/>
<path fill-rule="evenodd" clip-rule="evenodd" d="M179.31 90.341H226.8V87.6377H179.31V90.341Z" fill="white"/>
<path fill-rule="evenodd" clip-rule="evenodd" d="M123.607 103.138H226.8V100.435H123.607V103.138Z" fill="white"/>
<path fill-rule="evenodd" clip-rule="evenodd" d="M176.098 115.93H226.8V113.227H176.098V115.93Z" fill="white"/>
<path fill-rule="evenodd" clip-rule="evenodd" d="M144.314 115.93H167.523V113.227H144.314V115.93Z" fill="white"/>
<path fill-rule="evenodd" clip-rule="evenodd" d="M318.254 299.323C297.585 299.323 280.765 316.142 280.765 336.811C280.765 357.485 297.585 374.305 318.254 374.305C338.928 374.305 355.748 357.485 355.748 336.811C355.748 316.142 338.928 299.323 318.254 299.323ZM318.254 377.008C296.093 377.008 278.062 358.978 278.062 336.811C278.062 314.65 296.093 296.62 318.254 296.62C340.42 296.62 358.451 314.65 358.451 336.811C358.451 358.978 340.42 377.008 318.254 377.008Z" fill="white"/>
</g>
</svg>
