<svg width="586" height="660" viewBox="0 0 586 660" fill="none" xmlns="http://www.w3.org/2000/svg">
<path d="M583.249 428.44C575.441 472.413 552.982 512.449 519.527 542.036C507.977 552.221 495.478 561.278 482.203 569.083C435.412 597.374 377.424 614.521 317.056 628.586L306.724 630.912C297.751 632.95 288.546 633.787 279.353 633.4C183.337 629.397 117.938 487.077 97.5987 337.293C79.8561 203.952 109.553 52.9236 242.515 46.1078C292.443 43.6195 350.702 68.5025 404.795 108.532C408.69 111.399 412.585 114.374 416.425 117.403L418.805 119.296C519.798 199.787 602.29 330.315 583.249 428.44Z" fill="#E3E0F3"/>
<path d="M111.988 553.99C119.507 569.19 122.265 588.448 107.173 594.614C90.2961 601.538 63.3576 590.395 55.5681 565.025C50.5374 548.797 52.2684 526.186 66.3868 517.477C77.9087 510.012 103.008 535.382 111.988 553.99Z" fill="#F5F9FD"/>
<path d="M524.937 213.093C518.175 207.197 512.766 198.434 518.5 192.538C524.233 186.641 539.704 186.155 548.792 196.919C554.58 203.789 558.583 215.04 554.201 221.91C550.306 227.752 533.375 220.288 524.937 213.093Z" fill="#FFAD69"/>
<path fill-rule="evenodd" clip-rule="evenodd" d="M205.785 125.787C202.215 125.408 198.591 125.138 194.967 124.976C194.68 125.058 194.372 124.949 194.2 124.706C194.027 124.462 194.027 124.136 194.2 123.893C194.372 123.649 194.68 123.541 194.967 123.623C198.21 123.623 201.542 123.98 204.801 124.33C205.13 124.365 205.458 124.4 205.785 124.435C205.969 124.447 206.138 124.537 206.251 124.681C206.365 124.826 206.412 125.011 206.381 125.192C206.336 125.5 206.094 125.742 205.785 125.787ZM152.233 129.682C151.941 129.659 151.688 129.469 151.584 129.195C151.48 128.822 151.698 128.435 152.071 128.33C155.479 127.41 159.049 126.599 162.889 125.895C163.062 125.846 163.247 125.871 163.4 125.963C163.554 126.055 163.663 126.207 163.701 126.382C163.768 126.754 163.529 127.112 163.16 127.194C159.59 127.897 156.074 128.708 152.666 129.628L152.233 129.682ZM237.809 131.846C241.271 132.766 244.733 133.739 248.195 134.821H248.682C249.04 134.821 249.331 134.531 249.331 134.172C249.331 133.814 249.04 133.523 248.682 133.523C245.166 132.387 241.649 131.413 238.242 130.494C238.048 130.427 237.834 130.449 237.658 130.553C237.481 130.657 237.358 130.833 237.322 131.035C237.275 131.386 237.477 131.723 237.809 131.846ZM131.84 137.038C131.591 137.018 131.369 136.876 131.245 136.66C131.088 136.316 131.232 135.91 131.569 135.74C134.815 134.28 138.169 132.873 141.631 131.629C141.795 131.559 141.981 131.56 142.145 131.632C142.309 131.703 142.436 131.839 142.496 132.008C142.611 132.351 142.448 132.725 142.118 132.873C138.71 134.117 135.356 135.524 132.164 136.984L131.84 137.038ZM258.527 138.228C261.88 139.418 265.288 140.716 268.642 142.014L269.129 142.069C269.487 142.069 269.778 141.778 269.778 141.419C269.778 141.061 269.487 140.77 269.129 140.77C265.775 139.472 262.367 138.174 258.959 136.984C258.618 136.893 258.259 137.05 258.094 137.362C257.985 137.72 258.175 138.1 258.527 138.228ZM113.124 147.857C112.907 147.872 112.7 147.768 112.583 147.587C112.46 147.465 112.392 147.299 112.392 147.127C112.392 146.954 112.46 146.789 112.583 146.667C115.558 144.557 118.587 142.556 121.724 140.771C122.042 140.655 122.398 140.783 122.57 141.074C122.742 141.365 122.682 141.738 122.428 141.961C119.344 143.746 116.261 145.693 113.394 147.749C113.329 147.798 113.256 147.835 113.178 147.857H113.124ZM288.224 150.615H288.548H288.603C288.827 150.608 289.031 150.485 289.143 150.291C289.216 150.133 289.223 149.953 289.162 149.79C289.101 149.628 288.978 149.496 288.819 149.425C285.573 147.857 282.274 146.396 278.92 144.936C278.762 144.863 278.582 144.856 278.419 144.917C278.257 144.978 278.125 145.101 278.054 145.26C277.898 145.604 278.041 146.01 278.379 146.18C281.679 147.586 285.032 149.101 288.224 150.615ZM96.8638 162.039C96.7327 162.078 96.5923 162.075 96.4628 162.029C96.3405 161.907 96.2718 161.742 96.2718 161.569C96.2718 161.397 96.3405 161.231 96.4628 161.109C99.0051 158.459 101.872 155.7 104.36 153.59C104.632 153.329 105.062 153.329 105.334 153.59C105.595 153.862 105.595 154.292 105.334 154.564C102.683 156.89 99.9247 159.378 97.5446 161.975C97.3436 162.113 97.086 162.137 96.8638 162.039ZM326.738 171.225H326.414C323.385 169.332 320.247 167.493 317.11 165.816C316.907 165.69 316.786 165.466 316.794 165.227C316.801 164.989 316.935 164.772 317.145 164.659C317.355 164.546 317.61 164.554 317.813 164.68C319.453 165.613 321.093 166.576 322.718 167.529C324.201 168.4 325.671 169.263 327.117 170.089C327.239 170.211 327.308 170.376 327.308 170.549C327.308 170.721 327.239 170.887 327.117 171.009C327.023 171.126 326.887 171.203 326.738 171.225ZM82.9935 178.907H83.3721C83.5906 179.004 83.8463 178.962 84.0213 178.798C85.7845 175.939 87.6738 173.542 89.578 171.125C89.8352 170.799 90.0927 170.472 90.3502 170.144C90.4899 170.02 90.57 169.843 90.57 169.657C90.57 169.47 90.4899 169.293 90.3502 169.17C90.2284 169.048 90.0629 168.979 89.8904 168.979C89.7178 168.979 89.5524 169.048 89.4306 169.17C87.2128 171.983 85.049 174.904 82.9935 177.987C82.8713 178.109 82.8026 178.274 82.8026 178.447C82.8026 178.619 82.8713 178.785 82.9935 178.907ZM344.968 182.964C344.848 183.022 344.709 183.022 344.589 182.964L335.61 176.906C335.296 176.711 335.199 176.3 335.393 175.986C335.587 175.672 335.999 175.576 336.313 175.77C339.378 177.717 342.407 179.719 345.4 181.774C345.629 182.038 345.629 182.43 345.4 182.694C345.31 182.85 345.148 182.952 344.968 182.964ZM72.7698 197.569C72.5966 197.5 72.4617 197.359 72.3995 197.183C72.3374 197.007 72.3541 196.813 72.4453 196.65C73.9599 193.35 75.6368 190.104 77.3678 186.967C77.4354 186.678 77.6774 186.462 77.9724 186.428C78.2675 186.395 78.552 186.55 78.6833 186.816C78.8146 187.083 78.7644 187.403 78.5578 187.616C76.8268 190.699 75.204 193.945 73.6353 197.245C73.5645 197.403 73.4331 197.527 73.2705 197.588C73.1078 197.649 72.9275 197.642 72.7698 197.569ZM379.209 208.928C379.348 208.983 379.503 208.983 379.642 208.928C379.793 208.937 379.944 208.899 380.074 208.82C380.197 208.698 380.265 208.533 380.265 208.36C380.265 208.188 380.197 208.022 380.074 207.901C378.128 206.406 376.337 204.933 374.574 203.483C373.593 202.677 372.622 201.877 371.636 201.085C371.336 200.921 370.962 200.995 370.748 201.262C370.535 201.529 370.544 201.911 370.77 202.167C372.862 203.661 374.747 205.232 376.64 206.81C377.488 207.517 378.338 208.225 379.209 208.928ZM65.1427 217.962C64.8089 217.815 64.627 217.451 64.7099 217.096C65.8459 213.58 67.0359 210.118 68.3342 206.819C68.499 206.506 68.8582 206.349 69.1997 206.44C69.368 206.5 69.5041 206.627 69.5758 206.791C69.6475 206.955 69.6484 207.141 69.5783 207.306C68.3342 210.551 67.1441 214.013 66.0082 217.475C65.9031 217.848 65.516 218.066 65.1427 217.962ZM396.139 223.081C396.067 223.081 395.994 223.069 395.924 223.047C393.273 220.612 390.515 218.232 387.756 215.906C387.519 215.625 387.519 215.214 387.756 214.933C388.028 214.672 388.457 214.672 388.729 214.933L396.898 222.073C397.134 222.354 397.134 222.765 396.898 223.047C396.672 223.206 396.375 223.218 396.139 223.081ZM59.2793 238.667C59.3829 238.822 59.5483 238.926 59.7333 238.95C59.9388 238.967 60.1412 238.892 60.2869 238.747C60.4327 238.601 60.5072 238.399 60.4906 238.193C61.2479 234.677 62.0593 231.107 62.9789 227.645C63.0501 227.289 62.8393 226.938 62.4921 226.834C62.3128 226.766 62.113 226.782 61.9461 226.876C61.7792 226.969 61.6623 227.132 61.6266 227.32C61.4514 228.076 61.2763 228.824 61.1025 229.567C60.4174 232.496 59.7533 235.335 59.1924 238.139C59.1441 238.319 59.1757 238.512 59.2793 238.667ZM427.082 253.448C426.927 253.517 426.75 253.517 426.595 253.448C424.161 250.797 421.618 248.038 419.13 245.604C418.869 245.332 418.869 244.903 419.13 244.631C419.411 244.394 419.822 244.394 420.104 244.631C421.177 245.751 422.26 246.911 423.341 248.068L423.341 248.068L423.342 248.069L423.342 248.069L423.343 248.071L423.345 248.072C424.768 249.596 426.185 251.114 427.568 252.528C427.829 252.8 427.829 253.23 427.568 253.502C427.404 253.531 427.235 253.512 427.082 253.448ZM55.46 259.56C55.4272 259.93 55.6878 260.262 56.055 260.317C56.4077 260.354 56.7323 260.122 56.8123 259.776C57.245 256.044 57.7319 252.42 58.2728 248.958C58.3225 248.784 58.2901 248.596 58.1848 248.449C58.0795 248.301 57.9128 248.21 57.7319 248.2C57.5594 248.169 57.3816 248.209 57.239 248.311C57.0964 248.413 57.001 248.568 56.9746 248.741C56.3795 252.312 55.8927 255.936 55.46 259.56ZM441.47 269.676C441.297 269.748 441.103 269.748 440.93 269.676L433.843 261.453C433.721 261.332 433.652 261.166 433.652 260.994C433.652 260.821 433.721 260.656 433.843 260.534C433.967 260.394 434.144 260.314 434.33 260.314C434.516 260.314 434.694 260.394 434.817 260.534C436.537 262.453 438.286 264.491 440.043 266.538C440.662 267.26 441.283 267.983 441.903 268.702C442.164 268.974 442.164 269.404 441.903 269.676C441.764 269.73 441.61 269.73 441.47 269.676ZM53.8448 281.692C53.9682 281.826 54.142 281.902 54.324 281.901C54.6738 281.905 54.9734 281.651 55.0272 281.306C55.0927 279.844 55.2109 278.374 55.3287 276.909C55.503 274.741 55.6763 272.585 55.6763 270.487C55.6802 270.108 55.4027 269.784 55.0272 269.73C54.8459 269.715 54.6665 269.776 54.5328 269.9C54.3991 270.023 54.3234 270.197 54.324 270.379C54.2658 271.147 54.2027 271.917 54.1393 272.689C53.9082 275.508 53.6749 278.353 53.6749 281.198C53.6597 281.379 53.7213 281.558 53.8448 281.692ZM455.21 286.606C455.038 286.685 454.841 286.685 454.669 286.606C452.451 283.685 450.234 280.818 448.016 278.06C447.894 277.938 447.825 277.772 447.825 277.6C447.825 277.427 447.894 277.262 448.016 277.14C448.139 277 448.316 276.92 448.503 276.92C448.689 276.92 448.866 277 448.989 277.14C449.648 277.98 450.317 278.81 450.991 279.646C452.531 281.558 454.1 283.504 455.643 285.687C455.904 285.959 455.904 286.388 455.643 286.66L455.21 286.606ZM53.6749 302.943C53.6749 303.302 53.9655 303.592 54.324 303.592H54.3781C54.56 303.593 54.7339 303.517 54.8573 303.384C54.9807 303.25 55.0424 303.071 55.0272 302.889V295.316V292.071C55.0278 291.889 54.9521 291.715 54.8184 291.591C54.6847 291.468 54.5053 291.406 54.324 291.421C53.9655 291.421 53.6749 291.712 53.6749 292.071V295.316V302.943ZM467.598 304.241C467.405 304.311 467.195 304.311 467.002 304.241C465.055 301.32 463 298.345 460.89 295.316C460.768 295.194 460.699 295.028 460.699 294.856C460.699 294.683 460.768 294.518 460.89 294.396C461.162 294.135 461.592 294.135 461.864 294.396C464.027 297.371 466.083 300.4 468.03 303.321C468.258 303.585 468.258 303.977 468.03 304.241C467.892 304.301 467.735 304.301 467.598 304.241ZM478.524 322.308C478.628 322.511 478.838 322.637 479.065 322.633L479.444 322.308C479.566 322.187 479.635 322.021 479.635 321.849C479.635 321.676 479.566 321.511 479.444 321.389C477.875 318.306 475.982 315.222 474.035 312.085C473.771 311.857 473.379 311.857 473.115 312.085C472.879 312.366 472.879 312.777 473.115 313.058C474.153 314.907 475.249 316.756 476.346 318.605L476.348 318.608C477.079 319.842 477.81 321.075 478.524 322.308ZM55.1895 325.229C54.8511 325.231 54.5686 324.972 54.5404 324.634C54.5404 322.425 54.3452 320.215 54.1541 318.052L54.1541 318.052C54.0271 316.615 53.9019 315.198 53.8371 313.816C53.8361 313.447 54.1192 313.141 54.4863 313.112C54.6676 313.097 54.8469 313.159 54.9806 313.282C55.1143 313.406 55.1901 313.58 55.1895 313.762C55.1895 316.283 55.4121 318.861 55.6378 321.474C55.7267 322.504 55.8162 323.54 55.8927 324.58C55.9079 324.762 55.8462 324.941 55.7228 325.075C55.5994 325.208 55.4255 325.284 55.2436 325.283L55.1895 325.229ZM488.694 341.348C488.835 341.573 489.078 341.715 489.343 341.727V341.673C489.681 341.503 489.824 341.097 489.668 340.753C488.099 337.562 486.422 334.316 484.691 331.071C484.503 330.753 484.102 330.635 483.772 330.8C483.543 331.064 483.543 331.456 483.772 331.72C485.503 334.965 487.179 338.211 488.694 341.348ZM57.4614 346.813C57.1116 346.817 56.812 346.564 56.7582 346.218C56.3254 342.648 55.8927 339.024 55.514 335.399C55.483 335.218 55.53 335.033 55.6434 334.889C55.7568 334.744 55.926 334.655 56.1091 334.642C56.479 334.609 56.8107 334.87 56.8664 335.237C57.245 338.807 57.6777 342.431 58.1105 346.055L58.1105 346.056C58.1416 346.237 58.0946 346.422 57.9812 346.567C57.8678 346.711 57.6986 346.8 57.5155 346.813H57.4614ZM497.241 361.147C497.35 361.409 497.606 361.58 497.89 361.58L498.106 361.526C498.274 361.466 498.411 361.339 498.482 361.175C498.554 361.011 498.555 360.825 498.485 360.66C497.241 357.307 495.834 353.953 494.374 350.599C494.204 350.261 493.798 350.118 493.454 350.275C493.295 350.345 493.172 350.477 493.111 350.639C493.05 350.802 493.057 350.982 493.13 351.14C494.59 354.494 495.942 357.848 497.241 361.147ZM60.707 368.233C60.3868 368.238 60.1112 368.008 60.0579 367.692C59.4088 364.122 58.8137 360.498 58.2728 356.874C58.2418 356.687 58.2874 356.495 58.3994 356.343C58.5114 356.19 58.6803 356.089 58.8678 356.062C59.2378 356.029 59.5694 356.29 59.6251 356.657C60.0331 359.35 60.4718 362.042 60.9181 364.781L60.9181 364.781C61.0636 365.674 61.2099 366.572 61.3561 367.476C61.4231 367.848 61.1842 368.206 60.8152 368.287L60.707 368.233ZM504.489 381.595C504.543 381.911 504.818 382.141 505.138 382.136L505.301 382.082C505.476 382.044 505.627 381.935 505.72 381.782C505.812 381.628 505.836 381.443 505.788 381.271C504.814 377.863 503.732 374.347 502.596 370.885C502.547 370.706 502.425 370.557 502.26 370.475C502.095 370.392 501.902 370.384 501.731 370.452C501.552 370.5 501.403 370.623 501.321 370.788C501.238 370.953 501.23 371.146 501.298 371.317C502.434 374.725 503.516 378.241 504.489 381.595ZM65.1427 389.493C64.8225 389.497 64.5469 389.268 64.4936 388.952C63.6822 385.382 62.9248 381.812 62.2757 378.133C62.2274 377.953 62.2591 377.761 62.3626 377.605C62.4662 377.45 62.6316 377.347 62.8167 377.322C62.9891 377.291 63.1669 377.331 63.3096 377.432C63.4522 377.534 63.5476 377.69 63.574 377.863C63.8634 379.288 64.162 380.731 64.4661 382.2L64.4665 382.203L64.4677 382.208L64.468 382.21L64.4693 382.216L64.4707 382.223L64.4722 382.23L64.4727 382.232C64.9051 384.322 65.3485 386.465 65.7918 388.682C65.8407 388.854 65.8161 389.039 65.7239 389.193C65.6317 389.346 65.4801 389.455 65.305 389.493H65.1427ZM508.817 402.583C508.894 402.907 509.187 403.133 509.52 403.124L509.628 403.07C509.801 403.043 509.957 402.948 510.059 402.805C510.16 402.663 510.2 402.485 510.169 402.312C509.628 398.634 508.979 395.064 508.168 391.494C508.086 391.125 507.728 390.886 507.356 390.953C507.009 391.057 506.798 391.409 506.869 391.764C507.627 395.551 508.276 399.121 508.817 402.583ZM70.2274 411.075C69.9238 411.085 69.6541 410.883 69.5783 410.589V410.048C68.6587 406.532 67.7392 403.016 66.8737 399.229C66.8327 398.863 67.061 398.521 67.4146 398.418C67.7656 398.37 68.1027 398.572 68.226 398.904C69.0915 402.421 69.957 405.937 70.8766 409.399V409.94C70.9805 410.313 70.7628 410.7 70.3897 410.805L70.2274 411.075ZM510.71 424.112C510.71 424.471 511.001 424.761 511.359 424.761L511.413 424.707C511.78 424.679 512.063 424.372 512.062 424.004C512.037 422.333 511.916 420.637 511.795 418.941V418.94V418.94V418.939V418.938V418.938V418.937V418.937V418.936V418.936V418.935V418.935V418.934V418.933V418.933V418.932V418.932V418.931V418.931V418.93V418.93V418.929V418.929V418.928V418.927V418.927V418.926V418.926V418.925V418.925V418.924V418.924V418.923V418.922V418.922V418.921V418.921V418.92V418.92L511.795 418.919C511.658 416.999 511.521 415.077 511.521 413.185C511.508 412.999 511.42 412.825 511.278 412.703C511.136 412.581 510.951 412.521 510.764 412.536C510.581 412.549 510.412 412.638 510.298 412.783C510.185 412.927 510.138 413.113 510.169 413.293C510.44 416.918 510.71 420.542 510.71 424.112ZM75.9613 431.902C75.6775 431.902 75.4214 431.731 75.3122 431.469C74.2844 428.007 73.2567 424.491 72.283 421.029C72.2341 420.857 72.2587 420.672 72.3509 420.518C72.4431 420.364 72.5947 420.256 72.7698 420.218C72.9348 420.167 73.1131 420.184 73.2654 420.266C73.4176 420.347 73.5313 420.485 73.5812 420.65C74.5549 424.166 75.5827 427.628 76.6105 431.036C76.7192 431.394 76.5291 431.774 76.1777 431.902H75.9613ZM509.543 446.242C509.658 446.379 509.828 446.456 510.007 446.453L510.223 446.399C510.51 446.333 510.726 446.096 510.764 445.804C510.845 445.05 510.934 444.291 511.023 443.527L511.023 443.526L511.023 443.526L511.023 443.525L511.024 443.525L511.024 443.524L511.024 443.523C511.35 440.728 511.684 437.873 511.684 434.985C511.662 434.627 511.39 434.333 511.035 434.282C510.853 434.267 510.674 434.329 510.54 434.452C510.407 434.575 510.331 434.749 510.331 434.931C510.115 438.61 509.79 442.234 509.412 445.75C509.379 445.925 509.427 446.106 509.543 446.242ZM82.6689 452.565C82.3765 452.542 82.1237 452.353 82.0198 452.079L82.0193 452.077L82.0192 452.077C80.8835 448.669 79.7477 445.262 78.666 441.801C78.6371 441.476 78.8349 441.174 79.1441 441.071C79.4532 440.968 79.7927 441.091 79.9643 441.368C81.0459 444.829 82.1817 448.237 83.3175 451.644L83.3176 451.644L83.3181 451.646C83.3861 451.818 83.3778 452.01 83.2952 452.175C83.2126 452.341 83.0635 452.463 82.8853 452.511L82.6689 452.565ZM505.842 466.738C505.775 467.11 506.013 467.468 506.382 467.549L506.707 468.036C506.931 467.979 507.117 467.824 507.212 467.613C507.307 467.402 507.3 467.16 507.194 466.954C507.951 463.222 508.654 459.652 509.195 456.136C509.227 455.963 509.187 455.785 509.085 455.643C508.983 455.5 508.828 455.405 508.654 455.378C508.283 455.311 507.924 455.55 507.843 455.919C507.302 459.598 506.599 463.168 505.842 466.738ZM89.5929 472.959C89.309 472.959 89.053 472.788 88.9438 472.526C87.6996 469.172 86.4555 465.764 85.2654 462.356C85.131 462.013 85.3005 461.625 85.6441 461.491C85.9876 461.356 86.3751 461.526 86.5096 461.869C86.9243 463.005 87.333 464.142 87.7418 465.278L87.742 465.278C88.5593 467.55 89.3766 469.821 90.242 472.093C90.3507 472.451 90.1606 472.831 89.8093 472.959H89.5929ZM500.27 487.726C500.161 488.084 500.351 488.464 500.703 488.591H500.919C501.203 488.591 501.459 488.421 501.568 488.159C502.704 484.751 503.786 481.235 504.76 477.773C504.849 477.414 504.631 477.051 504.273 476.961C503.914 476.872 503.551 477.09 503.461 477.448C502.488 480.856 501.46 484.318 500.27 487.726ZM97.5987 493.136C97.3389 493.153 97.0978 493 97.0037 492.757C95.5973 489.403 94.2449 486.05 92.9467 482.696C92.8577 482.526 92.8485 482.325 92.9216 482.148C92.9947 481.97 93.1425 481.834 93.3253 481.776C93.683 481.667 94.0632 481.858 94.1908 482.209C95.4891 485.563 96.8414 488.917 98.2478 492.216C98.3688 492.574 98.2072 492.967 97.8692 493.136H97.5987ZM492.156 507.686C492 508.03 492.143 508.437 492.481 508.606C492.825 508.763 493.231 508.619 493.4 508.282C494.969 505.09 496.429 501.736 497.836 498.382C497.951 498.039 497.787 497.665 497.457 497.517C497.3 497.444 497.119 497.437 496.957 497.498C496.794 497.559 496.662 497.683 496.592 497.841C495.185 501.195 493.725 504.495 492.156 507.686ZM106.362 513.042C106.106 513.043 105.873 512.895 105.767 512.663C104.252 509.363 102.792 506.063 101.331 502.71C101.258 502.552 101.251 502.372 101.312 502.209C101.373 502.046 101.497 501.915 101.656 501.844C101.826 501.755 102.026 501.746 102.204 501.819C102.381 501.892 102.517 502.04 102.575 502.223C103.679 504.813 104.85 507.403 106.009 509.966C106.326 510.669 106.643 511.37 106.957 512.068C107.113 512.412 106.97 512.818 106.632 512.987L106.362 513.042ZM481.608 527.484H481.932L482.04 527.538C482.324 527.601 482.618 527.496 482.798 527.268C483.624 525.822 484.487 524.352 485.358 522.868C486.311 521.244 487.274 519.604 488.207 517.964C488.414 517.75 488.464 517.43 488.333 517.164C488.201 516.898 487.917 516.742 487.622 516.776C487.327 516.81 487.085 517.026 487.017 517.315C485.394 520.452 483.555 523.535 481.608 526.565C481.486 526.687 481.417 526.852 481.417 527.025C481.417 527.197 481.486 527.363 481.608 527.484ZM115.774 532.569C115.519 532.571 115.286 532.423 115.179 532.19C113.502 528.945 111.879 525.645 110.365 522.453C110.292 522.296 110.285 522.115 110.346 521.953C110.407 521.79 110.531 521.659 110.689 521.588C110.936 521.367 111.308 521.367 111.555 521.588L116.369 531.325C116.534 531.655 116.416 532.056 116.099 532.244L115.774 532.569ZM468.788 544.956H469.22H469.329C469.435 544.986 469.547 544.986 469.653 544.956C471.979 542.143 474.197 539.222 476.307 536.355C476.429 536.233 476.498 536.068 476.498 535.895C476.498 535.723 476.429 535.557 476.307 535.436C476.185 535.313 476.019 535.245 475.847 535.245C475.674 535.245 475.509 535.313 475.387 535.436C473.662 538.001 471.864 540.205 470.024 542.461L470.024 542.462C469.614 542.965 469.202 543.47 468.788 543.982C468.527 544.254 468.527 544.684 468.788 544.956ZM126.052 551.664C125.811 551.665 125.586 551.543 125.457 551.34L125.048 550.611C123.445 547.755 121.792 544.81 120.047 541.819C119.975 541.511 120.118 541.193 120.395 541.042C120.673 540.89 121.018 540.943 121.238 541.17C122.969 544.416 124.754 547.607 126.647 550.636C126.875 550.901 126.875 551.292 126.647 551.556L126.052 551.664ZM454.182 560.968C454.319 561.036 454.479 561.036 454.615 560.968C454.742 561.055 454.895 561.093 455.048 561.077C457.431 558.842 459.769 556.289 461.978 553.876L461.987 553.866C462.181 553.654 462.375 553.443 462.567 553.233C462.828 552.961 462.828 552.531 462.567 552.259C462.445 552.137 462.28 552.069 462.107 552.069C461.935 552.069 461.769 552.137 461.647 552.259C460.347 553.56 458.997 554.99 457.626 556.443L457.625 556.444L457.625 556.445L457.624 556.446L457.623 556.446L457.623 556.447L457.622 556.448L457.614 556.456L457.607 556.464L457.607 556.464C456.475 557.663 455.329 558.878 454.182 560.049C454.045 560.162 453.965 560.331 453.965 560.509C453.965 560.687 454.045 560.855 454.182 560.968ZM137.195 570.165C136.957 570.156 136.736 570.036 136.6 569.84C134.707 566.865 132.759 563.727 130.866 560.644C130.638 560.38 130.638 559.989 130.866 559.725C130.988 559.602 131.153 559.534 131.326 559.534C131.498 559.534 131.664 559.602 131.786 559.725C133.335 562.322 134.962 564.92 136.568 567.486C136.868 567.965 137.167 568.444 137.466 568.92C137.694 569.185 137.694 569.576 137.466 569.84L137.195 570.165ZM438.008 575.303C438.143 575.465 438.339 575.562 438.549 575.574L438.712 575.52C438.774 575.475 438.829 575.42 438.874 575.357L447.096 568.271C447.357 567.999 447.357 567.569 447.096 567.297C446.974 567.175 446.809 567.106 446.636 567.106C446.464 567.106 446.298 567.175 446.177 567.297C445.104 568.223 444.047 569.149 442.994 570.071L442.988 570.077L442.986 570.078C441.335 571.525 439.692 572.964 438.008 574.384C437.886 574.505 437.818 574.671 437.818 574.843C437.818 575.016 437.886 575.181 438.008 575.303ZM149.42 588.177C149.196 588.17 148.991 588.047 148.879 587.853C146.77 585.04 144.66 582.065 142.604 579.036C142.368 578.754 142.368 578.343 142.604 578.062C142.877 577.801 143.306 577.801 143.578 578.062C145.634 581.037 147.743 584.012 149.799 586.879C149.921 587.001 149.99 587.166 149.99 587.339C149.99 587.511 149.921 587.677 149.799 587.799C149.759 587.925 149.684 588.038 149.582 588.123L149.42 588.177ZM420.807 588.719C420.978 588.798 421.176 588.798 421.348 588.719L421.51 588.665C421.561 588.691 421.616 588.71 421.672 588.719C424.701 586.609 427.623 584.446 430.435 582.282C430.558 582.16 430.626 581.995 430.626 581.822C430.626 581.65 430.558 581.484 430.435 581.362C430.314 581.24 430.148 581.171 429.976 581.171C429.803 581.171 429.638 581.24 429.516 581.362C426.985 583.309 424.366 585.212 421.699 587.151L420.807 587.799C420.685 587.921 420.616 588.087 420.616 588.259C420.616 588.432 420.685 588.597 420.807 588.719ZM403.226 600.673C402.999 600.677 402.789 600.551 402.686 600.349C402.563 600.227 402.495 600.061 402.495 599.889C402.495 599.716 402.563 599.551 402.686 599.429C405.823 597.482 408.906 595.534 411.827 593.587C411.949 593.465 412.115 593.396 412.287 593.396C412.46 593.396 412.625 593.465 412.747 593.587C412.869 593.709 412.938 593.874 412.938 594.047C412.938 594.219 412.869 594.385 412.747 594.507C409.826 596.454 406.743 598.401 403.605 600.349L403.226 600.673ZM162.349 605.163C162.523 605.23 162.715 605.23 162.889 605.163L163.376 605.271C163.637 604.999 163.637 604.57 163.376 604.298C162.167 602.742 160.942 601.294 159.718 599.847L159.717 599.847L159.716 599.846L159.716 599.845L159.715 599.845L159.715 599.844L159.714 599.844L159.714 599.843L159.713 599.842L159.713 599.842L159.712 599.841L159.712 599.84L159.711 599.84L159.711 599.839L159.71 599.838L159.709 599.838L159.709 599.837L159.708 599.836L159.708 599.836L159.707 599.835L159.707 599.835L159.706 599.834L159.706 599.833L159.705 599.833L159.705 599.832L159.704 599.831L159.704 599.831L159.703 599.83L159.703 599.829L159.702 599.829L159.702 599.828L159.701 599.827L159.701 599.827L159.7 599.826L159.699 599.826L159.699 599.825L159.698 599.824L159.698 599.824L159.697 599.823L159.697 599.822L159.696 599.822L159.696 599.821L159.695 599.82L159.695 599.82L159.694 599.819L159.694 599.819L159.693 599.818L159.693 599.817L159.692 599.817L159.692 599.816L159.691 599.815L159.691 599.815L159.69 599.814L159.689 599.813L159.689 599.813L159.688 599.812L159.688 599.811L159.687 599.811L159.687 599.81L159.686 599.81C158.622 598.552 157.558 597.295 156.506 595.967C156.282 595.683 155.871 595.635 155.587 595.859C155.303 596.083 155.255 596.495 155.479 596.779C157.751 599.754 160.023 602.513 162.349 605.163ZM384.672 611.546C384.424 611.525 384.201 611.384 384.077 611.167C383.912 610.837 384.03 610.436 384.348 610.248C387.539 608.517 390.731 606.732 393.76 604.838C394.024 604.61 394.416 604.61 394.68 604.838C394.802 604.96 394.871 605.126 394.871 605.298C394.871 605.471 394.802 605.636 394.68 605.758L385.213 611.167L384.672 611.546ZM177.386 620.959C177.526 621.013 177.68 621.013 177.819 620.959V620.905C177.972 620.982 178.153 620.982 178.306 620.905C178.444 620.792 178.523 620.623 178.523 620.445C178.523 620.267 178.444 620.098 178.306 619.985C175.818 617.659 173.275 614.954 170.733 612.25C170.461 611.989 170.031 611.989 169.759 612.25C169.622 612.363 169.542 612.531 169.542 612.709C169.542 612.887 169.622 613.056 169.759 613.169C172.32 615.874 174.862 618.47 177.386 620.959ZM365.415 621.499C365.16 621.501 364.927 621.352 364.82 621.12C364.729 620.957 364.712 620.763 364.774 620.587C364.837 620.411 364.971 620.27 365.145 620.2L374.773 615.332C374.987 615.125 375.307 615.075 375.573 615.207C375.84 615.338 375.995 615.622 375.961 615.917C375.927 616.212 375.712 616.454 375.422 616.522C372.177 618.199 368.985 619.822 365.686 621.39L365.415 621.499ZM345.184 630.262C345.274 630.516 345.51 630.688 345.779 630.695L346.05 630.641L355.895 626.097C356.188 626.054 356.423 625.833 356.483 625.542C356.543 625.252 356.414 624.955 356.161 624.801C355.908 624.646 355.585 624.667 355.354 624.853C353.049 625.967 350.716 627.026 348.376 628.089L348.373 628.091L348.363 628.095C347.412 628.527 346.461 628.96 345.509 629.397C345.35 629.467 345.226 629.599 345.165 629.761C345.104 629.924 345.111 630.104 345.184 630.262ZM194.318 635.131C194.195 635.172 194.062 635.172 193.939 635.131C192.269 633.846 190.675 632.523 189.022 631.151L189.02 631.15C187.89 630.211 186.731 629.249 185.5 628.261C185.217 628.022 185.18 627.598 185.419 627.314C185.658 627.03 186.082 626.994 186.366 627.233L186.972 627.757L186.973 627.757L186.974 627.758C189.517 629.954 191.994 632.094 194.75 634.049C194.89 634.172 194.97 634.349 194.97 634.535C194.97 634.722 194.89 634.899 194.75 635.022C194.587 635.119 194.389 635.138 194.21 635.076L194.318 635.131ZM325.386 638.864C325.48 639.107 325.721 639.26 325.981 639.243L326.252 639.189C329.605 637.836 332.905 636.43 336.259 634.969C336.418 634.899 336.541 634.767 336.602 634.604C336.663 634.442 336.656 634.261 336.583 634.104C336.419 633.791 336.059 633.634 335.718 633.725C332.418 635.186 329.064 636.592 325.711 637.944C325.373 638.114 325.23 638.52 325.386 638.864ZM212.385 646.869H212.06C209.21 645.345 206.359 643.643 203.549 641.965L202.702 641.46C202.474 641.196 202.474 640.804 202.702 640.54C202.824 640.418 202.989 640.349 203.162 640.349C203.335 640.349 203.5 640.418 203.622 640.54C206.651 642.542 209.788 644.381 212.872 645.949C213.1 646.213 213.1 646.605 212.872 646.869C212.708 646.91 212.535 646.891 212.385 646.815V646.869ZM305.209 646.923C305.299 647.177 305.535 647.349 305.804 647.356L306.075 647.302L316.136 643.299C316.466 643.151 316.63 642.776 316.515 642.433C316.367 642.103 315.992 641.939 315.649 642.055L305.588 646.057C305.408 646.102 305.259 646.227 305.185 646.397C305.111 646.566 305.12 646.761 305.209 646.923ZM285.573 654.982C285.27 654.992 285 654.79 284.924 654.495C284.815 654.138 285.006 653.758 285.357 653.63C286.926 653.143 288.548 652.548 290.171 651.953L295.581 649.952C295.745 649.882 295.931 649.882 296.095 649.954C296.259 650.026 296.386 650.162 296.446 650.33C296.536 650.492 296.545 650.687 296.47 650.856C296.396 651.026 296.247 651.151 296.067 651.196L290.658 653.251C289.035 653.846 287.358 654.441 285.736 654.928L285.573 654.982ZM222.068 651.575C225.407 653 228.819 654.246 232.291 655.307V655.253C232.633 655.344 232.992 655.187 233.157 654.875C233.261 654.501 233.043 654.114 232.67 654.009C229.252 652.966 225.893 651.738 222.609 650.331C222.25 650.21 221.858 650.371 221.689 650.709C221.574 651.052 221.738 651.427 222.068 651.575ZM264.315 659.095C263.956 659.095 263.665 658.804 263.665 658.445C263.633 658.27 263.681 658.089 263.796 657.953C263.912 657.817 264.082 657.739 264.26 657.742C267.892 657.497 271.505 657.027 275.079 656.336C275.451 656.269 275.809 656.508 275.891 656.877C275.922 657.049 275.882 657.227 275.78 657.37C275.678 657.512 275.523 657.608 275.35 657.634C271.776 658.337 268.163 658.824 264.531 659.095H264.315ZM253.496 659.094C249.867 658.877 246.254 658.443 242.677 657.795C242.492 657.771 242.327 657.667 242.223 657.512C242.12 657.357 242.088 657.164 242.136 656.984C242.163 656.811 242.258 656.656 242.401 656.554C242.543 656.452 242.721 656.412 242.894 656.443C246.471 657.092 250.083 657.525 253.712 657.741C253.894 657.741 254.068 657.816 254.191 657.95C254.315 658.084 254.377 658.263 254.361 658.445C254.351 658.653 254.248 658.847 254.081 658.972C253.914 659.098 253.699 659.142 253.496 659.094ZM411.773 237.922C411.865 237.969 411.967 237.987 412.067 237.978C412.273 238.104 412.537 238.106 412.747 237.976C413.008 237.704 413.008 237.275 412.747 237.003C410.822 234.992 408.659 232.981 406.555 231.023L406.546 231.016C405.993 230.501 405.443 229.99 404.903 229.484C404.631 229.223 404.202 229.223 403.93 229.484C403.808 229.606 403.739 229.771 403.739 229.944C403.739 230.116 403.808 230.282 403.93 230.403C405.537 232.01 407.285 233.665 409.051 235.335C409.959 236.195 410.873 237.058 411.773 237.922ZM362.278 195.568H362.656C362.816 195.569 362.97 195.511 363.089 195.406C363.211 195.284 363.28 195.118 363.28 194.946C363.28 194.773 363.211 194.608 363.089 194.486C360.168 192.322 357.247 190.159 354.272 188.049C353.968 187.939 353.628 188.052 353.449 188.321C353.269 188.59 353.297 188.946 353.515 189.185C356.436 191.24 359.411 193.404 362.278 195.568ZM307.86 160.407H307.535C304.362 158.676 301.17 156.999 297.961 155.376C297.769 155.279 297.633 155.099 297.591 154.888C297.548 154.677 297.605 154.458 297.744 154.295C297.824 154.131 297.97 154.008 298.144 153.957C298.319 153.905 298.508 153.93 298.664 154.024C301.801 155.593 305.047 157.324 308.238 159.055C308.361 159.177 308.429 159.342 308.429 159.515C308.429 159.687 308.361 159.853 308.238 159.974C308.206 160.162 308.085 160.323 307.914 160.407H307.86ZM216.604 127.248C220.283 127.789 223.853 128.492 227.423 129.249C227.765 129.317 228.1 129.102 228.18 128.762C228.247 128.391 228.008 128.032 227.639 127.951C223.907 127.14 220.283 126.491 216.821 125.896C216.648 125.864 216.47 125.904 216.328 126.006C216.185 126.108 216.09 126.263 216.063 126.436C215.996 126.808 216.235 127.167 216.604 127.248ZM172.873 125.633C172.997 125.747 173.163 125.802 173.329 125.787H173.275C176.846 125.409 180.47 125.084 184.094 125.084C184.276 125.085 184.45 125.009 184.573 124.875C184.697 124.742 184.758 124.562 184.743 124.381C184.717 124.034 184.441 123.758 184.094 123.732C180.416 123.84 176.791 124.11 173.275 124.489C173.097 124.486 172.927 124.563 172.811 124.7C172.696 124.836 172.648 125.017 172.68 125.192C172.68 125.36 172.75 125.52 172.873 125.633Z" fill="#D8D5DB"/>
<path d="M508.709 428.926C508.709 429.575 508.709 430.116 508.709 430.711C507.356 445.803 494.374 477.989 481.662 506.442C482.095 516.72 482.419 525.916 482.473 533.489C482.473 534.895 482.473 536.194 482.473 537.492H480.905C481.283 544.199 481.77 555.829 482.149 569.19C435.358 597.481 377.37 614.629 317.002 628.693L306.67 631.019C297.696 633.057 288.492 633.894 279.298 633.508C278.745 631.244 278.545 628.908 278.703 626.584C279.982 596.087 283.162 565.699 288.224 535.598L284.87 535.112C297.149 493.676 303.316 433.903 306.507 382.027C306.886 375.915 307.211 369.965 307.481 364.068C299.638 372.074 294.228 377.051 294.228 377.051L277.622 349.734C257.12 364.555 237.755 377.646 228.288 383.704C220.445 391.061 207.084 392.143 196.59 378.295C179.604 356.062 155.641 262.751 152.828 246.902C152.418 246.747 152.034 246.528 151.692 246.253C147.797 240.844 134.166 211.363 135.464 205.629C136.762 199.895 143.145 187.507 150.556 185.831C149.691 183.18 148.717 180.421 147.311 176.581C144.173 168.034 140.441 159.379 146.066 160.353C151.692 161.326 164.566 192.809 166.784 198.218C167.109 195.676 167.433 193.62 167.433 193.62C169.164 188.535 178.252 185.831 176.9 193.62C175.331 204.439 179.117 209.848 178.955 218.773C178.955 219.26 178.955 219.801 178.955 220.559C178.977 220.883 178.977 221.208 178.955 221.532C178.984 221.766 178.984 222.002 178.955 222.235C178.955 222.235 178.955 222.506 178.955 222.614C177.638 229.262 175.303 235.666 172.031 241.601C177.927 260.858 204.974 311.219 220.715 338.969C230.344 330.963 242.353 321.443 254.794 311.922L253.712 310.137C253.712 310.137 317.867 250.148 351.08 245.604C351.567 243.278 351.892 240.735 352.216 238.085C352.541 235.434 352.757 230.944 352.865 227.266C328.469 226.996 326.197 209.037 328.632 186.209L324.791 185.236L330.471 170.522V169.44C329.847 168.714 329.485 167.8 329.443 166.844C329.443 165.059 329.93 163.544 330.904 163.49C331.043 163.436 331.197 163.436 331.336 163.49C331.336 162.192 331.769 160.894 331.931 159.595C332.364 156.728 332.905 154.186 333.446 151.535C331.999 151.251 330.511 151.251 329.064 151.535L328.632 148.885C330.421 148.566 332.252 148.566 334.041 148.885C335.836 141.632 338.737 134.699 342.642 128.329C334.852 127.788 331.174 125.246 336.583 118.971C344.968 109.234 384.672 104.366 404.687 108.477C411.719 109.938 416.317 112.48 416.371 116.266C416.371 116.699 416.371 116.97 416.371 117.348C418.418 116.482 420.18 115.057 421.456 113.237L423.728 114.752C422.422 116.599 420.722 118.132 418.751 119.242L417.94 119.674C439.361 133.63 409.069 208.388 408.96 208.388C408.365 221.208 407.987 233.866 408.041 242.791C427.298 245.009 439.469 250.634 447.529 259.452C469.166 276.816 502.38 348.057 502.38 348.057L488.802 351.627C498.485 382.676 506.707 413.834 509.087 424.274C509.158 425.835 509.031 427.398 508.709 428.926Z" fill="#D1CDD3"/>
<rect opacity="0.3" x="408.419" y="309.002" width="362.047" height="282.638" rx="36.3508" transform="rotate(180 408.419 309.002)" fill="#4D8DFF"/>
<path opacity="0.3" fill-rule="evenodd" clip-rule="evenodd" d="M43.9381 334.588H384.294C395.799 334.588 406.831 330.007 414.951 321.856C423.071 313.705 427.612 302.656 427.568 291.151V44.2147C427.568 20.3147 408.194 0.939941 384.294 0.939941H43.9381C20.0381 0.939941 0.66333 20.3147 0.66333 44.2147V291.313C0.66333 315.213 20.0381 334.588 43.9381 334.588ZM1.85338 44.2145C1.88318 20.9841 20.7077 2.15963 43.938 2.12983H384.294C407.524 2.15963 426.349 20.9841 426.378 44.2145V291.151C426.349 314.381 407.524 333.206 384.294 333.236H43.938C20.7077 333.206 1.88318 314.381 1.85338 291.151V44.2145Z" fill="#4D8DFF"/>
<g opacity="0.3">
<rect x="136.87" y="110.101" width="60.4764" height="47.2235" rx="6.05846" transform="rotate(180 136.87 110.101)" fill="#4D8DFF"/>
<rect x="217.361" y="110.101" width="60.4764" height="47.2235" rx="6.05846" transform="rotate(180 217.361 110.101)" fill="#4D8DFF"/>
<rect x="297.907" y="110.101" width="60.4764" height="47.2235" rx="6.05846" transform="rotate(180 297.907 110.101)" fill="#4D8DFF"/>
<rect x="378.452" y="110.101" width="60.4764" height="47.2235" rx="6.05846" transform="rotate(180 378.452 110.101)" fill="#4D8DFF"/>
</g>
<g opacity="0.3">
<rect x="136.87" y="191.294" width="60.4764" height="47.2235" rx="6.05846" transform="rotate(180 136.87 191.294)" fill="#4D8DFF"/>
<rect x="217.361" y="191.294" width="60.4764" height="47.2235" rx="6.05846" transform="rotate(180 217.361 191.294)" fill="#4D8DFF"/>
<rect x="297.907" y="191.294" width="60.4764" height="47.2235" rx="6.05846" transform="rotate(180 297.907 191.294)" fill="#4D8DFF"/>
<rect x="378.452" y="191.294" width="60.4764" height="47.2235" rx="6.05846" transform="rotate(180 378.452 191.294)" fill="#4D8DFF"/>
</g>
<g opacity="0.3">
<rect x="136.87" y="272.434" width="60.4764" height="47.2235" rx="6.05846" transform="rotate(180 136.87 272.434)" fill="#4D8DFF"/>
<rect x="217.361" y="272.434" width="60.4764" height="47.2235" rx="6.05846" transform="rotate(180 217.361 272.434)" fill="#4D8DFF"/>
<rect x="297.907" y="272.434" width="60.4764" height="47.2235" rx="6.05846" transform="rotate(180 297.907 272.434)" fill="#4D8DFF"/>
<rect x="378.452" y="272.434" width="60.4764" height="47.2235" rx="6.05846" transform="rotate(180 378.452 272.434)" fill="#4D8DFF"/>
</g>
<rect x="305.588" y="102.419" width="60.4764" height="47.2235" rx="6.05846" transform="rotate(180 305.588 102.419)" fill="#4D8DFF"/>
<rect x="305.588" y="264.753" width="60.4764" height="47.2235" rx="6.05846" transform="rotate(180 305.588 264.753)" fill="#FF4E4A"/>
<rect x="144.498" y="183.613" width="60.4764" height="47.2235" rx="6.05846" transform="rotate(180 144.498 183.613)" fill="#FFC84D"/>
<path d="M450.666 161.706C448.827 173.498 445.257 237.436 446.718 252.042C448.178 266.647 376.396 271.082 385.971 254.8C395.545 238.518 388.729 184.479 388.729 184.479L450.666 161.706Z" fill="#FFAD69"/>
<path d="M445.69 163.544L388.729 184.37C390.862 202.192 391.369 220.171 390.244 238.085C413.721 228.402 408.528 208.712 408.528 198.11C408.528 188.481 445.744 165.384 445.69 163.544Z" fill="#D88344"/>
<path d="M370.608 165.979L361.737 184.911L372.555 189.293L370.608 165.979Z" fill="#D88344"/>
<path d="M370.446 159.703C365.036 196.108 356.165 232.405 400.305 226.4C444.446 220.396 451.261 163.922 451.153 153.212C450.45 96.3055 380.832 88.1915 370.446 159.703Z" fill="#FFAD69"/>
<path d="M456.508 119.891C458.788 118.713 460.768 117.029 462.296 114.968L460.024 113.454C458.644 115.306 456.769 116.731 454.615 117.565C454.644 117.187 454.644 116.807 454.615 116.429C454.615 101.716 386.133 105.935 374.827 119.08C368.12 126.869 375.26 128.925 386.836 128.546C385.977 129.207 385.336 130.112 384.997 131.142C377.37 168.521 413.396 205.304 417.453 208.442H446.88C446.88 208.442 477.713 133.631 456.508 119.891Z" fill="#232323"/>
<path d="M547.385 424.329C543.491 406.965 523.206 331.829 507.086 295.803L465.921 304.566C465.921 304.566 492.481 393.387 506.599 426.547C503.299 444.397 486.638 527.431 476.361 550.637C471.817 561.455 489.019 565.621 493.184 560.428C497.349 555.235 544.627 460.247 547.277 430.604C547.277 429.954 547.277 429.413 547.277 428.818C547.547 427.337 547.584 425.822 547.385 424.329Z" fill="#FFAD69"/>
<path d="M485.557 259.182C507.194 276.113 540.678 348.111 540.678 348.111L469.815 366.503C469.815 366.503 428.596 214.609 485.557 259.182Z" fill="#E5AA33"/>
<path d="M519.527 542.09C507.977 552.275 495.478 561.332 482.203 569.137C435.412 597.428 377.424 614.575 317.056 628.64C317.002 627.937 317.002 627.232 317.056 626.53C319.003 593.046 322.465 554.802 327.874 530.514L482.636 533.597L519.203 534.355C519.203 536.194 519.527 538.79 519.527 542.09Z" fill="#232323"/>
<path d="M433.735 241.926C476.198 243.332 490.587 257.667 497.89 282.496C506.22 310.624 520.88 480.748 520.88 537.546C520.88 537.546 393.706 546.58 323.276 535.004C345.347 460.409 347.727 326.311 348.213 286.174C348.538 256.369 379.858 240.141 433.735 241.926Z" fill="#FFC84D"/>
<path fill-rule="evenodd" clip-rule="evenodd" d="M438.982 271.136C439.743 272.164 440.949 272.767 442.228 272.759L442.877 272.542C444.328 272.359 445.568 271.408 446.122 270.054L452.289 254.692C452.701 253.457 452.503 252.1 451.757 251.034C451.011 249.968 449.803 249.318 448.503 249.282H430.814C429.277 249.282 427.873 250.15 427.185 251.525C426.498 252.899 426.646 254.544 427.568 255.773L438.982 271.136ZM429.462 252.744C429.693 252.271 430.179 251.975 430.706 251.987H448.34C448.795 251.982 449.222 252.205 449.476 252.582C449.72 252.98 449.72 253.482 449.476 253.88L443.31 269.189C443.146 269.661 442.725 269.998 442.228 270.054C441.746 270.11 441.271 269.903 440.984 269.513L429.462 254.151C429.186 253.722 429.186 253.172 429.462 252.744Z" fill="white"/>
<path d="M348.051 296.073C347.727 315.709 346.969 347.029 344.86 382.027C362.873 360.39 380.561 334.804 381.589 315.6C383.05 289.203 368.066 287.58 348.051 296.073Z" fill="#E5AA33"/>
<path d="M372.015 305.214L350.377 269.242C350.377 269.242 290.874 312.138 258.905 338.698C243.11 310.894 216.117 260.533 210.221 241.33C213.482 235.415 215.8 229.027 217.091 222.397C217.123 222.273 217.123 222.143 217.091 222.019C217.091 222.019 217.091 221.532 217.091 221.315C217.115 220.991 217.115 220.666 217.091 220.342C217.091 219.584 217.091 218.989 217.091 218.503C217.091 209.793 213.467 204.438 215.035 193.403C216.117 185.668 207.3 188.318 205.569 193.403L204.866 197.947C202.648 192.538 189.287 160.785 184.202 160.082C179.117 159.378 182.309 167.925 185.446 176.31C186.799 180.042 187.826 182.963 188.692 185.56C181.227 187.291 174.628 200.057 173.6 205.412C172.572 210.767 186.096 240.627 189.828 246.036C190.117 246.398 190.464 246.708 190.856 246.956C193.614 262.859 217.902 356.116 234.563 378.403C245.057 392.196 258.472 391.115 266.316 383.812C285.573 371.533 344.751 330.855 372.015 305.214Z" fill="#FFAD69"/>
<path d="M408.528 269.243C406.364 308.948 332.797 377.051 332.797 377.051L291.794 309.975C291.794 309.975 412.531 197.028 408.528 269.243Z" fill="#FFC84D"/>
<path d="M385.808 170.956C384.186 180.476 381.805 189.943 390.731 189.239C399.656 188.536 401.928 173.715 402.09 170.902C402.848 155.756 389 152.131 385.808 170.956Z" fill="#FFAD69"/>
</svg>
