<svg width="407" height="431" viewBox="0 0 407 431" fill="none" xmlns="http://www.w3.org/2000/svg">
<path d="M361.695 6.14874C383.221 7.47226 400.276 24.6866 401.512 46.2177C408.652 170.645 408.353 255.352 401.168 385.638C400.072 405.497 385.444 421.774 365.656 423.785C334.795 426.923 282.182 430.643 205.901 430.695C126.439 430.749 71.978 426.693 41.1732 423.448C22.8654 421.52 8.92106 407.314 7.15913 388.99C4.03328 356.48 -0.0232674 297.988 8.22198e-05 213.512C0.0218752 134.628 3.85345 76.7675 6.92615 43.0256C8.76172 22.8687 25.0582 7.57097 45.2585 6.29967C85.718 3.75337 153.503 0.0167366 203.11 4.85227e-05C252.635 -0.0166123 320.189 3.59678 361.695 6.14874Z" fill="#E3E0F3"/>
</svg>
