<svg width="50" height="50" viewBox="0 0 50 50" fill="none" xmlns="http://www.w3.org/2000/svg">
<g clip-path="url(#clip0_63_276)">
<path d="M30.1684 46.2636C30.8923 46.8586 31.717 49.8661 31.717 49.8661C31.717 49.8661 29.1353 50.0726 28.4117 49.4779C28.2395 49.3365 28.0918 49.1548 27.9768 48.9434C27.8619 48.7319 27.7821 48.4947 27.7419 48.2454C27.7018 47.9961 27.702 47.7395 27.7427 47.4903C27.7834 47.2411 27.8638 47.0042 27.9792 46.7931C28.0945 46.582 28.2427 46.4008 28.4152 46.2599C28.5877 46.1191 28.7811 46.0213 28.9844 45.9721C29.1877 45.9229 29.3969 45.9234 29.6001 45.9734C29.8032 46.0234 29.9964 46.122 30.1684 46.2636V46.2636Z" fill="#F1F1F1"/>
<path d="M31.7464 49.8434L31.7059 49.8829C30.2306 47.613 28.0044 46.829 27.9821 46.8213L27.996 46.7603C28.0185 46.768 30.2604 47.557 31.7464 49.8434Z" fill="white"/>
<path d="M34.0396 45.0637C33.9935 46.5417 31.7026 49.9169 31.7026 49.9169C31.7026 49.9169 29.6301 46.3357 29.6761 44.8582C29.6984 44.1486 29.9495 43.4788 30.3744 42.9963C30.7993 42.5137 31.363 42.2579 31.9416 42.2852C32.5203 42.3124 33.0664 42.6205 33.4598 43.1416C33.8533 43.6626 34.0618 44.3541 34.0396 45.0637V45.0637Z" fill="#F1F1F1"/>
<path d="M31.7457 49.9428L31.6783 49.9131C32.7882 46.1332 31.9254 42.3467 31.9165 42.3089L31.9853 42.2847C31.9942 42.3227 32.8636 46.1355 31.7457 49.9428Z" fill="white"/>
<path d="M25.8138 36.6542H6.17976C5.82997 36.6537 5.49462 36.4831 5.24728 36.1797C4.99994 35.8764 4.86081 35.4651 4.86041 35.0361V7.51707C4.86081 7.08806 4.99994 6.67676 5.24728 6.37341C5.49462 6.07005 5.82997 5.89941 6.17976 5.89893H25.8138C26.1636 5.89941 26.4989 6.07005 26.7462 6.3734C26.9936 6.67676 27.1327 7.08806 27.1331 7.51707V35.0361C27.1327 35.4651 26.9936 35.8764 26.7462 36.1798C26.4989 36.4831 26.1636 36.6537 25.8138 36.6542V36.6542Z" fill="#E6E6E6"/>
<path d="M24.8963 35.3056H7.09722C6.78664 35.3052 6.48889 35.1537 6.26928 34.8843C6.04967 34.615 5.92613 34.2498 5.92578 33.8689V8.68429C5.92613 8.30338 6.04967 7.93819 6.26928 7.66884C6.48889 7.3995 6.78664 7.24799 7.09722 7.24756H24.8963C25.2069 7.24799 25.5047 7.3995 25.7243 7.66884C25.9439 7.93819 26.0674 8.30338 26.0678 8.68429V33.8689C26.0674 34.2498 25.9439 34.615 25.7243 34.8843C25.5047 35.1537 25.2069 35.3052 24.8963 35.3056V35.3056Z" fill="white"/>
<path d="M24.1882 10.8321H15.2091C15.1706 10.8321 15.1325 10.8229 15.0969 10.8049C15.0613 10.7869 15.029 10.7604 15.0018 10.7271C14.9745 10.6937 14.9529 10.6541 14.9382 10.6105C14.9234 10.5669 14.9158 10.5201 14.9158 10.4729C14.9158 10.4257 14.9234 10.379 14.9382 10.3354C14.9529 10.2918 14.9745 10.2521 15.0018 10.2188C15.029 10.1854 15.0613 10.159 15.0969 10.141C15.1325 10.1229 15.1706 10.1137 15.2091 10.1138H24.1882C24.2267 10.1137 24.2648 10.1229 24.3004 10.141C24.336 10.159 24.3683 10.1854 24.3956 10.2188C24.4228 10.2521 24.4444 10.2918 24.4591 10.3354C24.4739 10.379 24.4815 10.4257 24.4815 10.4729C24.4815 10.5201 24.4739 10.5669 24.4591 10.6105C24.4444 10.6541 24.4228 10.6937 24.3956 10.7271C24.3683 10.7604 24.336 10.7869 24.3004 10.8049C24.2648 10.8229 24.2267 10.8321 24.1882 10.8321V10.8321Z" fill="#E4E4E4"/>
<path d="M24.1882 12.2511H15.2091C15.1314 12.2511 15.0569 12.2132 15.002 12.1459C14.9471 12.0785 14.9162 11.9871 14.9162 11.8919C14.9162 11.7966 14.9471 11.7053 15.002 11.6379C15.0569 11.5706 15.1314 11.5327 15.2091 11.5327H24.1882C24.2659 11.5327 24.3404 11.5706 24.3953 11.6379C24.4502 11.7053 24.4811 11.7966 24.4811 11.8919C24.4811 11.9871 24.4502 12.0785 24.3953 12.1459C24.3404 12.2132 24.2659 12.2511 24.1882 12.2511Z" fill="#E4E4E4"/>
<path d="M19.1013 13.6705H15.2091C15.1314 13.6705 15.0569 13.6327 15.002 13.5653C14.9471 13.4979 14.9162 13.4066 14.9162 13.3113C14.9162 13.2161 14.9471 13.1247 15.002 13.0573C15.0569 12.99 15.1314 12.9521 15.2091 12.9521H19.1013C19.179 12.9521 19.2535 12.99 19.3084 13.0573C19.3633 13.1247 19.3942 13.2161 19.3942 13.3113C19.3942 13.4066 19.3633 13.4979 19.3084 13.5653C19.2535 13.6327 19.179 13.6705 19.1013 13.6705Z" fill="#E4E4E4"/>
<path d="M23.1054 19.4024H8.93019C8.8917 19.4025 8.85357 19.3932 8.818 19.3752C8.78242 19.3572 8.75009 19.3307 8.72285 19.2974C8.69561 19.264 8.67401 19.2244 8.65926 19.1808C8.64452 19.1372 8.63693 19.0904 8.63693 19.0432C8.63693 18.996 8.64452 18.9493 8.65926 18.9057C8.67401 18.8621 8.69561 18.8225 8.72285 18.7891C8.75009 18.7557 8.78242 18.7293 8.818 18.7113C8.85357 18.6933 8.8917 18.684 8.93019 18.6841H23.1054C23.1439 18.684 23.1821 18.6933 23.2176 18.7113C23.2532 18.7293 23.2855 18.7557 23.3128 18.7891C23.34 18.8225 23.3616 18.8621 23.3764 18.9057C23.3911 18.9493 23.3987 18.996 23.3987 19.0432C23.3987 19.0904 23.3911 19.1372 23.3764 19.1808C23.3616 19.2244 23.34 19.264 23.3128 19.2974C23.2855 19.3307 23.2532 19.3572 23.2176 19.3752C23.1821 19.3932 23.1439 19.4025 23.1054 19.4024Z" fill="#E4E4E4"/>
<path d="M23.1054 20.8214H8.93018C8.85251 20.8214 8.77803 20.7835 8.7231 20.7162C8.66818 20.6488 8.63733 20.5575 8.63733 20.4622C8.63733 20.3669 8.66818 20.2756 8.7231 20.2082C8.77803 20.1409 8.85251 20.103 8.93018 20.103H23.1054C23.1831 20.103 23.2576 20.1409 23.3125 20.2082C23.3674 20.2756 23.3983 20.3669 23.3983 20.4622C23.3983 20.5575 23.3674 20.6488 23.3125 20.7162C23.2576 20.7835 23.1831 20.8214 23.1054 20.8214V20.8214Z" fill="#E4E4E4"/>
<path d="M23.1054 24.043H8.9302C8.85253 24.043 8.77805 24.0052 8.72313 23.9378C8.66821 23.8705 8.63736 23.7791 8.63736 23.6839C8.63736 23.5886 8.66821 23.4973 8.72313 23.4299C8.77805 23.3625 8.85253 23.3247 8.9302 23.3247H23.1054C23.1831 23.3247 23.2576 23.3625 23.3125 23.4299C23.3674 23.4973 23.3983 23.5886 23.3983 23.6839C23.3983 23.7791 23.3674 23.8705 23.3125 23.9378C23.2576 24.0052 23.1831 24.043 23.1054 24.043Z" fill="#E4E4E4"/>
<path d="M23.1054 25.462H8.93018C8.85251 25.462 8.77803 25.4242 8.7231 25.3568C8.66818 25.2894 8.63733 25.1981 8.63733 25.1028C8.63733 25.0076 8.66818 24.9162 8.7231 24.8489C8.77803 24.7815 8.85251 24.7437 8.93018 24.7437H23.1054C23.1831 24.7437 23.2576 24.7815 23.3125 24.8489C23.3674 24.9162 23.3983 25.0076 23.3983 25.1028C23.3983 25.1981 23.3674 25.2894 23.3125 25.3568C23.2576 25.4242 23.1831 25.462 23.1054 25.462V25.462Z" fill="#E4E4E4"/>
<path d="M23.1054 28.6836H8.9302C8.85253 28.6836 8.77805 28.6458 8.72313 28.5784C8.66821 28.5111 8.63736 28.4197 8.63736 28.3245C8.63736 28.2292 8.66821 28.1379 8.72313 28.0705C8.77805 28.0032 8.85253 27.9653 8.9302 27.9653H23.1054C23.1831 27.9653 23.2576 28.0032 23.3125 28.0705C23.3674 28.1379 23.3983 28.2292 23.3983 28.3245C23.3983 28.4197 23.3674 28.5111 23.3125 28.5784C23.2576 28.6458 23.1831 28.6836 23.1054 28.6836Z" fill="#E4E4E4"/>
<path d="M23.1054 30.1031H8.93018C8.85251 30.1031 8.77803 30.0653 8.7231 29.9979C8.66818 29.9306 8.63733 29.8392 8.63733 29.7439C8.63733 29.6487 8.66818 29.5573 8.7231 29.49C8.77803 29.4226 8.85251 29.3848 8.93018 29.3848H23.1054C23.1831 29.3848 23.2576 29.4226 23.3125 29.49C23.3674 29.5573 23.3983 29.6487 23.3983 29.7439C23.3983 29.8392 23.3674 29.9306 23.3125 29.9979C23.2576 30.0653 23.1831 30.1031 23.1054 30.1031Z" fill="#E4E4E4"/>
<path d="M23.1029 34.0343H19.2107C19.133 34.0343 19.0585 33.9964 19.0036 33.9291C18.9487 33.8617 18.9178 33.7703 18.9178 33.6751C18.9178 33.5798 18.9487 33.4885 19.0036 33.4211C19.0585 33.3538 19.133 33.3159 19.2107 33.3159H23.1029C23.1806 33.3159 23.2551 33.3538 23.31 33.4211C23.3649 33.4885 23.3958 33.5798 23.3958 33.6751C23.3958 33.7703 23.3649 33.8617 23.31 33.9291C23.2551 33.9964 23.1806 34.0343 23.1029 34.0343Z" fill="#8685EF"/>
<path d="M12.7235 11.9337C12.7243 12.7051 12.5114 13.4538 12.1197 14.0573C11.993 14.2537 11.8487 14.4321 11.6897 14.5891C11.2555 15.021 10.725 15.282 10.1678 15.3377C10.092 15.3458 10.0155 15.3494 9.93848 15.3494C9.78581 15.3495 9.63339 15.334 9.48279 15.3033C9.42965 15.293 9.37768 15.2806 9.32571 15.2659C9.23526 15.2412 9.14595 15.2107 9.05814 15.1744C8.77339 15.0581 8.50591 14.8859 8.26617 14.6645C8.20227 14.6059 8.14077 14.5437 8.08104 14.4777C8.00799 14.3983 7.93879 14.3137 7.87378 14.2243C7.85646 14.2009 7.83914 14.1767 7.82243 14.1525C7.531 13.7342 7.32631 13.2357 7.22579 12.6994C7.12527 12.1632 7.13189 11.6051 7.24508 11.0727C7.35828 10.5403 7.5747 10.0493 7.87592 9.64154C8.17714 9.23378 8.55424 8.92134 8.97511 8.7308C9.39599 8.54027 9.84817 8.47729 10.2932 8.54723C10.7381 8.61717 11.1628 8.81795 11.5309 9.13249C11.899 9.44702 12.1996 9.86599 12.4073 10.3537C12.6149 10.8415 12.7234 11.3835 12.7235 11.9337L12.7235 11.9337Z" fill="#E4E4E4"/>
<path d="M9.84155 13.0998C10.4719 13.0998 10.9828 12.4731 10.9828 11.7C10.9828 10.927 10.4719 10.3003 9.84155 10.3003C9.21123 10.3003 8.70026 10.927 8.70026 11.7C8.70026 12.4731 9.21123 13.0998 9.84155 13.0998Z" fill="#9E616A"/>
<path d="M11.1121 11.0173C11.1173 10.8922 11.0885 10.7686 11.0303 10.6657L10.9891 10.5939C10.8404 10.2423 10.5949 9.92588 10.4151 9.69441C10.2801 9.52081 10.1452 9.4373 10.0156 9.44536C9.92123 9.45362 9.83341 9.50734 9.77129 9.59479C9.6006 9.582 9.43058 9.63057 9.28206 9.73452C9.13354 9.83848 9.01297 9.99332 8.93513 10.1801C8.38865 10.5339 8.5517 11.5784 8.55347 11.5894L8.68549 11.8612L8.70043 11.8267C8.70043 11.826 8.7022 11.8231 8.7046 11.8172C8.73029 11.7608 8.87004 11.4473 8.96441 11.2488C8.99885 11.1811 9.04466 11.1232 9.09879 11.0789C9.18718 11.0048 9.28877 10.9578 9.39503 10.9419L9.68529 10.8957L9.5754 11.0979H10.3662L10.6701 11.0539C10.7006 11.207 10.9419 11.8011 10.9712 11.8729L10.9735 11.8788L10.9897 11.919L11.0799 11.6151C11.1325 11.4226 11.1437 11.2166 11.1121 11.0173V11.0173Z" fill="#2F2E41"/>
<path d="M8.27454 14.6723C8.32351 14.5932 8.57735 14.224 9.16146 14.0284L9.47084 13.6057L10.7113 13.3633L11.3426 13.7911L12.1197 14.0577C11.993 14.2541 11.8487 14.4325 11.6896 14.5895C11.2555 15.0215 10.725 15.2824 10.1678 15.3381C10.092 15.3462 10.0155 15.3499 9.93849 15.3499C9.78581 15.3499 9.63339 15.3345 9.48278 15.3037C9.42963 15.2934 9.37767 15.281 9.32571 15.2663C9.23526 15.2417 9.14594 15.2111 9.05814 15.1748C8.7766 15.0601 8.512 14.8904 8.27454 14.6723C8.27155 14.6701 8.26916 14.6672 8.26617 14.665L8.27454 14.6723Z" fill="#8685EF"/>
<path d="M31.8163 1.71324H0.177221C0.130235 1.71318 0.0851879 1.69026 0.0519637 1.64951C0.0187394 1.60876 5.12212e-05 1.55352 0 1.49589V0.217354C5.12212e-05 0.159727 0.0187394 0.104479 0.0519637 0.0637308C0.0851879 0.0229826 0.130235 6.28208e-05 0.177221 0H31.8163C31.8633 6.28208e-05 31.9083 0.0229826 31.9416 0.0637308C31.9748 0.104479 31.9935 0.159727 31.9935 0.217354V1.49589C31.9935 1.55352 31.9748 1.60876 31.9416 1.64951C31.9083 1.69026 31.8633 1.71318 31.8163 1.71324Z" fill="#8685EF"/>
<path d="M1.02848 1.10302C1.16744 1.10302 1.28009 0.964857 1.28009 0.794428C1.28009 0.624 1.16744 0.48584 1.02848 0.48584C0.88952 0.48584 0.776871 0.624 0.776871 0.794428C0.776871 0.964857 0.88952 1.10302 1.02848 1.10302Z" fill="white"/>
<path d="M1.98351 1.10302C2.12247 1.10302 2.23512 0.964857 2.23512 0.794428C2.23512 0.624 2.12247 0.48584 1.98351 0.48584C1.84455 0.48584 1.7319 0.624 1.7319 0.794428C1.7319 0.964857 1.84455 1.10302 1.98351 1.10302Z" fill="white"/>
<path d="M2.93857 1.10302C3.07753 1.10302 3.19018 0.964857 3.19018 0.794428C3.19018 0.624 3.07753 0.48584 2.93857 0.48584C2.79961 0.48584 2.68697 0.624 2.68697 0.794428C2.68697 0.964857 2.79961 1.10302 2.93857 1.10302Z" fill="white"/>
<path d="M30.8806 0.581661H29.7808C29.7594 0.581435 29.7388 0.57081 29.7237 0.552097C29.7086 0.533385 29.7001 0.508101 29.7001 0.481751C29.7001 0.4554 29.7086 0.430116 29.7237 0.411403C29.7388 0.392691 29.7594 0.382065 29.7808 0.38184H30.8806C30.8913 0.381727 30.902 0.384228 30.912 0.389198C30.9219 0.394168 30.931 0.40151 30.9386 0.410799C30.9463 0.420087 30.9523 0.431139 30.9565 0.443317C30.9606 0.455495 30.9628 0.468558 30.9628 0.481751C30.9628 0.494943 30.9606 0.508006 30.9565 0.520183C30.9523 0.532361 30.9463 0.543414 30.9386 0.552702C30.931 0.561991 30.9219 0.569333 30.912 0.574303C30.902 0.579273 30.8913 0.581774 30.8806 0.581661V0.581661Z" fill="white"/>
<path d="M30.8806 0.956661H29.7808C29.7592 0.956661 29.7385 0.946135 29.7232 0.927398C29.708 0.908661 29.6994 0.883248 29.6994 0.85675C29.6994 0.830252 29.708 0.80484 29.7232 0.786103C29.7385 0.767366 29.7592 0.75684 29.7808 0.75684H30.8806C30.8913 0.756727 30.902 0.759227 30.912 0.764198C30.9219 0.769168 30.931 0.776509 30.9386 0.785798C30.9463 0.795087 30.9523 0.806139 30.9565 0.818317C30.9606 0.830495 30.9627 0.843557 30.9627 0.85675C30.9627 0.869943 30.9606 0.883006 30.9565 0.895183C30.9523 0.907361 30.9463 0.918414 30.9386 0.927702C30.931 0.936991 30.9219 0.944333 30.912 0.949303C30.902 0.954273 30.8913 0.956774 30.8806 0.956661V0.956661Z" fill="white"/>
<path d="M30.8806 1.33117H29.7808C29.7594 1.33096 29.7388 1.32034 29.7237 1.30162C29.7085 1.28291 29.7 1.25762 29.7 1.23126C29.7 1.2049 29.7085 1.17961 29.7237 1.1609C29.7388 1.14218 29.7594 1.13156 29.7808 1.13135H30.8806C30.9021 1.13156 30.9226 1.14218 30.9378 1.1609C30.9529 1.17961 30.9614 1.2049 30.9614 1.23126C30.9614 1.25762 30.9529 1.28291 30.9378 1.30162C30.9226 1.32034 30.9021 1.33096 30.8806 1.33117V1.33117Z" fill="white"/>
<path d="M39.5668 34.3821C39.5162 34.3145 39.4782 34.2342 39.4557 34.1467C39.4331 34.0593 39.4265 33.9668 39.4362 33.8759C39.4459 33.7849 39.4718 33.6977 39.512 33.6203C39.5522 33.5429 39.6057 33.4773 39.6688 33.4281L39.2495 31.2583L40.1369 31.6559L40.3991 33.6554C40.4595 33.7909 40.4773 33.9489 40.4491 34.0994C40.4209 34.25 40.3487 34.3826 40.2461 34.4721C40.1435 34.5617 40.0177 34.602 39.8925 34.5854C39.7673 34.5688 39.6514 34.4965 39.5668 34.3821V34.3821Z" fill="#9E616A"/>
<path d="M37.4327 25.2893L37.7889 26.4126C37.7889 26.4126 37.6362 27.5358 37.8906 27.7854C38.145 28.035 38.0433 28.035 38.0433 28.2222C38.052 28.3564 38.0837 28.487 38.1363 28.6052C38.1889 28.7235 38.2612 28.8268 38.3485 28.9086C38.552 29.0958 39.4679 32.9022 39.4679 32.9022H40.3837C40.3541 32.6121 40.3541 32.3187 40.3837 32.0286C40.4345 31.5918 40.231 30.4686 40.1293 30.2814C40.0275 30.0942 40.1293 29.8446 40.1293 29.4702C40.1293 29.0958 39.9258 28.9086 39.9258 28.2846C39.9258 27.6606 39.3152 22.7933 39.3661 22.2317C39.417 21.6701 38.8573 21.1709 38.8573 21.1709H38.3485L37.4327 25.2893Z" fill="#E4E4E4"/>
<path d="M39.7748 49.0213H39.098L38.776 45.8193L39.7749 45.8194L39.7748 49.0213Z" fill="#9E616A"/>
<path d="M39.9474 49.8261L37.765 49.826V49.7921C37.765 49.5158 37.8545 49.2509 38.0138 49.0555C38.1731 48.8601 38.3892 48.7503 38.6145 48.7503H38.6145L39.0132 48.3794L39.757 48.7504L39.9475 48.7504L39.9474 49.8261Z" fill="#2F2E41"/>
<path d="M33.583 48.9978L32.9474 48.7125L33.5419 45.5698L34.48 45.9908L33.583 48.9978Z" fill="#9E616A"/>
<path d="M33.5197 49.826L31.4702 48.9064L31.4796 48.8746C31.557 48.6151 31.7153 48.404 31.9197 48.2876C32.124 48.1712 32.3576 48.1592 32.5692 48.2541L32.5693 48.2541L33.0476 48.0737L33.6422 48.7355L33.8211 48.8158L33.5197 49.826Z" fill="#2F2E41"/>
<path d="M38.2836 34.0486C38.2836 34.0486 37.8257 36.7943 38.5889 36.5447C39.3521 36.2951 39.0468 33.9238 39.0468 33.9238L38.2836 34.0486Z" fill="#A0616A"/>
<path d="M34.9256 31.771C34.9256 31.771 34.3151 32.7694 34.3151 33.331C34.3151 33.8926 34.1116 38.8847 34.1116 38.8847C34.1116 38.8847 32.5668 46.3184 32.8721 46.6928C33.1773 47.0672 34.2458 47.4416 34.3984 47.2544C34.5511 47.0672 35.8923 39.3839 35.8923 39.3839L37.1643 35.203L38.3345 41.1935L38.4363 47.5583C38.4363 47.5583 39.7082 47.9328 39.9626 47.6832C40.217 47.4335 40.2679 41.3807 39.9626 39.2591C39.6574 37.1374 40.0135 32.2702 40.0135 32.2702L34.9256 31.771Z" fill="#2F2E41"/>
<path d="M36.9661 18.4486C37.809 18.4486 38.4924 17.6105 38.4924 16.5766C38.4924 15.5427 37.809 14.7046 36.9661 14.7046C36.1231 14.7046 35.4397 15.5427 35.4397 16.5766C35.4397 17.6105 36.1231 18.4486 36.9661 18.4486Z" fill="#9E616A"/>
<path d="M35.0274 21.1631C35.0274 21.1631 35.4669 20.36 36.3318 19.2992C36.7897 19.112 37.5831 19.2211 37.8582 19.2992C39.1301 21.3584 39.2102 21.2216 39.5413 22.3721C39.6271 22.6705 39.6701 22.9571 39.6319 23.1911C39.4793 24.1271 39.9626 31.7088 40.0135 31.9584C40.0644 32.208 40.4205 32.52 40.0644 32.52C39.7082 32.52 34.3151 32.2704 34.4169 32.0832C34.5186 31.896 35.0274 21.1631 35.0274 21.1631Z" fill="#E4E4E4"/>
<path opacity="0.1" d="M34.7944 32.0008L36.3248 27.8711L35.5596 32.2632L34.7944 32.0008Z" fill="black"/>
<path d="M36.5043 18.3107C36.6472 18.1802 36.7788 18.0321 36.8969 17.8687C37.0156 17.7037 37.0899 17.4979 37.1097 17.2793C37.1183 17.1703 37.1044 17.0604 37.0691 16.9598C37.0338 16.8592 36.9783 16.7712 36.9079 16.704C36.7625 16.578 36.5408 16.5853 36.4201 16.7458C36.4784 16.5147 36.5317 16.2421 36.4136 16.0483C36.3061 15.8719 36.1057 15.8419 35.9325 15.7838C35.5986 15.6697 35.3112 15.4072 35.1266 15.0474L35.4206 15.122L35.3878 14.8649L35.6315 14.9689L35.6337 14.6108L35.8852 14.7833C36.193 14.4372 36.5988 14.2517 37.0163 14.2664C37.2269 14.2707 37.4332 14.3402 37.6161 14.4684C37.7994 14.5984 37.9382 14.8052 38.0069 15.0508C38.1364 14.886 38.3672 14.8988 38.5214 15.0276C38.6756 15.1563 38.7662 15.3718 38.8284 15.5875C38.9516 16.0013 38.9802 16.4484 38.9113 16.8807C38.8403 17.3139 38.65 17.7041 38.3722 17.9855C38.1171 18.2243 37.8134 18.3725 37.4942 18.4139C37.1764 18.4543 36.8555 18.4375 36.5416 18.3639" fill="#2F2E41"/>
<path d="M34.3179 34.3738C34.3685 34.3062 34.4065 34.2259 34.429 34.1384C34.4516 34.051 34.4582 33.9585 34.4485 33.8676C34.4388 33.7766 34.4129 33.6894 34.3727 33.612C34.3325 33.5346 34.279 33.469 34.2159 33.4198L34.6352 31.25L33.7478 31.6476L33.4856 33.6471C33.4252 33.7826 33.4074 33.9406 33.4356 34.0911C33.4638 34.2417 33.536 34.3743 33.6386 34.4638C33.7412 34.5534 33.867 34.5937 33.9922 34.5771C34.1174 34.5605 34.2333 34.4882 34.3179 34.3738V34.3738Z" fill="#9E616A"/>
<path d="M35.5362 21.1631H35.0274C35.0274 21.1631 34.4677 21.6623 34.5186 22.2239C34.5695 22.7855 33.9589 27.6527 33.9589 28.2768C33.9589 28.9008 33.7554 29.088 33.7554 29.4624C33.7554 29.8368 33.8572 30.0864 33.7554 30.2736C33.6537 30.4608 33.4502 31.584 33.501 32.0208C33.5306 32.3109 33.5306 32.6043 33.501 32.8944H34.4169C34.4169 32.8944 35.3327 29.088 35.5362 28.9008C35.6235 28.819 35.6958 28.7157 35.7484 28.5974C35.801 28.4791 35.8327 28.3486 35.8415 28.2144C35.8415 28.0272 35.7397 28.0272 35.9941 27.7775C36.2485 27.5279 36.0959 26.4047 36.0959 26.4047L36.452 25.2815L35.5362 21.1631Z" fill="#E4E4E4"/>
<path d="M49.9289 50.0001H22.0195C22.0101 50.0002 22.0009 49.9979 21.9922 49.9936C21.9836 49.9892 21.9757 49.9828 21.9691 49.9747C21.9625 49.9666 21.9572 49.9569 21.9536 49.9463C21.95 49.9357 21.9482 49.9244 21.9482 49.9129C21.9482 49.9014 21.95 49.8901 21.9536 49.8795C21.9572 49.8689 21.9625 49.8592 21.9691 49.8511C21.9757 49.843 21.9836 49.8366 21.9922 49.8323C22.0009 49.8279 22.0101 49.8257 22.0195 49.8257H49.9289C49.9382 49.8257 49.9475 49.8279 49.9562 49.8323C49.9648 49.8366 49.9727 49.843 49.9793 49.8511C49.9859 49.8592 49.9912 49.8689 49.9948 49.8795C49.9984 49.8901 50.0002 49.9014 50.0002 49.9129C50.0002 49.9244 49.9984 49.9357 49.9948 49.9463C49.9912 49.9569 49.9859 49.9666 49.9793 49.9747C49.9727 49.9828 49.9648 49.9892 49.9562 49.9936C49.9475 49.9979 49.9382 50.0002 49.9289 50.0001V50.0001Z" fill="#CACACA"/>
</g>
<defs>
<clipPath id="clip0_63_276">
<rect width="50" height="50" fill="white"/>
</clipPath>
</defs>
</svg>
