<svg width="50" height="50" viewBox="0 0 50 50" fill="none" xmlns="http://www.w3.org/2000/svg">
<g clip-path="url(#clip0_62_256)">
<path d="M46.5949 49.9431V44.5264C46.5949 44.5264 48.4361 48.3666 46.5949 49.9431Z" fill="#F1F1F1"/>
<path d="M46.7086 49.942L43.2284 46.2788C43.2284 46.2788 46.9409 47.3208 46.7086 49.942Z" fill="#F1F1F1"/>
<path d="M17.6473 9.643H17.4529V3.53509C17.4529 2.59753 17.128 1.69836 16.5498 1.0354C15.9716 0.372447 15.1874 5.95784e-07 14.3696 0H3.08319C2.6783 -1.08165e-06 2.27736 0.0914356 1.90328 0.269089C1.52921 0.446743 1.18931 0.707136 0.903004 1.0354C0.616697 1.36366 0.389586 1.75337 0.234638 2.18226C0.0796892 2.61116 -6.22564e-05 3.07085 -6.29425e-05 3.53508V37.0435C-6.36353e-05 37.9811 0.324777 38.8803 0.902998 39.5432C1.48122 40.2062 2.26545 40.5786 3.08318 40.5786H14.3696C15.1873 40.5786 15.9716 40.2062 16.5498 39.5432C17.128 38.8803 17.4529 37.9811 17.4529 37.0435V13.9907H17.6473V9.643Z" fill="#3F3D56"/>
<path d="M14.494 0.919924H13.0208C13.0885 1.11037 13.1144 1.317 13.0961 1.5216C13.0778 1.72621 13.0159 1.92251 12.9158 2.09322C12.8158 2.26393 12.6806 2.40381 12.5223 2.50053C12.364 2.59725 12.1873 2.64784 12.008 2.64786H5.5421C5.36271 2.64784 5.18607 2.59725 5.02775 2.50053C4.86944 2.40381 4.7343 2.26393 4.63423 2.09322C4.53417 1.92251 4.47226 1.72621 4.45396 1.5216C4.43565 1.31699 4.46151 1.11037 4.52926 0.919922H3.15324C2.85087 0.919921 2.55146 0.988206 2.2721 1.12088C1.99274 1.25355 1.73891 1.448 1.5251 1.69315C1.31129 1.93829 1.14169 2.22932 1.02597 2.54961C0.910259 2.86991 0.850703 3.2132 0.850702 3.55988V37.0192C0.850702 37.3659 0.910258 37.7092 1.02597 38.0294C1.14168 38.3497 1.31129 38.6408 1.5251 38.8859C1.73891 39.1311 1.99274 39.3255 2.2721 39.4582C2.55145 39.5909 2.85086 39.6591 3.15324 39.6591H14.494C15.1047 39.6591 15.6904 39.381 16.1222 38.8859C16.554 38.3908 16.7966 37.7193 16.7966 37.0192V3.55989C16.7966 3.21321 16.737 2.86991 16.6213 2.54962C16.5056 2.22932 16.336 1.93829 16.1222 1.69315C15.9084 1.44801 15.6545 1.25355 15.3752 1.12088C15.0958 0.988208 14.7964 0.919924 14.494 0.919924Z" fill="white"/>
<path d="M8.82364 25.8843C11.8695 25.8843 14.3387 23.0533 14.3387 19.561C14.3387 16.0688 11.8695 13.2378 8.82364 13.2378C5.77777 13.2378 3.30861 16.0688 3.30861 19.561C3.30861 23.0533 5.77777 25.8843 8.82364 25.8843Z" fill="#8685EF"/>
<path d="M10.4579 19.9928L9.0864 21.6125C9.05656 21.6469 9.0209 21.6741 8.9816 21.6922C8.9423 21.7104 8.90018 21.7192 8.85782 21.718H8.85326C8.81081 21.7191 8.76861 21.7103 8.72921 21.6921C8.68981 21.674 8.65403 21.6469 8.62401 21.6125L7.25321 19.9928C7.24865 19.9868 7.24342 19.9816 7.23883 19.9763C7.18412 19.9091 7.15492 19.8196 7.15761 19.7277C7.16031 19.6358 7.19469 19.5488 7.25321 19.4859C7.31581 19.4184 7.39849 19.3809 7.4844 19.3809C7.57032 19.3809 7.653 19.4184 7.7156 19.4859L8.52803 20.4593V17.9494C8.53181 17.8527 8.56797 17.7614 8.62898 17.6945C8.68998 17.6277 8.77114 17.5903 8.85554 17.5903C8.93995 17.5903 9.0211 17.6277 9.08211 17.6945C9.14312 17.7614 9.17927 17.8527 9.18306 17.9494V20.4593L9.99485 19.4859C10.0576 19.4184 10.1404 19.3809 10.2264 19.3809C10.3124 19.3809 10.3951 19.4184 10.4579 19.4859C10.4625 19.4911 10.467 19.4964 10.4723 19.5024C10.5268 19.5697 10.5559 19.6591 10.5532 19.751C10.5505 19.8429 10.5163 19.9298 10.4579 19.9928Z" fill="white"/>
<path d="M38.5487 48.9169L37.748 48.9169L37.3671 45.376L38.5488 45.376L38.5487 48.9169Z" fill="#9F616A"/>
<path d="M38.7529 49.8068L36.1712 49.8067V49.7693C36.1712 49.4637 36.2771 49.1707 36.4655 48.9547C36.654 48.7386 36.9095 48.6172 37.176 48.6172H37.1761L38.7529 48.6173L38.7529 49.8068Z" fill="#2F2E41"/>
<path d="M32.4661 48.8869L31.6925 48.6498L32.1223 45.1162L33.2639 45.4662L32.4661 48.8869Z" fill="#9F616A"/>
<path d="M32.4628 49.8067L29.9688 49.042L29.9772 49.0059C30.0461 48.7107 30.2144 48.459 30.4451 48.306C30.6758 48.1531 30.9501 48.1115 31.2075 48.1905L31.2076 48.1905L32.7309 48.6575L32.4628 49.8067Z" fill="#2F2E41"/>
<path d="M39.0093 29.0732L39.6799 29.9665L38.8126 48.1204H36.9599L36.0258 34.1517L33.1297 48.4951L31.2036 47.9535L32.9549 29.7355L39.0093 29.0732Z" fill="#2F2E41"/>
<path d="M33.4026 17.3528L35.2473 16.292L38.0841 16.3492L40.5253 17.7814L39.1364 25.7346L39.7364 29.8813H39.7364C37.4174 30.5594 34.9896 30.5823 32.6612 29.9481L32.6426 29.943C32.6426 29.943 34.0215 24.3334 33.4345 22.6215L33.4026 17.3528Z" fill="#CBCBCB"/>
<path d="M38.7393 13.114C38.7373 12.4792 38.5157 11.8713 38.1231 11.4237C37.7305 10.9761 37.1991 10.7254 36.6455 10.7266C36.0918 10.7277 35.5612 10.9807 35.1701 11.43C34.779 11.8793 34.5593 12.4881 34.5593 13.1229C34.5593 13.7576 34.779 14.3665 35.1701 14.8157C35.5612 15.265 36.0918 15.518 36.6455 15.5192C37.1991 15.5203 37.7305 15.2696 38.1231 14.822C38.5157 14.3744 38.7373 13.7665 38.7393 13.1317C38.7394 13.1258 38.7394 13.1199 38.7393 13.114Z" fill="#9F616A"/>
<path d="M35.7134 11.7448C35.8217 11.628 35.9643 11.562 36.1129 11.56C36.3362 11.5517 36.6708 11.6426 36.8132 11.8508C36.9276 12.018 36.9331 12.2482 36.9335 12.4608L36.9347 13.0475C36.9351 13.2211 36.9369 13.4021 37.0057 13.5567C37.0745 13.7114 37.2324 13.8288 37.3766 13.7761C37.5477 13.7136 37.623 13.4528 37.7979 13.4059C37.9292 13.3707 38.0641 13.4807 38.1215 13.6207C38.17 13.7657 38.1861 13.9224 38.1683 14.0764C38.1517 14.3836 37.7674 14.5055 37.713 14.8069C37.6815 14.9813 37.5713 15.3291 37.713 15.2562C38.3661 15.1813 38.6527 14.744 38.9516 14.3322L39.6258 13.4037C39.7028 13.3115 39.7619 13.2017 39.7994 13.0815C39.8161 12.9973 39.8221 12.9108 39.8172 12.8246C39.8136 12.5938 39.8081 12.3631 39.8008 12.1324C39.7945 11.9309 39.7503 11.6766 39.5781 11.6352C39.4886 11.6136 39.3701 11.6512 39.3227 11.5614C39.305 11.5164 39.3021 11.4656 39.3146 11.4183C39.3526 11.188 39.4168 10.947 39.3507 10.7252C39.2509 10.3906 38.9075 10.2534 38.6041 10.1902C38.3007 10.1271 37.9601 10.0728 37.7696 9.79473C37.7186 9.70239 37.6633 9.61328 37.604 9.52779C37.5166 9.43672 37.4093 9.37464 37.2935 9.34822C36.9168 9.23893 36.5189 9.27942 36.1649 9.46306C36.0182 9.53985 35.8707 9.64326 35.7097 9.63156C35.5425 9.61941 35.3996 9.48446 35.2345 9.45163C34.9678 9.3986 34.7128 9.62769 34.5814 9.899C34.4186 10.2352 34.4036 10.6955 34.6337 10.9754C34.7484 11.115 34.9197 11.2109 34.9674 11.3948C34.9868 11.4696 34.9823 11.5502 34.9994 11.6258C35.0194 11.701 35.0575 11.7683 35.1094 11.8197C35.1613 11.8712 35.2248 11.9048 35.2926 11.9166C35.4556 11.9471 35.5936 11.8614 35.7134 11.7448Z" fill="#2F2E41"/>
<path d="M33.148 23.1514C33.1877 23.2683 33.2493 23.3738 33.3284 23.4605C33.4075 23.5472 33.5023 23.6129 33.6059 23.6531C33.7096 23.6933 33.8197 23.7069 33.9285 23.693C34.0372 23.6791 34.142 23.638 34.2354 23.5727L37.9811 25.8429L38.1024 24.7967L34.4628 22.336C34.3566 22.1633 34.1989 22.0413 34.0196 21.993C33.8402 21.9448 33.6516 21.9736 33.4895 22.0741C33.3275 22.1746 33.2032 22.3398 33.1403 22.5383C33.0773 22.7369 33.0801 22.955 33.148 23.1514V23.1514Z" fill="#9F616A"/>
<path d="M38.1395 23.3323C38.0784 23.4365 37.9982 23.524 37.9045 23.5887C37.8107 23.6535 37.7057 23.6938 37.5969 23.707C37.4881 23.7202 37.3781 23.7059 37.2746 23.6651C37.1711 23.6242 37.0767 23.5579 36.998 23.4707L32.9099 24.7462L32.9455 23.418L37.0122 22.2069C37.1487 22.065 37.3259 21.9855 37.5101 21.9834C37.6944 21.9813 37.8729 22.0568 38.0118 22.1955C38.1508 22.3343 38.2405 22.5266 38.264 22.7361C38.2876 22.9456 38.2432 23.1578 38.1395 23.3323Z" fill="#9F616A"/>
<path d="M39.7282 17.8385L40.5253 17.7812C40.5253 17.7812 41.4586 19.1931 40.9409 20.7252C40.9409 20.7252 41.0306 26.2287 38.9636 26.0026C36.8966 25.7766 36.2435 25.7766 36.2435 25.7766L36.864 23.7923L38.252 23.3009C38.252 23.3009 37.8242 21.1374 38.6339 20.2372L39.7282 17.8385Z" fill="#CBCBCB"/>
<path d="M33.9725 17.7901L33.8598 17.128C33.8598 17.128 32.1984 17.0832 31.8699 19.9697C31.8699 19.9697 30.3758 24.2897 31.8402 24.8459C33.3047 25.4021 34.9155 24.8459 34.9155 24.8459L34.7942 22.9408L33.1829 22.5638C33.1829 22.5638 34.0152 21.3291 33.562 20.2581L33.9725 17.7901Z" fill="#CBCBCB"/>
<path d="M49.9346 49.9999H25.0522C25.0349 49.9999 25.0182 49.992 25.006 49.9779C24.9937 49.9639 24.9869 49.9448 24.9869 49.925C24.9869 49.9051 24.9937 49.8861 25.006 49.872C25.0182 49.858 25.0349 49.8501 25.0522 49.8501H49.9346C49.952 49.8501 49.9686 49.858 49.9808 49.872C49.9931 49.8861 49.9999 49.9051 49.9999 49.925C49.9999 49.9448 49.9931 49.9639 49.9808 49.9779C49.9686 49.992 49.952 49.9999 49.9346 49.9999Z" fill="#CBCBCB"/>
</g>
<defs>
<clipPath id="clip0_62_256">
<rect width="50" height="50" fill="white"/>
</clipPath>
</defs>
</svg>
