<svg width="50" height="50" viewBox="0 0 50 50" fill="none" xmlns="http://www.w3.org/2000/svg">
<g clip-path="url(#clip0_34_270)">
<path d="M5.23832 16.2938C5.08665 16.2929 4.93911 16.215 4.81705 16.0716L3.80186 14.8964C3.71763 14.7984 3.61603 14.7455 3.51173 14.7455C3.40743 14.7455 3.30584 14.7984 3.22161 14.8964L2.20641 16.0716C2.08398 16.2133 1.93653 16.2896 1.7852 16.2896C1.63386 16.2897 1.48641 16.2133 1.36397 16.0716C1.24153 15.9299 1.15039 15.7301 1.10361 15.5007C1.05683 15.2714 1.05682 15.0244 1.10356 14.795L1.49134 12.8935C1.52376 12.7356 1.52387 12.5653 1.49164 12.4072C1.45942 12.2491 1.39653 12.1115 1.31204 12.014L0.296853 10.8388C0.174425 10.6971 0.0833025 10.4972 0.036544 10.2679C-0.0102144 10.0385 -0.0102074 9.79148 0.0365621 9.56215C0.0833316 9.33282 0.174464 9.13297 0.296898 8.99123C0.419333 8.8495 0.566784 8.77316 0.718122 8.77315H1.97294C2.07722 8.77345 2.17888 8.72099 2.26325 8.62332C2.34762 8.52566 2.41034 8.38783 2.44239 8.22971L2.83018 6.3282C2.87693 6.09883 2.96806 5.89894 3.0905 5.75718C3.21294 5.61542 3.36041 5.53906 3.51176 5.53906C3.66311 5.53906 3.81058 5.61542 3.93302 5.75718C4.05547 5.89894 4.1466 6.09883 4.19335 6.3282L4.58108 8.22971C4.61314 8.38784 4.67588 8.52566 4.76025 8.62333C4.84463 8.72099 4.94629 8.77345 5.05058 8.77315H6.3054C6.45674 8.77316 6.60419 8.8495 6.72663 8.99123C6.84906 9.13297 6.94019 9.33282 6.98696 9.56215C7.03373 9.79148 7.03374 10.0385 6.98698 10.2679C6.94022 10.4972 6.8491 10.6971 6.72667 10.8388L5.71148 12.014C5.62697 12.1114 5.56407 12.2491 5.53184 12.4072C5.4996 12.5653 5.49971 12.7356 5.53213 12.8935L5.91991 14.795C5.96838 15.0241 5.96923 15.272 5.92233 15.502C5.87543 15.7319 5.78328 15.9316 5.65953 16.0716C5.53749 16.215 5.38997 16.2929 5.23832 16.2938Z" fill="#8685EF"/>
<path d="M15.5257 16.2938C15.3741 16.2929 15.2265 16.215 15.1045 16.0716L14.0893 14.8964C14.005 14.7986 13.9034 14.7459 13.7992 14.7459C13.6949 14.7459 13.5933 14.7986 13.509 14.8964L12.4938 16.0716C12.3714 16.2133 12.2239 16.2897 12.0726 16.2897C11.9213 16.2897 11.7738 16.2133 11.6514 16.0716C11.5289 15.9299 11.4378 15.7301 11.391 15.5007C11.3443 15.2714 11.3443 15.0244 11.391 14.795L11.7787 12.8935C11.8112 12.7356 11.8113 12.5653 11.779 12.4072C11.7468 12.2491 11.6839 12.1115 11.5994 12.014L10.5843 10.8388C10.4618 10.6971 10.3707 10.4972 10.3239 10.2679C10.2772 10.0385 10.2772 9.79148 10.324 9.56215C10.3707 9.33282 10.4619 9.13297 10.5843 8.99123C10.7067 8.8495 10.8542 8.77316 11.0055 8.77315H12.2603C12.3646 8.77345 12.4663 8.72099 12.5506 8.62333C12.635 8.52566 12.6977 8.38783 12.7298 8.22971L13.1176 6.3282C13.1643 6.09883 13.2555 5.89894 13.3779 5.75718C13.5003 5.61542 13.6478 5.53906 13.7992 5.53906C13.9505 5.53906 14.098 5.61542 14.2204 5.75718C14.3429 5.89894 14.434 6.09883 14.4808 6.3282L14.8685 8.22971C14.9006 8.38783 14.9633 8.52566 15.0477 8.62332C15.1321 8.72099 15.2337 8.77345 15.338 8.77315H16.5928C16.7441 8.77316 16.8916 8.8495 17.014 8.99123C17.1365 9.13297 17.2276 9.33282 17.2744 9.56215C17.3211 9.79148 17.3211 10.0385 17.2744 10.2679C17.2276 10.4972 17.1365 10.6971 17.0141 10.8388L15.9989 12.014C15.9144 12.1115 15.8515 12.2491 15.8193 12.4072C15.7871 12.5653 15.7872 12.7356 15.8196 12.8935L16.2073 14.795C16.2558 15.0241 16.2566 15.272 16.2097 15.502C16.1629 15.7319 16.0707 15.9316 15.947 16.0716C15.8249 16.215 15.6774 16.2929 15.5257 16.2938Z" fill="#8685EF"/>
<path d="M22.2705 16.3597C22.1039 16.3586 21.9419 16.2732 21.8078 16.1158C21.6719 15.962 21.5707 15.7426 21.5191 15.49C21.4676 15.2373 21.4685 14.965 21.5218 14.7133L21.9096 12.8118C21.9374 12.6765 21.9375 12.5305 21.9098 12.3951C21.8822 12.2597 21.8283 12.1417 21.7559 12.0582L20.7407 10.8829C20.6062 10.7272 20.5061 10.5076 20.4547 10.2557C20.4034 10.0038 20.4034 9.73245 20.4547 9.48053C20.5061 9.22861 20.6062 9.00908 20.7407 8.85339C20.8752 8.6977 21.0372 8.61386 21.2034 8.61387H22.4583C22.5476 8.61413 22.6348 8.56916 22.7071 8.48543C22.7794 8.40171 22.8331 8.28356 22.8606 8.14802L23.2484 6.24656C23.2998 5.99465 23.3999 5.77511 23.5344 5.61942C23.6689 5.46374 23.8308 5.37988 23.9971 5.37988C24.1633 5.37988 24.3253 5.46374 24.4598 5.61942C24.5943 5.77511 24.6944 5.99465 24.7458 6.24656L25.1335 8.14802C25.161 8.28356 25.2147 8.40171 25.287 8.48543C25.3594 8.56915 25.4465 8.61412 25.5359 8.61387H26.7907C26.9569 8.61388 27.1189 8.69773 27.2534 8.85342C27.3879 9.00911 27.488 9.22864 27.5394 9.48055C27.5907 9.73246 27.5907 10.0038 27.5394 10.2557C27.488 10.5076 27.3879 10.7272 27.2534 10.8829L26.2383 12.0582C26.1658 12.1417 26.1119 12.2596 26.0843 12.3951C26.0566 12.5305 26.0567 12.6765 26.0845 12.8118L26.4723 14.7133C26.5237 14.9652 26.5237 15.2366 26.4723 15.4885C26.4209 15.7404 26.3208 15.9599 26.1863 16.1156C26.0518 16.2713 25.8898 16.3552 25.7236 16.3552C25.5574 16.3552 25.3954 16.2713 25.2609 16.1156L24.2457 14.9405C24.1735 14.8565 24.0864 14.8113 23.997 14.8113C23.9076 14.8113 23.8206 14.8565 23.7483 14.9405L22.7332 16.1156C22.5991 16.2732 22.4371 16.3586 22.2705 16.3597ZM23.9971 14.2309C24.1634 14.2309 24.3253 14.315 24.4597 14.4711L25.4749 15.6463C25.5472 15.73 25.6342 15.7751 25.7236 15.7751C25.8129 15.7751 25.9 15.7301 25.9723 15.6464C26.0446 15.5627 26.0984 15.4447 26.126 15.3093C26.1536 15.1739 26.1536 15.028 26.126 14.8926L25.7382 12.9911C25.6866 12.7393 25.6864 12.4677 25.7378 12.2157C25.7892 11.9637 25.8895 11.7441 26.0242 11.5888L27.0394 10.4135C27.1117 10.3298 27.1655 10.2118 27.1931 10.0764C27.2207 9.94105 27.2207 9.79521 27.1931 9.65982C27.1655 9.52443 27.1117 9.40644 27.0394 9.32276C26.9671 9.23909 26.8801 9.19402 26.7907 9.19401H25.5359C25.3696 9.1945 25.2075 9.11084 25.0729 8.95508C24.9384 8.79932 24.8383 8.57951 24.7872 8.32734L24.3994 6.42587C24.3718 6.29047 24.318 6.17247 24.2457 6.08878C24.1735 6.0051 24.0864 5.96003 23.9971 5.96003C23.9077 5.96003 23.8206 6.0051 23.7484 6.08878C23.6761 6.17247 23.6223 6.29047 23.5947 6.42587L23.2069 8.32734C23.1558 8.57951 23.0558 8.79933 22.9212 8.95509C22.7867 9.11085 22.6246 9.19451 22.4583 9.19401H21.2034C21.1141 9.194 21.027 9.23906 20.9547 9.32273C20.8824 9.4064 20.8286 9.52439 20.801 9.65979C20.7734 9.79518 20.7734 9.94103 20.801 10.0764C20.8286 10.2118 20.8824 10.3298 20.9547 10.4135L21.9699 11.5888C22.1047 11.7442 22.2049 11.9637 22.2563 12.2157C22.3077 12.4677 22.3076 12.7393 22.2559 12.9911L21.8681 14.8926C21.8405 15.028 21.8405 15.1739 21.8681 15.3092C21.8957 15.4446 21.9495 15.5626 22.0218 15.6463C22.0941 15.73 22.1811 15.775 22.2705 15.775C22.3598 15.775 22.4469 15.7299 22.5192 15.6462L23.5344 14.4711C23.6688 14.315 23.8308 14.2309 23.9971 14.2309Z" fill="#3F3D56"/>
<path d="M41.3705 19.2758L38.8766 22.692L34.9678 28.044L34.4395 28.7677C34.3911 28.8333 34.3514 28.9136 34.3227 29.0039C34.294 29.0941 34.2768 29.1926 34.2722 29.2935C34.2653 29.44 34.2848 29.5866 34.3283 29.7162C34.3449 29.765 34.3647 29.8108 34.3875 29.8528L34.6709 30.3786L35.1023 31.1783C35.1102 31.1924 35.1177 31.2056 35.1263 31.219C35.2124 31.3565 35.328 31.437 35.4499 31.4445C35.5717 31.452 35.6909 31.3859 35.7834 31.2594L40.2158 25.1912L42.715 21.7684C42.8119 21.6351 42.8717 21.446 42.8812 21.2425C42.8907 21.0391 42.8493 20.8379 42.7659 20.6831L42.6151 20.4037L42.0515 19.3586C42.0103 19.2818 41.9599 19.2187 41.9033 19.173C41.8468 19.1273 41.7851 19.0998 41.7218 19.0921C41.6586 19.0844 41.595 19.0967 41.5347 19.1282C41.4744 19.1597 41.4186 19.2099 41.3705 19.2758V19.2758Z" fill="#8685EF"/>
<path d="M43.2712 16.4019C45.4672 16.4019 47.2474 13.5654 47.2474 10.0664C47.2474 6.56744 45.4672 3.73096 43.2712 3.73096C41.0752 3.73096 39.295 6.56744 39.295 10.0664C39.295 13.5654 41.0752 16.4019 43.2712 16.4019Z" fill="#8685EF"/>
<path d="M43.5634 34.6689V49.2305C43.5635 49.4345 43.6145 49.6301 43.705 49.7743C43.7955 49.9186 43.9183 49.9997 44.0463 49.9999H45.1429C45.2709 49.9997 45.3937 49.9186 45.4842 49.7743C45.5748 49.6301 45.6257 49.4345 45.6258 49.2305V34.6689C45.6257 34.4649 45.5748 34.2693 45.4842 34.125C45.3937 33.9807 45.2709 33.8996 45.1429 33.8994H44.0463C43.9183 33.8996 43.7955 33.9807 43.705 34.125C43.6145 34.2693 43.5635 34.4649 43.5634 34.6689Z" fill="#2F2E41"/>
<path d="M41.2462 34.6689V49.2305C41.2462 49.3315 41.2587 49.4316 41.2829 49.5249C41.3072 49.6183 41.3428 49.7031 41.3876 49.7746C41.4325 49.846 41.4857 49.9027 41.5443 49.9413C41.6029 49.98 41.6657 49.9999 41.7291 49.9999H42.8257C42.9537 49.9997 43.0765 49.9186 43.167 49.7743C43.2575 49.6301 43.3085 49.4345 43.3086 49.2305V34.6689C43.3085 34.4649 43.2575 34.2693 43.167 34.125C43.0765 33.9807 42.9537 33.8996 42.8257 33.8994H41.7291C41.6657 33.8994 41.6029 33.9193 41.5443 33.958C41.4857 33.9966 41.4325 34.0533 41.3876 34.1248C41.3428 34.1962 41.3072 34.281 41.2829 34.3744C41.2587 34.4678 41.2462 34.5678 41.2462 34.6689Z" fill="#2F2E41"/>
<path d="M41.6913 36.6638C41.2787 36.6632 40.8715 36.5146 40.4999 36.2289C40.1282 35.9433 39.8017 35.5279 39.5446 35.0138C39.2875 34.4996 39.1063 33.8997 39.0146 33.2588C38.9228 32.6178 38.9228 31.9521 39.0146 31.3111L40.255 22.6471C40.2559 21.7509 40.4117 20.8725 40.7054 20.1082C40.9991 19.344 41.4194 18.7235 41.9199 18.315C42.4205 17.9064 42.9821 17.7256 43.5429 17.7924C44.1038 17.8591 44.6423 18.1709 45.0992 18.6935C45.4941 19.1452 45.816 19.7401 46.0383 20.4291C46.2606 21.1181 46.3769 21.8814 46.3777 22.6561C46.3794 22.7344 46.5523 30.7918 46.6249 34.5152C46.6298 34.7699 46.6031 35.0237 46.5463 35.262C46.4895 35.5002 46.4037 35.7183 46.2938 35.9035C46.184 36.0888 46.0522 36.2376 45.9062 36.3415C45.7601 36.4454 45.6026 36.5022 45.4427 36.5088L41.7798 36.6617C41.7503 36.6631 41.7207 36.6638 41.6913 36.6638Z" fill="#2F2E41"/>
<path d="M39.9135 12.8668L39.9176 12.63C39.6412 12.6178 39.3975 12.5902 39.2143 12.377C39.1624 12.3131 39.1197 12.2322 39.0892 12.1397C39.0587 12.0472 39.041 11.9453 39.0374 11.8409C39.0342 11.7772 39.0403 11.7131 39.0551 11.6537C39.07 11.5942 39.0932 11.5411 39.1231 11.4983C39.2446 11.3347 39.4402 11.3877 39.5828 11.4918L39.7057 11.5816L39.47 8.83643L39.3228 8.86856L39.5233 11.2037C39.3296 11.113 39.1501 11.1521 39.0272 11.3175C38.9799 11.3832 38.9429 11.4653 38.9189 11.5576C38.895 11.6498 38.8847 11.7496 38.8889 11.8493C38.8933 11.9895 38.9168 12.1265 38.9579 12.2507C38.9989 12.3749 39.0566 12.4832 39.1267 12.5682C39.362 12.8422 39.6678 12.8558 39.9135 12.8668Z" fill="#2F2E41"/>
<path d="M41.1207 9.07031H40.3205V9.30707H41.1207V9.07031Z" fill="#2F2E41"/>
<path d="M44.3101 20.459L44.4467 25.6948L44.66 33.8996L44.689 35.0088C44.6913 35.1099 44.7062 35.2093 44.7329 35.3011C44.7595 35.393 44.7974 35.4755 44.8442 35.5438C44.9121 35.6432 44.9964 35.7097 45.0872 35.7356C45.1215 35.7452 45.1564 35.7487 45.1912 35.7463L45.6258 35.7178L46.287 35.674C46.2989 35.6729 46.3101 35.6717 46.3219 35.6693C46.4431 35.6468 46.5544 35.5522 46.6336 35.4044C46.7128 35.2567 46.7541 35.0668 46.7491 34.8726L46.5077 25.5694L46.371 20.3229C46.3654 20.1191 46.3093 19.9271 46.215 19.7891C46.1207 19.6511 45.996 19.5783 45.868 19.5866L45.6369 19.602L44.7729 19.6588C44.7095 19.6628 44.6472 19.6867 44.5896 19.7291C44.5321 19.7715 44.4803 19.8316 44.4373 19.9059C44.3943 19.9802 44.3609 20.0673 44.3391 20.1623C44.3173 20.2572 44.3074 20.358 44.3101 20.459Z" fill="#8685EF"/>
<path d="M43.9765 20.9019V24.9267C43.9766 25.1272 44.0258 25.3197 44.1136 25.4632C44.2015 25.6067 44.321 25.6899 44.4468 25.695C44.4509 25.696 44.4552 25.6964 44.4594 25.6962H46.2425C46.2711 25.6961 46.2997 25.6917 46.3279 25.6832C46.3921 25.6653 46.4533 25.6266 46.5077 25.5695C46.5744 25.4993 46.6292 25.4038 46.6672 25.2917C46.7052 25.1795 46.7252 25.0542 46.7254 24.9267V20.9019C46.725 20.3213 46.58 19.7647 46.3223 19.3541C46.0647 18.9436 45.7153 18.7126 45.3509 18.7119C45.2566 18.7116 45.1624 18.727 45.0701 18.7581C44.7612 18.8615 44.484 19.1309 44.2849 19.5212C44.0858 19.9115 43.9769 20.3989 43.9765 20.9019Z" fill="#2F2E41"/>
<path d="M38.767 22.5815C38.7854 22.6772 38.8154 22.7661 38.8554 22.8432L39.9847 25.0414C40.0048 25.0821 40.028 25.1186 40.0537 25.1503C40.14 25.2624 40.2479 25.3234 40.3592 25.3232C40.4705 25.323 40.5783 25.2615 40.6644 25.1491L42.6191 22.6005C42.7588 22.4183 42.8746 22.194 42.9598 21.9405C43.0451 21.6871 43.0982 21.4093 43.1161 21.1231C43.134 20.8369 43.1164 20.5479 43.0642 20.2726C43.012 19.9973 42.9262 19.741 42.8119 19.5185C42.6976 19.296 42.5568 19.1115 42.3977 18.9756C42.2386 18.8398 42.0643 18.7551 41.8847 18.7266C41.7051 18.6981 41.5237 18.7262 41.3509 18.8094C41.1781 18.8926 41.0173 19.0291 40.8776 19.2113L38.923 21.76C38.849 21.8571 38.7947 21.9869 38.7669 22.1331C38.7391 22.2793 38.7392 22.4354 38.767 22.5815Z" fill="#2F2E41"/>
<path d="M42.6624 6.34114C42 6.78056 41.2866 7.26669 40.5525 7.13199C39.9512 7.02164 39.3732 6.4614 39.2347 5.47138C39.1024 4.52535 39.376 3.53847 39.8121 2.90477C40.3054 2.18795 40.9864 1.84115 41.6364 1.69487C42.0291 1.6065 42.4654 1.60078 42.8275 1.89367C43.1173 2.12811 43.3779 2.552 43.4227 3.08485L43.7012 2.96466C43.5044 2.43305 43.5985 1.78872 43.8163 1.31118C44.0782 0.737001 44.5177 0.497884 44.9494 0.47791C45.8274 0.437287 46.7258 1.08647 47.4328 1.87222C48.1291 2.64888 48.7022 3.67334 49.1068 4.86436C49.5605 6.20221 49.8104 7.80201 49.6578 9.32009C49.5025 10.8652 48.8752 12.3314 47.9042 12.7965C47.7204 12.8845 47.7987 13.3442 47.9836 13.2557C48.9106 12.8117 49.5952 11.5328 49.8582 10.0743C50.1604 8.39834 49.9525 6.56283 49.489 5.01316C49.078 3.65852 48.4645 2.48539 47.7025 1.59681C46.9407 0.70213 45.9535 -0.0175483 44.9912 0.000325887C44.4383 0.0105937 43.9028 0.324573 43.5682 1.0493C43.2824 1.66806 43.1908 2.52352 43.4431 3.20503C43.5123 3.39211 43.7423 3.33076 43.7216 3.08484C43.6167 1.83794 42.8593 1.19693 42.1301 1.16925C41.7185 1.16674 41.309 1.26322 40.9154 1.45543C40.5513 1.61436 40.2057 1.86605 39.892 2.20077C39.3031 2.85037 38.8888 3.88773 38.9054 5.0559C38.9219 6.22131 39.4146 7.1165 40.0976 7.46117C40.9989 7.91602 41.9128 7.35032 42.7418 6.80036C42.7793 6.78176 42.811 6.74115 42.8303 6.68676C42.8497 6.63236 42.8554 6.56826 42.8462 6.50744C42.8355 6.44673 42.8102 6.39521 42.7757 6.36407C42.7413 6.33293 42.7006 6.32469 42.6624 6.34113L42.6624 6.34114Z" fill="#2F2E41"/>
<path d="M30.5295 29.6854C30.363 29.6843 30.201 29.5989 30.0669 29.4415C29.931 29.2877 29.8297 29.0683 29.7782 28.8157C29.7267 28.563 29.7276 28.2907 29.7809 28.039L30.1687 26.1375C30.1964 26.0021 30.1965 25.8562 30.1689 25.7208C30.1413 25.5853 30.0874 25.4674 30.015 25.3839L28.9998 24.2086C28.8653 24.0529 28.7652 23.8333 28.7138 23.5814C28.6624 23.3295 28.6624 23.0581 28.7138 22.8062C28.7652 22.5543 28.8653 22.3348 28.9998 22.1791C29.1343 22.0234 29.2962 21.9395 29.4625 21.9395H30.7173C30.8067 21.9398 30.8938 21.8948 30.9661 21.8111C31.0385 21.7274 31.0922 21.6092 31.1196 21.4737L31.5075 19.5722C31.5589 19.3203 31.659 19.1008 31.7935 18.9451C31.9279 18.7894 32.0899 18.7056 32.2561 18.7056C32.4224 18.7056 32.5844 18.7894 32.7189 18.9451C32.8533 19.1008 32.9534 19.3203 33.0048 19.5722L33.3926 21.4737C33.42 21.6092 33.4738 21.7274 33.5461 21.8111C33.6184 21.8948 33.7056 21.9398 33.7949 21.9395H35.0498C35.216 21.9396 35.378 22.0234 35.5125 22.1791C35.647 22.3348 35.7471 22.5543 35.7984 22.8062C35.8498 23.0581 35.8498 23.3295 35.7984 23.5814C35.7471 23.8333 35.647 24.0529 35.5125 24.2086L34.4973 25.3839C34.4249 25.4673 34.371 25.5853 34.3433 25.7208C34.3157 25.8562 34.3158 26.0021 34.3436 26.1375L34.7314 28.039C34.7827 28.2909 34.7827 28.5623 34.7314 28.8142C34.68 29.0661 34.5799 29.2856 34.4454 29.4413C34.3109 29.597 34.1489 29.6809 33.9827 29.6809C33.8164 29.6809 33.6545 29.597 33.52 29.4413L32.5048 28.2662C32.4326 28.1822 32.3455 28.137 32.2561 28.137C32.1667 28.137 32.0796 28.1822 32.0074 28.2662L30.9922 29.4413C30.8582 29.5989 30.6961 29.6843 30.5295 29.6854ZM32.2561 27.5566C32.4224 27.5566 32.5844 27.6407 32.7188 27.7968L33.734 28.9719C33.8062 29.0557 33.8933 29.1008 33.9827 29.1008C34.072 29.1008 34.1591 29.0557 34.2314 28.9721C34.3037 28.8884 34.3575 28.7704 34.3851 28.635C34.4127 28.4996 34.4127 28.3537 34.3851 28.2183L33.9973 26.3168C33.9456 26.0649 33.9455 25.7934 33.9969 25.5414C34.0483 25.2893 34.1486 25.0698 34.2833 24.9145L35.2985 23.7392C35.3707 23.6555 35.4245 23.5375 35.4521 23.4021C35.4798 23.2667 35.4798 23.1209 35.4521 22.9855C35.4245 22.8501 35.3707 22.7321 35.2985 22.6484C35.2262 22.5648 35.1391 22.5197 35.0498 22.5197H33.7949C33.6286 22.5202 33.4665 22.4365 33.332 22.2808C33.1974 22.125 33.0974 21.9052 33.0463 21.653L32.6585 19.7516C32.6309 19.6161 32.5771 19.4981 32.5048 19.4145C32.4325 19.3308 32.3455 19.2857 32.2561 19.2857C32.1668 19.2857 32.0797 19.3308 32.0074 19.4145C31.9351 19.4981 31.8813 19.6161 31.8537 19.7516L31.4659 21.653C31.4148 21.9052 31.3148 22.125 31.1803 22.2808C31.0457 22.4365 30.8836 22.5202 30.7173 22.5197H29.4625C29.3731 22.5197 29.2861 22.5647 29.2138 22.6484C29.1415 22.7321 29.0877 22.8501 29.0601 22.9855C29.0325 23.1209 29.0325 23.2667 29.0601 23.4021C29.0877 23.5375 29.1415 23.6555 29.2138 23.7392L30.229 24.9145C30.3637 25.0699 30.464 25.2894 30.5154 25.5414C30.5668 25.7934 30.5666 26.0649 30.515 26.3168L30.1271 28.2183C30.0995 28.3537 30.0995 28.4995 30.1271 28.6349C30.1548 28.7703 30.2086 28.8883 30.2808 28.972C30.3531 29.0557 30.4402 29.1007 30.5295 29.1007C30.6189 29.1007 30.7059 29.0556 30.7782 28.9719L31.7935 27.7968C31.9278 27.6407 32.0898 27.5566 32.2561 27.5566Z" fill="#3F3D56"/>
</g>
<defs>
<clipPath id="clip0_34_270">
<rect width="50" height="50" fill="white"/>
</clipPath>
</defs>
</svg>
