<svg width="50" height="50" viewBox="0 0 50 50" fill="none" xmlns="http://www.w3.org/2000/svg">
<g clip-path="url(#clip0_62_166)">
<path d="M4.80824 42.1207L4.36788 40.3891C3.58711 40.0592 2.7883 39.7735 1.97525 39.5333L1.91966 40.338L1.69425 39.4514C0.685921 39.164 -5.72205e-05 39.0376 -5.72205e-05 39.0376C-5.72205e-05 39.0376 0.926305 42.5506 2.86992 45.2362L5.13441 45.6328L3.37519 45.8858C3.61968 46.179 3.88242 46.4567 4.16186 46.7171C6.98895 49.3335 10.1379 50.5339 11.195 49.3982C12.2522 48.2626 10.8175 45.2212 7.99037 42.6051C7.11395 41.794 6.01298 41.1431 4.91088 40.6307L4.80824 42.1207Z" fill="#F2F2F2"/>
<path d="M8.99607 40.24L9.51685 38.5308C9.01956 37.846 8.48392 37.1897 7.91249 36.5651L7.4477 37.2253L7.71433 36.3502C7.00003 35.5848 6.47837 35.123 6.47837 35.123C6.47837 35.123 5.45031 38.6078 5.72151 41.9084L7.45441 43.415L5.81703 42.7248C5.87432 43.1019 5.95535 43.4751 6.05963 43.8421C7.12334 47.5388 9.19658 50.1892 10.6903 49.7619C12.184 49.3346 12.5327 45.9915 11.469 42.2949C11.1393 41.1489 10.5342 40.0243 9.85638 39.0178L8.99607 40.24Z" fill="#F2F2F2"/>
<path d="M34.8897 11.845H34.615V4.34246C34.615 3.7722 34.5023 3.20752 34.2835 2.68067C34.0646 2.15382 33.7437 1.67511 33.3393 1.27188C32.9349 0.868642 32.4547 0.548778 31.9263 0.33055C31.3979 0.112321 30.8315 0 30.2595 0H14.3162C13.1611 0 12.0533 0.457508 11.2364 1.27188C10.4196 2.08625 9.96076 3.19077 9.96076 4.34246V45.5029C9.96076 46.0731 10.0734 46.6378 10.2923 47.1647C10.5112 47.6915 10.832 48.1702 11.2364 48.5735C11.6409 48.9767 12.121 49.2966 12.6495 49.5148C13.1779 49.733 13.7443 49.8453 14.3162 49.8453H30.2595C31.4147 49.8453 32.5225 49.3878 33.3393 48.5734C34.1561 47.7591 34.6149 46.6546 34.6149 45.5029V17.1855H34.8896L34.8897 11.845Z" fill="#E6E6E6"/>
<path d="M30.4353 1.12939H28.3543C28.45 1.36335 28.4866 1.61717 28.4607 1.86852C28.4348 2.11986 28.3474 2.36101 28.206 2.5707C28.0646 2.7804 27.8737 2.95222 27.65 3.07102C27.4264 3.18981 27.1768 3.25194 26.9234 3.25193H17.7897C17.5363 3.25192 17.2868 3.18977 17.0631 3.07097C16.8395 2.95216 16.6486 2.78034 16.5072 2.57065C16.3659 2.36095 16.2784 2.11982 16.2525 1.86849C16.2267 1.61715 16.2632 1.36334 16.3589 1.12939H14.4152C13.5525 1.12939 12.7252 1.47106 12.1152 2.07922C11.5052 2.68738 11.1626 3.51223 11.1626 4.3723V45.4729C11.1626 46.333 11.5052 47.1579 12.1152 47.766C12.7252 48.3742 13.5525 48.7159 14.4152 48.7159H30.4353C31.2979 48.7159 32.1252 48.3742 32.7352 47.766C33.3452 47.1579 33.6879 46.333 33.6879 45.4729V4.37223C33.6879 3.51217 33.3452 2.68734 32.7352 2.0792C32.1252 1.47105 31.2979 1.12939 30.4353 1.12939Z" fill="white"/>
<path d="M20.3838 17.5017C20.3838 17.2144 20.4596 16.9322 20.6038 16.6834C20.7479 16.4346 20.9552 16.2281 21.2048 16.0846C20.9553 15.9409 20.6723 15.8653 20.3841 15.8652C20.096 15.8652 19.813 15.9408 19.5634 16.0844C19.3139 16.228 19.1067 16.4346 18.9626 16.6834C18.8185 16.9321 18.7427 17.2143 18.7427 17.5016C18.7427 17.7889 18.8185 18.0711 18.9626 18.3199C19.1067 18.5686 19.3139 18.7752 19.5634 18.9188C19.813 19.0624 20.096 19.138 20.3841 19.138C20.6723 19.138 20.9553 19.0623 21.2048 18.9186C20.9552 18.7752 20.7479 18.5687 20.6038 18.3199C20.4597 18.0712 20.3838 17.789 20.3838 17.5017Z" fill="#CCCCCC"/>
<path d="M22.4471 17.5017C22.4471 17.2144 22.5229 16.9322 22.667 16.6834C22.8112 16.4346 23.0185 16.2281 23.2681 16.0846C23.0186 15.9409 22.7356 15.8653 22.4474 15.8652C22.1593 15.8652 21.8763 15.9408 21.6267 16.0844C21.3772 16.228 21.17 16.4346 21.0259 16.6834C20.8818 16.9321 20.806 17.2143 20.806 17.5016C20.806 17.7889 20.8818 18.0711 21.0259 18.3199C21.17 18.5686 21.3772 18.7752 21.6267 18.9188C21.8763 19.0624 22.1593 19.138 22.4474 19.138C22.7356 19.138 23.0186 19.0623 23.2681 18.9186C23.0185 18.7752 22.8112 18.5687 22.6671 18.3199C22.523 18.0712 22.4471 17.789 22.4471 17.5017Z" fill="#CCCCCC"/>
<path d="M24.4636 19.138C25.37 19.138 26.1049 18.4054 26.1049 17.5016C26.1049 16.5979 25.37 15.8652 24.4636 15.8652C23.5571 15.8652 22.8223 16.5979 22.8223 17.5016C22.8223 18.4054 23.5571 19.138 24.4636 19.138Z" fill="#8685EF"/>
<path d="M27.2066 22.6127H17.6409C17.5498 22.6126 17.4625 22.5765 17.3981 22.5123C17.3337 22.4481 17.2975 22.3611 17.2974 22.2703V12.7331C17.2975 12.6423 17.3337 12.5553 17.3981 12.491C17.4625 12.4268 17.5498 12.3907 17.6409 12.3906H27.2066C27.2976 12.3907 27.3849 12.4268 27.4493 12.491C27.5137 12.5553 27.55 12.6423 27.5501 12.7331V22.2703C27.55 22.3611 27.5137 22.4481 27.4493 22.5123C27.3849 22.5765 27.2976 22.6126 27.2066 22.6127ZM17.6409 12.5277C17.5862 12.5277 17.5338 12.5494 17.4952 12.5879C17.4566 12.6265 17.4348 12.6787 17.4348 12.7332V22.2703C17.4348 22.3248 17.4566 22.377 17.4952 22.4156C17.5338 22.4541 17.5862 22.4757 17.6409 22.4758H27.2066C27.2612 22.4757 27.3136 22.4541 27.3522 22.4156C27.3909 22.377 27.4126 22.3248 27.4127 22.2703V12.7332C27.4126 12.6787 27.3909 12.6265 27.3522 12.5879C27.3136 12.5494 27.2612 12.5277 27.2066 12.5277H17.6409Z" fill="#CCCCCC"/>
<path d="M29.3424 29.9233H14.6715V30.0603H29.3424V29.9233Z" fill="#CCCCCC"/>
<path d="M15.1348 29.0679C15.3907 29.0679 15.5982 28.8611 15.5982 28.606C15.5982 28.3509 15.3907 28.144 15.1348 28.144C14.879 28.144 14.6715 28.3509 14.6715 28.606C14.6715 28.8611 14.879 29.0679 15.1348 29.0679Z" fill="#8685EF"/>
<path d="M29.3424 34.5425H14.6715V34.6795H29.3424V34.5425Z" fill="#CCCCCC"/>
<path d="M15.1348 33.687C15.3907 33.687 15.5982 33.4802 15.5982 33.2251C15.5982 32.97 15.3907 32.7632 15.1348 32.7632C14.879 32.7632 14.6715 32.97 14.6715 33.2251C14.6715 33.4802 14.879 33.687 15.1348 33.687Z" fill="#8685EF"/>
<path d="M29.074 39.8026H24.4375C24.3575 39.8025 24.2807 39.7708 24.224 39.7143C24.1674 39.6578 24.1356 39.5813 24.1355 39.5014V37.8813C24.1356 37.8014 24.1674 37.7248 24.224 37.6684C24.2807 37.6119 24.3575 37.5802 24.4375 37.5801H29.074C29.154 37.5802 29.2308 37.6119 29.2875 37.6684C29.3441 37.7248 29.3759 37.8014 29.376 37.8813V39.5014C29.3759 39.5813 29.3441 39.6578 29.2875 39.7143C29.2308 39.7708 29.154 39.8025 29.074 39.8026Z" fill="#8685EF"/>
<path d="M16.6462 29.0679C16.902 29.0679 17.1095 28.8611 17.1095 28.606C17.1095 28.3509 16.902 28.144 16.6462 28.144C16.3903 28.144 16.1828 28.3509 16.1828 28.606C16.1828 28.8611 16.3903 29.0679 16.6462 29.0679Z" fill="#8685EF"/>
<path d="M18.1575 29.0679C18.4134 29.0679 18.6208 28.8611 18.6208 28.606C18.6208 28.3509 18.4134 28.144 18.1575 28.144C17.9016 28.144 17.6942 28.3509 17.6942 28.606C17.6942 28.8611 17.9016 29.0679 18.1575 29.0679Z" fill="#8685EF"/>
<path d="M16.6462 33.687C16.902 33.687 17.1095 33.4802 17.1095 33.2251C17.1095 32.97 16.902 32.7632 16.6462 32.7632C16.3903 32.7632 16.1828 32.97 16.1828 33.2251C16.1828 33.4802 16.3903 33.687 16.6462 33.687Z" fill="#8685EF"/>
<path d="M18.1575 33.687C18.4134 33.687 18.6208 33.4802 18.6208 33.2251C18.6208 32.97 18.4134 32.7632 18.1575 32.7632C17.9016 32.7632 17.6942 32.97 17.6942 33.2251C17.6942 33.4802 17.9016 33.687 18.1575 33.687Z" fill="#8685EF"/>
<path d="M49.8132 50H1.61638C1.5132 50 1.42963 49.9635 1.42963 49.9185C1.42963 49.8735 1.5132 49.8369 1.61638 49.8369H49.8132C49.9163 49.8369 49.9999 49.8735 49.9999 49.9185C49.9999 49.9635 49.9163 50 49.8132 50Z" fill="#3F3D56"/>
<path d="M37.9054 32.7585C37.9384 32.7736 37.97 32.7912 38.0001 32.8112L41.011 31.53L41.1184 30.7393L42.3215 30.7319L42.2504 32.5455L38.2764 33.5934C38.2681 33.6209 38.2581 33.6479 38.2464 33.6742C38.189 33.7965 38.0966 33.899 37.9808 33.9691C37.8651 34.0391 37.7312 34.0735 37.5959 34.0679C37.4606 34.0624 37.33 34.017 37.2205 33.9377C37.1109 33.8584 37.0274 33.7485 36.9802 33.622C36.9331 33.4954 36.9245 33.3578 36.9556 33.2264C36.9867 33.095 37.056 32.9757 37.1548 32.8835C37.2537 32.7912 37.3776 32.7301 37.5112 32.7079C37.6447 32.6857 37.7819 32.7033 37.9054 32.7585Z" fill="#FFB8B8"/>
<path d="M42.759 49.1932H41.936L41.5445 46.0283L42.7591 46.0284L42.759 49.1932Z" fill="#FFB8B8"/>
<path d="M41.3482 48.9585H42.9353V49.9548H40.3488C40.3488 49.6906 40.4541 49.4372 40.6415 49.2503C40.8289 49.0635 41.0831 48.9585 41.3482 48.9585Z" fill="#2F2E41"/>
<path d="M45.9597 48.9611L45.1406 49.0416L44.4397 45.9303L45.6485 45.8115L45.9597 48.9611Z" fill="#FFB8B8"/>
<path d="M44.5326 48.8657L46.1121 48.7106L46.2101 49.7021L43.636 49.9549C43.6232 49.8247 43.6362 49.6933 43.6743 49.568C43.7124 49.4428 43.7748 49.3263 43.8581 49.2252C43.9413 49.124 44.0437 49.0402 44.1595 48.9786C44.2752 48.9169 44.402 48.8785 44.5326 48.8657Z" fill="#2F2E41"/>
<path d="M42.9881 27.3823C43.8986 27.3823 44.6368 26.6464 44.6368 25.7385C44.6368 24.8307 43.8986 24.0947 42.9881 24.0947C42.0775 24.0947 41.3393 24.8307 41.3393 25.7385C41.3393 26.6464 42.0775 27.3823 42.9881 27.3823Z" fill="#FFB8B8"/>
<path d="M41.7521 48.5531C41.6814 48.5533 41.6129 48.5286 41.5586 48.4833C41.5044 48.438 41.468 48.3751 41.4557 48.3057C41.0298 45.9481 39.6374 38.2394 39.6041 38.0259C39.6034 38.021 39.603 38.016 39.603 38.011V37.4363C39.603 37.4153 39.6095 37.3949 39.6218 37.3779L39.8057 37.121C39.8145 37.1087 39.8259 37.0985 39.8392 37.0912C39.8525 37.084 39.8673 37.0799 39.8825 37.0792C40.9312 37.0302 44.3656 36.8865 44.5315 37.0932C44.6981 37.3009 44.6393 37.9303 44.6258 38.0543L44.6264 38.0673L46.1694 47.9053C46.1814 47.9837 46.162 48.0638 46.1154 48.1281C46.0687 48.1924 45.9985 48.2358 45.92 48.2489L44.9563 48.4072C44.8845 48.4187 44.811 48.4041 44.7491 48.3662C44.6872 48.3282 44.641 48.2693 44.6189 48.2002C44.3209 47.2506 43.3214 44.0562 42.975 42.8201C42.9729 42.8123 42.9679 42.8055 42.9611 42.8011C42.9543 42.7966 42.9461 42.7948 42.938 42.7959C42.93 42.7971 42.9226 42.8011 42.9173 42.8073C42.912 42.8134 42.9091 42.8213 42.9092 42.8294C42.9265 44.0077 42.9683 47.014 42.9828 48.0523L42.9843 48.1641C42.985 48.2398 42.9571 48.313 42.9062 48.3692C42.8554 48.4254 42.7852 48.4606 42.7096 48.4677L41.7803 48.5519C41.7709 48.5527 41.7614 48.5531 41.7521 48.5531Z" fill="#2F2E41"/>
<path d="M41.9417 28.0289C41.654 28.1994 41.4818 28.5128 41.383 28.8317C41.2001 29.4221 41.09 30.0325 41.0551 30.6494L40.9507 32.4966L39.6582 37.3937C40.7784 38.3388 41.4247 38.124 42.9327 37.351C44.4407 36.5779 44.6131 37.6087 44.6131 37.6087L44.9146 33.4419L45.3455 28.8887C45.2488 28.7726 45.1393 28.6676 45.0191 28.5758C44.6209 28.2671 44.1575 28.0525 43.664 27.9482C43.1705 27.8439 42.6597 27.8527 42.1701 27.9738L41.9417 28.0289Z" fill="#8685EF"/>
<path d="M41.5219 33.7477C41.5566 33.7607 41.5903 33.7765 41.6226 33.7948L44.5996 32.3092L44.649 31.5043L45.877 31.4199L45.9429 33.2546L41.9645 34.5663C41.932 34.7052 41.8579 34.831 41.7519 34.9269C41.646 35.0228 41.5133 35.0842 41.3715 35.1031C41.2297 35.122 41.0855 35.0973 40.958 35.0325C40.8306 34.9677 40.726 34.8657 40.6581 34.7401C40.5902 34.6146 40.5623 34.4714 40.578 34.3296C40.5938 34.1878 40.6524 34.0542 40.7462 33.9464C40.8399 33.8387 40.9644 33.762 41.1029 33.7265C41.2415 33.691 41.3876 33.6984 41.5219 33.7477Z" fill="#FFB8B8"/>
<path d="M45.3239 28.9094C46.0564 29.1672 46.1854 31.9596 46.1854 31.9596C45.3237 31.487 44.2896 32.2603 44.2896 32.2603C44.2896 32.2603 44.0742 31.53 43.8157 30.5849C43.7376 30.3191 43.7283 30.0379 43.7886 29.7675C43.8488 29.4971 43.9767 29.2464 44.1603 29.0385C44.1603 29.0385 44.5915 28.6515 45.3239 28.9094Z" fill="#8685EF"/>
<path d="M44.4664 26.1731C44.261 26.0092 43.9807 26.307 43.9807 26.307L43.8164 24.8324C43.8164 24.8324 42.7893 24.9551 42.1319 24.7915C41.4746 24.6279 41.3718 25.3854 41.3718 25.3854C41.338 25.0794 41.3311 24.771 41.3513 24.4638C41.3924 24.0951 41.9265 23.7265 42.8714 23.4807C43.8164 23.2349 44.3094 24.2999 44.3094 24.2999C44.9668 24.6276 44.6718 26.3369 44.4664 26.1731Z" fill="#2F2E41"/>
</g>
<defs>
<clipPath id="clip0_62_166">
<rect width="50" height="50" fill="white"/>
</clipPath>
</defs>
</svg>
