<svg width="621" height="486" viewBox="0 0 621 486" fill="none" xmlns="http://www.w3.org/2000/svg">
<path d="M361.356 57.893C382.861 59.2153 399.901 76.4135 401.135 97.9244C408.307 222.888 407.967 307.752 400.678 439.083C399.63 457.964 386.254 473.684 367.527 476.309C337.028 480.583 283.773 485.821 205.708 485.875C124.527 485.93 69.4646 480.243 39.0848 475.851C21.7926 473.352 9.03254 459.581 7.32887 442.192C4.18452 410.099 -0.0236337 351.056 0.000143264 265.062C0.0219057 186.252 3.84991 128.446 6.91971 94.7353C8.75357 74.5972 25.0348 59.3139 45.2162 58.0438C85.6377 55.4999 153.36 51.7667 202.92 51.75C252.398 51.7334 319.889 55.3434 361.356 57.893Z" fill="#8685EF"/>
<mask id="mask0_182_179" style="mask-type:alpha" maskUnits="userSpaceOnUse" x="0" y="51" width="407" height="435">
<path d="M361.356 57.893C382.861 59.2153 399.901 76.4135 401.135 97.9244C408.307 222.888 407.967 307.752 400.678 439.083C399.63 457.964 386.254 473.684 367.527 476.309C337.028 480.583 283.773 485.821 205.708 485.875C124.527 485.93 69.4646 480.243 39.0848 475.851C21.7926 473.352 9.03254 459.581 7.32887 442.192C4.18452 410.099 -0.0236337 351.056 0.000143264 265.062C0.0219057 186.252 3.84991 128.446 6.91971 94.7353C8.75357 74.5972 25.0348 59.3139 45.2162 58.0438C85.6377 55.4999 153.36 51.7667 202.92 51.75C252.398 51.7334 319.889 55.3434 361.356 57.893Z" fill="#8685EF"/>
</mask>
<g mask="url(#mask0_182_179)">
<rect x="57.5" y="0.000488281" width="291.333" height="485.875" fill="#8685EF"/>
</g>
<g filter="url(#filter0_d_182_179)">
<rect x="324.875" y="104.458" width="248.208" height="71.875" rx="7.66667" fill="white"/>
</g>
<g filter="url(#filter1_d_182_179)">
<rect x="334.458" y="113.083" width="55.5833" height="55.5833" rx="7.66667" fill="#F87F81"/>
</g>
<path d="M371.833 139.993V140.874C371.832 142.941 371.163 144.952 369.926 146.607C368.688 148.262 366.949 149.473 364.967 150.059C362.985 150.645 360.867 150.575 358.929 149.858C356.99 149.142 355.335 147.819 354.21 146.085C353.086 144.351 352.551 142.301 352.687 140.238C352.823 138.176 353.622 136.213 354.965 134.642C356.308 133.072 358.122 131.977 360.138 131.521C362.154 131.066 364.263 131.274 366.15 132.115" stroke="white" stroke-width="1.91667" stroke-linecap="round" stroke-linejoin="round"/>
<path d="M371.833 133.208L362.25 142.8L359.375 139.925" stroke="white" stroke-width="1.91667" stroke-linecap="round" stroke-linejoin="round"/>
<path d="M415.384 136.334V138.284H412.176V148.375H409.761V138.284H406.552V136.334H415.384ZM419.561 140.302C419.872 139.796 420.274 139.399 420.769 139.112C421.275 138.824 421.85 138.68 422.494 138.68V141.216H421.855C421.096 141.216 420.521 141.394 420.13 141.751C419.751 142.107 419.561 142.728 419.561 143.614V148.375H417.146V138.818H419.561V140.302ZM433.142 138.818V148.375H430.71V147.167C430.399 147.581 429.991 147.909 429.485 148.151C428.99 148.381 428.45 148.496 427.863 148.496C427.116 148.496 426.455 148.34 425.88 148.03C425.305 147.708 424.85 147.242 424.517 146.633C424.195 146.012 424.034 145.276 424.034 144.425V138.818H426.449V144.08C426.449 144.839 426.639 145.425 427.018 145.839C427.398 146.242 427.915 146.443 428.571 146.443C429.238 146.443 429.761 146.242 430.14 145.839C430.52 145.425 430.71 144.839 430.71 144.08V138.818H433.142ZM439.182 148.53C438.4 148.53 437.698 148.392 437.077 148.116C436.456 147.829 435.962 147.443 435.594 146.96C435.237 146.477 435.042 145.943 435.007 145.356H437.439C437.485 145.724 437.664 146.029 437.974 146.27C438.296 146.512 438.693 146.633 439.164 146.633C439.624 146.633 439.981 146.541 440.234 146.357C440.498 146.173 440.631 145.937 440.631 145.649C440.631 145.339 440.47 145.109 440.148 144.959C439.837 144.798 439.337 144.626 438.647 144.442C437.934 144.269 437.347 144.091 436.887 143.907C436.439 143.723 436.048 143.441 435.714 143.062C435.392 142.682 435.231 142.171 435.231 141.527C435.231 140.998 435.381 140.515 435.68 140.078C435.99 139.641 436.427 139.296 436.991 139.043C437.566 138.79 438.239 138.663 439.009 138.663C440.148 138.663 441.056 138.951 441.735 139.526C442.413 140.089 442.787 140.854 442.856 141.82H440.544C440.51 141.44 440.349 141.141 440.061 140.923C439.785 140.693 439.412 140.578 438.94 140.578C438.503 140.578 438.164 140.658 437.922 140.819C437.692 140.98 437.577 141.205 437.577 141.492C437.577 141.814 437.738 142.061 438.06 142.234C438.382 142.395 438.883 142.562 439.561 142.734C440.251 142.907 440.82 143.085 441.269 143.269C441.717 143.453 442.103 143.74 442.425 144.131C442.758 144.511 442.931 145.017 442.942 145.649C442.942 146.201 442.787 146.696 442.476 147.133C442.177 147.57 441.74 147.915 441.165 148.168C440.602 148.41 439.941 148.53 439.182 148.53ZM447.736 140.802V145.425C447.736 145.747 447.811 145.983 447.961 146.132C448.122 146.27 448.386 146.339 448.754 146.339H449.875V148.375H448.357C446.322 148.375 445.304 147.386 445.304 145.408V140.802H444.166V138.818H445.304V136.455H447.736V138.818H449.875V140.802H447.736ZM460.496 143.39C460.496 143.735 460.473 144.045 460.427 144.321H453.441C453.498 145.011 453.74 145.552 454.165 145.943C454.591 146.334 455.114 146.529 455.735 146.529C456.632 146.529 457.27 146.144 457.65 145.373H460.255C459.979 146.293 459.45 147.052 458.668 147.65C457.886 148.237 456.925 148.53 455.787 148.53C454.867 148.53 454.039 148.329 453.303 147.926C452.578 147.512 452.009 146.932 451.595 146.184C451.193 145.437 450.991 144.574 450.991 143.597C450.991 142.608 451.193 141.739 451.595 140.992C451.998 140.244 452.561 139.669 453.286 139.267C454.01 138.864 454.844 138.663 455.787 138.663C456.695 138.663 457.506 138.859 458.219 139.25C458.944 139.641 459.501 140.198 459.892 140.923C460.295 141.636 460.496 142.458 460.496 143.39ZM457.995 142.7C457.983 142.079 457.759 141.584 457.322 141.216C456.885 140.837 456.35 140.647 455.718 140.647C455.12 140.647 454.614 140.831 454.2 141.199C453.797 141.555 453.55 142.056 453.458 142.7H457.995ZM461.638 143.562C461.638 142.596 461.828 141.739 462.207 140.992C462.598 140.244 463.127 139.669 463.794 139.267C464.461 138.864 465.203 138.663 466.019 138.663C466.64 138.663 467.233 138.801 467.796 139.077C468.36 139.342 468.808 139.698 469.142 140.147V135.61H471.591V148.375H469.142V146.96C468.843 147.432 468.423 147.811 467.882 148.099C467.342 148.387 466.715 148.53 466.002 148.53C465.197 148.53 464.461 148.323 463.794 147.909C463.127 147.495 462.598 146.914 462.207 146.167C461.828 145.408 461.638 144.54 461.638 143.562ZM469.159 143.597C469.159 143.01 469.044 142.51 468.814 142.096C468.584 141.67 468.273 141.348 467.882 141.13C467.491 140.9 467.072 140.785 466.623 140.785C466.175 140.785 465.761 140.894 465.381 141.113C465.002 141.331 464.691 141.653 464.45 142.079C464.22 142.493 464.105 142.987 464.105 143.562C464.105 144.137 464.22 144.643 464.45 145.08C464.691 145.506 465.002 145.833 465.381 146.063C465.772 146.293 466.186 146.408 466.623 146.408C467.072 146.408 467.491 146.299 467.882 146.081C468.273 145.851 468.584 145.529 468.814 145.115C469.044 144.689 469.159 144.183 469.159 143.597ZM480.475 140.216C480.786 139.756 481.211 139.382 481.752 139.094C482.304 138.807 482.93 138.663 483.632 138.663C484.448 138.663 485.184 138.864 485.84 139.267C486.507 139.669 487.03 140.244 487.41 140.992C487.801 141.728 487.996 142.585 487.996 143.562C487.996 144.54 487.801 145.408 487.41 146.167C487.03 146.914 486.507 147.495 485.84 147.909C485.184 148.323 484.448 148.53 483.632 148.53C482.919 148.53 482.292 148.392 481.752 148.116C481.223 147.829 480.797 147.461 480.475 147.012V148.375H478.06V135.61H480.475V140.216ZM485.529 143.562C485.529 142.987 485.409 142.493 485.167 142.079C484.937 141.653 484.627 141.331 484.236 141.113C483.856 140.894 483.442 140.785 482.994 140.785C482.557 140.785 482.143 140.9 481.752 141.13C481.372 141.348 481.062 141.67 480.82 142.096C480.59 142.521 480.475 143.022 480.475 143.597C480.475 144.172 480.59 144.672 480.82 145.097C481.062 145.523 481.372 145.851 481.752 146.081C482.143 146.299 482.557 146.408 482.994 146.408C483.442 146.408 483.856 146.293 484.236 146.063C484.627 145.833 484.937 145.506 485.167 145.08C485.409 144.655 485.529 144.149 485.529 143.562ZM498.894 138.818L492.977 152.895H490.407L492.477 148.133L488.647 138.818H491.355L493.822 145.494L496.323 138.818H498.894ZM506.721 140.198C507.031 139.761 507.457 139.399 507.997 139.112C508.549 138.813 509.176 138.663 509.877 138.663C510.694 138.663 511.43 138.864 512.085 139.267C512.752 139.669 513.276 140.244 513.655 140.992C514.046 141.728 514.242 142.585 514.242 143.562C514.242 144.54 514.046 145.408 513.655 146.167C513.276 146.914 512.752 147.495 512.085 147.909C511.43 148.323 510.694 148.53 509.877 148.53C509.176 148.53 508.555 148.387 508.014 148.099C507.485 147.811 507.054 147.449 506.721 147.012V152.929H504.306V138.818H506.721V140.198ZM511.775 143.562C511.775 142.987 511.654 142.493 511.413 142.079C511.183 141.653 510.872 141.331 510.481 141.113C510.102 140.894 509.688 140.785 509.239 140.785C508.802 140.785 508.388 140.9 507.997 141.13C507.618 141.348 507.307 141.67 507.066 142.096C506.836 142.521 506.721 143.022 506.721 143.597C506.721 144.172 506.836 144.672 507.066 145.097C507.307 145.523 507.618 145.851 507.997 146.081C508.388 146.299 508.802 146.408 509.239 146.408C509.688 146.408 510.102 146.293 510.481 146.063C510.872 145.833 511.183 145.506 511.413 145.08C511.654 144.655 511.775 144.149 511.775 143.562ZM524.88 143.39C524.88 143.735 524.857 144.045 524.811 144.321H517.825C517.883 145.011 518.124 145.552 518.55 145.943C518.975 146.334 519.498 146.529 520.119 146.529C521.016 146.529 521.655 146.144 522.034 145.373H524.639C524.363 146.293 523.834 147.052 523.052 147.65C522.27 148.237 521.31 148.53 520.171 148.53C519.251 148.53 518.423 148.329 517.687 147.926C516.963 147.512 516.393 146.932 515.979 146.184C515.577 145.437 515.376 144.574 515.376 143.597C515.376 142.608 515.577 141.739 515.979 140.992C516.382 140.244 516.945 139.669 517.67 139.267C518.394 138.864 519.228 138.663 520.171 138.663C521.08 138.663 521.89 138.859 522.603 139.25C523.328 139.641 523.886 140.198 524.277 140.923C524.679 141.636 524.88 142.458 524.88 143.39ZM522.379 142.7C522.368 142.079 522.143 141.584 521.706 141.216C521.269 140.837 520.735 140.647 520.102 140.647C519.504 140.647 518.998 140.831 518.584 141.199C518.182 141.555 517.934 142.056 517.842 142.7H522.379ZM530.887 148.53C529.967 148.53 529.139 148.329 528.403 147.926C527.667 147.512 527.086 146.932 526.66 146.184C526.246 145.437 526.039 144.574 526.039 143.597C526.039 142.619 526.252 141.757 526.678 141.009C527.115 140.262 527.707 139.687 528.454 139.284C529.202 138.87 530.036 138.663 530.956 138.663C531.876 138.663 532.709 138.87 533.457 139.284C534.204 139.687 534.791 140.262 535.216 141.009C535.653 141.757 535.872 142.619 535.872 143.597C535.872 144.574 535.648 145.437 535.199 146.184C534.762 146.932 534.164 147.512 533.405 147.926C532.658 148.329 531.818 148.53 530.887 148.53ZM530.887 146.426C531.324 146.426 531.732 146.322 532.111 146.115C532.502 145.897 532.813 145.575 533.043 145.149C533.273 144.724 533.388 144.206 533.388 143.597C533.388 142.688 533.146 141.992 532.663 141.509C532.192 141.015 531.611 140.768 530.921 140.768C530.231 140.768 529.65 141.015 529.179 141.509C528.719 141.992 528.489 142.688 528.489 143.597C528.489 144.505 528.713 145.207 529.162 145.701C529.622 146.184 530.197 146.426 530.887 146.426ZM540.058 140.198C540.369 139.761 540.794 139.399 541.335 139.112C541.887 138.813 542.514 138.663 543.215 138.663C544.032 138.663 544.768 138.864 545.423 139.267C546.09 139.669 546.613 140.244 546.993 140.992C547.384 141.728 547.579 142.585 547.579 143.562C547.579 144.54 547.384 145.408 546.993 146.167C546.613 146.914 546.09 147.495 545.423 147.909C544.768 148.323 544.032 148.53 543.215 148.53C542.514 148.53 541.893 148.387 541.352 148.099C540.823 147.811 540.392 147.449 540.058 147.012V152.929H537.643V138.818H540.058V140.198ZM545.113 143.562C545.113 142.987 544.992 142.493 544.75 142.079C544.52 141.653 544.21 141.331 543.819 141.113C543.439 140.894 543.025 140.785 542.577 140.785C542.14 140.785 541.726 140.9 541.335 141.13C540.955 141.348 540.645 141.67 540.403 142.096C540.173 142.521 540.058 143.022 540.058 143.597C540.058 144.172 540.173 144.672 540.403 145.097C540.645 145.523 540.955 145.851 541.335 146.081C541.726 146.299 542.14 146.408 542.577 146.408C543.025 146.408 543.439 146.293 543.819 146.063C544.21 145.833 544.52 145.506 544.75 145.08C544.992 144.655 545.113 144.149 545.113 143.562ZM551.749 135.61V148.375H549.334V135.61H551.749ZM563.019 143.39C563.019 143.735 562.996 144.045 562.95 144.321H555.964C556.021 145.011 556.263 145.552 556.688 145.943C557.114 146.334 557.637 146.529 558.258 146.529C559.155 146.529 559.793 146.144 560.173 145.373H562.778C562.502 146.293 561.973 147.052 561.191 147.65C560.409 148.237 559.448 148.53 558.31 148.53C557.39 148.53 556.562 148.329 555.826 147.926C555.101 147.512 554.532 146.932 554.118 146.184C553.716 145.437 553.514 144.574 553.514 143.597C553.514 142.608 553.716 141.739 554.118 140.992C554.521 140.244 555.084 139.669 555.809 139.267C556.533 138.864 557.367 138.663 558.31 138.663C559.218 138.663 560.029 138.859 560.742 139.25C561.467 139.641 562.024 140.198 562.415 140.923C562.818 141.636 563.019 142.458 563.019 143.39ZM560.518 142.7C560.506 142.079 560.282 141.584 559.845 141.216C559.408 140.837 558.873 140.647 558.241 140.647C557.643 140.647 557.137 140.831 556.723 141.199C556.32 141.555 556.073 142.056 555.981 142.7H560.518Z" fill="#8685EF"/>
<defs>
<filter id="filter0_d_182_179" x="276.958" y="66.1247" width="344.042" height="167.708" filterUnits="userSpaceOnUse" color-interpolation-filters="sRGB">
<feFlood flood-opacity="0" result="BackgroundImageFix"/>
<feColorMatrix in="SourceAlpha" type="matrix" values="0 0 0 0 0 0 0 0 0 0 0 0 0 0 0 0 0 0 127 0" result="hardAlpha"/>
<feOffset dy="9.58333"/>
<feGaussianBlur stdDeviation="23.9583"/>
<feColorMatrix type="matrix" values="0 0 0 0 0 0 0 0 0 0 0 0 0 0 0 0 0 0 0.1 0"/>
<feBlend mode="normal" in2="BackgroundImageFix" result="effect1_dropShadow_182_179"/>
<feBlend mode="normal" in="SourceGraphic" in2="effect1_dropShadow_182_179" result="shape"/>
</filter>
<filter id="filter1_d_182_179" x="286.542" y="74.7497" width="151.417" height="151.417" filterUnits="userSpaceOnUse" color-interpolation-filters="sRGB">
<feFlood flood-opacity="0" result="BackgroundImageFix"/>
<feColorMatrix in="SourceAlpha" type="matrix" values="0 0 0 0 0 0 0 0 0 0 0 0 0 0 0 0 0 0 127 0" result="hardAlpha"/>
<feOffset dy="9.58333"/>
<feGaussianBlur stdDeviation="23.9583"/>
<feColorMatrix type="matrix" values="0 0 0 0 0 0 0 0 0 0 0 0 0 0 0 0 0 0 0.1 0"/>
<feBlend mode="normal" in2="BackgroundImageFix" result="effect1_dropShadow_182_179"/>
<feBlend mode="normal" in="SourceGraphic" in2="effect1_dropShadow_182_179" result="shape"/>
</filter>
</defs>
</svg>
